<svg version="1.1" xmlns="http://www.w3.org/2000/svg" xmlns:xlink="http://www.w3.org/1999/xlink" width="1348.859375" height="973"><defs/><g><g transform="translate(-6,-6) scale(1,1)"><rect fill="#C0C0C0" stroke="none" x="247" y="415" width="117.869140625" height="59" opacity="0.2"/></g><g transform="translate(-6,-6) scale(1,1)"><rect fill="#ffffff" stroke="none" x="240" y="408" width="117.869140625" height="59"/></g><g transform="translate(-6,-6) scale(1,1)"><path fill="none" stroke="#000000" d="M 240 408 L 357.869140625 408 L 357.869140625 467 L 240 467 L 240 408 Z Z" stroke-miterlimit="10"/></g><g transform="translate(-6,-6) scale(1,1)"><path fill="none" stroke="#000000" d="M 328.869140625 413 L 352.869140625 413 L 352.869140625 437 L 328.869140625 437 L 328.869140625 413 Z Z" stroke-miterlimit="10"/></g><g transform="translate(-6,-6) scale(1,1)"><path fill="none" stroke="#000000" d="M 328.869140625 413 L 352.869140625 437" stroke-miterlimit="10"/></g><g transform="translate(-6,-6) scale(1,1)"><path fill="none" stroke="#000000" d="M 352.869140625 413 L 328.869140625 437" stroke-miterlimit="10"/></g><g transform="translate(-6,-6) scale(1,1)"><path fill="none" stroke="#000000" d="M 240 448 L 357.869140625 448" stroke-miterlimit="10"/></g><g transform="translate(-6,-6) scale(1,1)"><path fill="none" stroke="#000000" d="M 240 458 L 357.869140625 458" stroke-miterlimit="10"/></g><g transform="translate(-6,-6) scale(1,1)"><g><path fill="none" stroke="none"/><text fill="#000000" stroke="none" font-family="Times New Roman" font-size="14px" font-style="normal" font-weight="normal" text-decoration="none" x="286.9345703125" y="419.5"></text></g></g><g transform="translate(-6,-6) scale(1,1)"><g><path fill="none" stroke="none"/><text fill="#000000" stroke="none" font-family="Times New Roman" font-size="14px" font-style="italic" font-weight="bold" text-decoration="none" x="258.9345703125" y="440.5">DataBase</text></g></g><g transform="translate(-6,-6) scale(1,1)"><rect fill="#C0C0C0" stroke="none" x="599" y="695" width="142.0888671875" height="73" opacity="0.2"/></g><g transform="translate(-6,-6) scale(1,1)"><rect fill="#ffffff" stroke="none" x="592" y="688" width="142.0888671875" height="73"/></g><g transform="translate(-6,-6) scale(1,1)"><path fill="none" stroke="#000000" d="M 592 688 L 734.0888671875 688 L 734.0888671875 761 L 592 761 L 592 688 Z Z" stroke-miterlimit="10"/></g><g transform="translate(-6,-6) scale(1,1)"><path fill="none" stroke="#000000" d="M 705.0888671875 693 L 729.0888671875 693 L 729.0888671875 717 L 705.0888671875 717 L 705.0888671875 693 Z Z" stroke-miterlimit="10"/></g><g transform="translate(-6,-6) scale(1,1)"><path fill="none" stroke="#000000" d="M 705.0888671875 693 L 729.0888671875 717" stroke-miterlimit="10"/></g><g transform="translate(-6,-6) scale(1,1)"><path fill="none" stroke="#000000" d="M 729.0888671875 693 L 705.0888671875 717" stroke-miterlimit="10"/></g><g transform="translate(-6,-6) scale(1,1)"><path fill="none" stroke="#000000" d="M 592 728 L 734.0888671875 728" stroke-miterlimit="10"/></g><g transform="translate(-6,-6) scale(1,1)"><path fill="none" stroke="#000000" d="M 592 738 L 734.0888671875 738" stroke-miterlimit="10"/></g><g transform="translate(-6,-6) scale(1,1)"><g><path fill="none" stroke="none"/><text fill="#000000" stroke="none" font-family="Times New Roman" font-size="14px" font-style="normal" font-weight="normal" text-decoration="none" x="651.04443359375" y="699.5"></text></g></g><g transform="translate(-6,-6) scale(1,1)"><g><path fill="none" stroke="none"/><text fill="#000000" stroke="none" font-family="Times New Roman" font-size="14px" font-style="italic" font-weight="bold" text-decoration="none" x="603.72607421875" y="720.5">PoolConfigDTO</text></g></g><g transform="translate(-6,-6) scale(1,1)"><g><path fill="none" stroke="none"/><text fill="#000000" stroke="none" font-family="Times New Roman" font-size="14px" font-style="italic" font-weight="normal" text-decoration="none" x="597" y="754.5">-validate_fields_data()</text></g></g><g transform="translate(-6,-6) scale(1,1)"><rect fill="#C0C0C0" stroke="none" x="63" y="375" width="112.2138671875" height="59" opacity="0.2"/></g><g transform="translate(-6,-6) scale(1,1)"><rect fill="#ffffff" stroke="none" x="56" y="368" width="112.2138671875" height="59"/></g><g transform="translate(-6,-6) scale(1,1)"><path fill="none" stroke="#000000" d="M 56 368 L 168.2138671875 368 L 168.2138671875 427 L 56 427 L 56 368 Z Z" stroke-miterlimit="10"/></g><g transform="translate(-6,-6) scale(1,1)"><path fill="none" stroke="#000000" d="M 139.2138671875 373 L 163.2138671875 373 L 163.2138671875 397 L 139.2138671875 397 L 139.2138671875 373 Z Z" stroke-miterlimit="10"/></g><g transform="translate(-6,-6) scale(1,1)"><path fill="none" stroke="#000000" d="M 139.2138671875 373 L 163.2138671875 397" stroke-miterlimit="10"/></g><g transform="translate(-6,-6) scale(1,1)"><path fill="none" stroke="#000000" d="M 163.2138671875 373 L 139.2138671875 397" stroke-miterlimit="10"/></g><g transform="translate(-6,-6) scale(1,1)"><path fill="none" stroke="#000000" d="M 56 408 L 168.2138671875 408" stroke-miterlimit="10"/></g><g transform="translate(-6,-6) scale(1,1)"><path fill="none" stroke="#000000" d="M 56 418 L 168.2138671875 418" stroke-miterlimit="10"/></g><g transform="translate(-6,-6) scale(1,1)"><g><path fill="none" stroke="none"/><text fill="#000000" stroke="none" font-family="Times New Roman" font-size="14px" font-style="normal" font-weight="normal" text-decoration="none" x="100.10693359375" y="379.5"></text></g></g><g transform="translate(-6,-6) scale(1,1)"><g><path fill="none" stroke="none"/><text fill="#000000" stroke="none" font-family="Times New Roman" font-size="14px" font-style="italic" font-weight="bold" text-decoration="none" x="65.5" y="400.5">BaseLogger</text></g></g><g transform="translate(-6,-6) scale(1,1)"><rect fill="#C0C0C0" stroke="none" x="23" y="231" width="196.8994140625" height="63" opacity="0.2"/></g><g transform="translate(-6,-6) scale(1,1)"><rect fill="#ffffff" stroke="none" x="16" y="224" width="196.8994140625" height="63"/></g><g transform="translate(-6,-6) scale(1,1)"><path fill="none" stroke="#000000" d="M 16 224 L 212.8994140625 224 L 212.8994140625 287 L 16 287 L 16 224 Z Z" stroke-miterlimit="10"/></g><g transform="translate(-6,-6) scale(1,1)"><path fill="#ffffff" stroke="none" d="M 186.8994140625 241 C 186.8994140625 236.0294368 190.9288508625 232 195.8994140625 232 C 200.8699772625 232 204.8994140625 236.0294368 204.8994140625 241 C 204.8994140625 245.9705632 200.8699772625 250 195.8994140625 250 C 190.9288508625 250 186.8994140625 245.9705632 186.8994140625 241 Z"/></g><g transform="translate(-6,-6) scale(1,1)"><path fill="none" stroke="#000000" d="M 186.8994140625 241 C 186.8994140625 236.0294368 190.9288508625 232 195.8994140625 232 C 200.8699772625 232 204.8994140625 236.0294368 204.8994140625 241 C 204.8994140625 245.9705632 200.8699772625 250 195.8994140625 250 C 190.9288508625 250 186.8994140625 245.9705632 186.8994140625 241 Z" stroke-miterlimit="10"/></g><g transform="translate(-6,-6) scale(1,1)"><path fill="none" stroke="#000000" d="M 16 264 L 212.8994140625 264" stroke-miterlimit="10"/></g><g transform="translate(-6,-6) scale(1,1)"><g><path fill="none" stroke="none"/><text fill="#000000" stroke="none" font-family="Times New Roman" font-size="14px" font-style="normal" font-weight="normal" text-decoration="none" x="70.97021484375" y="240.5">«interface»</text></g></g><g transform="translate(-6,-6) scale(1,1)"><g><path fill="none" stroke="none"/><text fill="#000000" stroke="none" font-family="Times New Roman" font-size="14px" font-style="italic" font-weight="bold" text-decoration="none" x="29.3564453125" y="256.5">LoggerObserverInterface</text></g></g><g transform="translate(-6,-6) scale(1,1)"><g><path fill="none" stroke="none"/><text fill="#000000" stroke="none" font-family="Times New Roman" font-size="14px" font-style="italic" font-weight="normal" text-decoration="none" x="21" y="280.5">+update(log_entry: LogEntry)</text></g></g><g transform="translate(-6,-6) scale(1,1)"><path fill="none" stroke="#000000" d="M 112 367 L 114 288" stroke-miterlimit="10" stroke-dasharray="3"/></g><g transform="translate(-6,-6) scale(1,1)"><path fill="#FFFFFF" stroke="none" d="M 121.9019378355018 308.53191122238417 L 114 288 L 105.06926017192984 308.1057674840659"/></g><g transform="translate(-6,-6) scale(1,1)"><path fill="none" stroke="#000000" d="M 121.9019378355018 308.53191122238417 L 114 288 L 105.06926017192984 308.1057674840659 L 121.9019378355018 308.53191122238417" stroke-miterlimit="10"/></g><g transform="translate(-6,-6) scale(1,1)"><rect fill="#C0C0C0" stroke="none" x="1159" y="431" width="192.859375" height="121" opacity="0.2"/></g><g transform="translate(-6,-6) scale(1,1)"><rect fill="#ffffff" stroke="none" x="1152" y="424" width="192.859375" height="121"/></g><g transform="translate(-6,-6) scale(1,1)"><path fill="none" stroke="#000000" d="M 1152 424 L 1344.859375 424 L 1344.859375 545 L 1152 545 L 1152 424 Z Z" stroke-miterlimit="10"/></g><g transform="translate(-6,-6) scale(1,1)"><path fill="#ffffff" stroke="none" d="M 1318.859375 441 C 1318.859375 436.0294368 1322.8888118 432 1327.859375 432 C 1332.8299382 432 1336.859375 436.0294368 1336.859375 441 C 1336.859375 445.9705632 1332.8299382 450 1327.859375 450 C 1322.8888118 450 1318.859375 445.9705632 1318.859375 441 Z"/></g><g transform="translate(-6,-6) scale(1,1)"><path fill="none" stroke="#000000" d="M 1318.859375 441 C 1318.859375 436.0294368 1322.8888118 432 1327.859375 432 C 1332.8299382 432 1336.859375 436.0294368 1336.859375 441 C 1336.859375 445.9705632 1332.8299382 450 1327.859375 450 C 1322.8888118 450 1318.859375 445.9705632 1318.859375 441 Z" stroke-miterlimit="10"/></g><g transform="translate(-6,-6) scale(1,1)"><path fill="none" stroke="#000000" d="M 1152 464 L 1344.859375 464" stroke-miterlimit="10"/></g><g transform="translate(-6,-6) scale(1,1)"><path fill="none" stroke="#000000" d="M 1152 474 L 1344.859375 474" stroke-miterlimit="10"/></g><g transform="translate(-6,-6) scale(1,1)"><g><path fill="none" stroke="none"/><text fill="#000000" stroke="none" font-family="Times New Roman" font-size="14px" font-style="normal" font-weight="normal" text-decoration="none" x="1204.9501953125" y="440.5">«interface»</text></g></g><g transform="translate(-6,-6) scale(1,1)"><g><path fill="none" stroke="none"/><text fill="#000000" stroke="none" font-family="Times New Roman" font-size="14px" font-style="italic" font-weight="bold" text-decoration="none" x="1192.10546875" y="456.5">QueryInterface</text></g></g><g transform="translate(-6,-6) scale(1,1)"><g><path fill="none" stroke="none"/><text fill="#000000" stroke="none" font-family="Times New Roman" font-size="14px" font-style="italic" font-weight="normal" text-decoration="none" x="1157" y="490.5">+execute_query_no_returns()</text></g></g><g transform="translate(-6,-6) scale(1,1)"><g><path fill="none" stroke="none"/><text fill="#000000" stroke="none" font-family="Times New Roman" font-size="14px" font-style="italic" font-weight="normal" text-decoration="none" x="1157" y="506.5">+execute_query_returns_one()</text></g></g><g transform="translate(-6,-6) scale(1,1)"><g><path fill="none" stroke="none"/><text fill="#000000" stroke="none" font-family="Times New Roman" font-size="14px" font-style="italic" font-weight="normal" text-decoration="none" x="1157" y="522.5">+execute_query_returns_many()</text></g></g><g transform="translate(-6,-6) scale(1,1)"><g><path fill="none" stroke="none"/><text fill="#000000" stroke="none" font-family="Times New Roman" font-size="14px" font-style="italic" font-weight="normal" text-decoration="none" x="1157" y="538.5">+execute_query_returns_all()</text></g></g><g transform="translate(-6,-6) scale(1,1)"><rect fill="#C0C0C0" stroke="none" x="935" y="303" width="246.7861328125" height="59" opacity="0.2"/></g><g transform="translate(-6,-6) scale(1,1)"><rect fill="#ffffff" stroke="none" x="928" y="296" width="246.7861328125" height="59"/></g><g transform="translate(-6,-6) scale(1,1)"><path fill="none" stroke="#000000" d="M 928 296 L 1174.7861328125 296 L 1174.7861328125 355 L 928 355 L 928 296 Z Z" stroke-miterlimit="10"/></g><g transform="translate(-6,-6) scale(1,1)"><path fill="#ffffff" stroke="none" d="M 1148.7861328125 313 C 1148.7861328125 308.0294368 1152.8155696125 304 1157.7861328125 304 C 1162.7566960125 304 1166.7861328125 308.0294368 1166.7861328125 313 C 1166.7861328125 317.9705632 1162.7566960125 322 1157.7861328125 322 C 1152.8155696125 322 1148.7861328125 317.9705632 1148.7861328125 313 Z"/></g><g transform="translate(-6,-6) scale(1,1)"><path fill="none" stroke="#000000" d="M 1148.7861328125 313 C 1148.7861328125 308.0294368 1152.8155696125 304 1157.7861328125 304 C 1162.7566960125 304 1166.7861328125 308.0294368 1166.7861328125 313 C 1166.7861328125 317.9705632 1162.7566960125 322 1157.7861328125 322 C 1152.8155696125 322 1148.7861328125 317.9705632 1148.7861328125 313 Z" stroke-miterlimit="10"/></g><g transform="translate(-6,-6) scale(1,1)"><path fill="none" stroke="#000000" d="M 928 336 L 1174.7861328125 336" stroke-miterlimit="10"/></g><g transform="translate(-6,-6) scale(1,1)"><path fill="none" stroke="#000000" d="M 928 346 L 1174.7861328125 346" stroke-miterlimit="10"/></g><g transform="translate(-6,-6) scale(1,1)"><g><path fill="none" stroke="none"/><text fill="#000000" stroke="none" font-family="Times New Roman" font-size="14px" font-style="normal" font-weight="normal" text-decoration="none" x="1007.91357421875" y="312.5">«interface»</text></g></g><g transform="translate(-6,-6) scale(1,1)"><g><path fill="none" stroke="none"/><text fill="#000000" stroke="none" font-family="Times New Roman" font-size="14px" font-style="italic" font-weight="bold" text-decoration="none" x="937.5" y="328.5">SingleConnectionInterfaceStrategy</text></g></g><g transform="translate(-6,-6) scale(1,1)"><rect fill="#C0C0C0" stroke="none" x="919" y="615" width="236.662109375" height="59" opacity="0.2"/></g><g transform="translate(-6,-6) scale(1,1)"><rect fill="#ffffff" stroke="none" x="912" y="608" width="236.662109375" height="59"/></g><g transform="translate(-6,-6) scale(1,1)"><path fill="none" stroke="#000000" d="M 912 608 L 1148.662109375 608 L 1148.662109375 667 L 912 667 L 912 608 Z Z" stroke-miterlimit="10"/></g><g transform="translate(-6,-6) scale(1,1)"><path fill="#ffffff" stroke="none" d="M 1122.662109375 625 C 1122.662109375 620.0294368 1126.691546175 616 1131.662109375 616 C 1136.632672575 616 1140.662109375 620.0294368 1140.662109375 625 C 1140.662109375 629.9705632 1136.632672575 634 1131.662109375 634 C 1126.691546175 634 1122.662109375 629.9705632 1122.662109375 625 Z"/></g><g transform="translate(-6,-6) scale(1,1)"><path fill="none" stroke="#000000" d="M 1122.662109375 625 C 1122.662109375 620.0294368 1126.691546175 616 1131.662109375 616 C 1136.632672575 616 1140.662109375 620.0294368 1140.662109375 625 C 1140.662109375 629.9705632 1136.632672575 634 1131.662109375 634 C 1126.691546175 634 1122.662109375 629.9705632 1122.662109375 625 Z" stroke-miterlimit="10"/></g><g transform="translate(-6,-6) scale(1,1)"><path fill="none" stroke="#000000" d="M 912 648 L 1148.662109375 648" stroke-miterlimit="10"/></g><g transform="translate(-6,-6) scale(1,1)"><path fill="none" stroke="#000000" d="M 912 658 L 1148.662109375 658" stroke-miterlimit="10"/></g><g transform="translate(-6,-6) scale(1,1)"><g><path fill="none" stroke="none"/><text fill="#000000" stroke="none" font-family="Times New Roman" font-size="14px" font-style="normal" font-weight="normal" text-decoration="none" x="986.8515625" y="624.5">«interface»</text></g></g><g transform="translate(-6,-6) scale(1,1)"><g><path fill="none" stroke="none"/><text fill="#000000" stroke="none" font-family="Times New Roman" font-size="14px" font-style="italic" font-weight="bold" text-decoration="none" x="921.5" y="640.5">PoolConnectionInterfaceStrategy</text></g></g><g transform="translate(-6,-6) scale(1,1)"><rect fill="#C0C0C0" stroke="none" x="327" y="191" width="433.78515625" height="105" opacity="0.2"/></g><g transform="translate(-6,-6) scale(1,1)"><rect fill="#ffffff" stroke="none" x="320" y="184" width="433.78515625" height="105"/></g><g transform="translate(-6,-6) scale(1,1)"><path fill="none" stroke="#000000" d="M 320 184 L 753.78515625 184 L 753.78515625 289 L 320 289 L 320 184 Z Z" stroke-miterlimit="10"/></g><g transform="translate(-6,-6) scale(1,1)"><path fill="#ffffff" stroke="none" d="M 727.78515625 201 C 727.78515625 196.0294368 731.81459305 192 736.78515625 192 C 741.75571945 192 745.78515625 196.0294368 745.78515625 201 C 745.78515625 205.9705632 741.75571945 210 736.78515625 210 C 731.81459305 210 727.78515625 205.9705632 727.78515625 201 Z"/></g><g transform="translate(-6,-6) scale(1,1)"><path fill="none" stroke="#000000" d="M 727.78515625 201 C 727.78515625 196.0294368 731.81459305 192 736.78515625 192 C 741.75571945 192 745.78515625 196.0294368 745.78515625 201 C 745.78515625 205.9705632 741.75571945 210 736.78515625 210 C 731.81459305 210 727.78515625 205.9705632 727.78515625 201 Z" stroke-miterlimit="10"/></g><g transform="translate(-6,-6) scale(1,1)"><path fill="none" stroke="#000000" d="M 320 224 L 753.78515625 224" stroke-miterlimit="10"/></g><g transform="translate(-6,-6) scale(1,1)"><g><path fill="none" stroke="none"/><text fill="#000000" stroke="none" font-family="Times New Roman" font-size="14px" font-style="normal" font-weight="normal" text-decoration="none" x="493.4130859375" y="200.5">«interface»</text></g></g><g transform="translate(-6,-6) scale(1,1)"><g><path fill="none" stroke="none"/><text fill="#000000" stroke="none" font-family="Times New Roman" font-size="14px" font-style="italic" font-weight="bold" text-decoration="none" x="465.7890625" y="216.5">LogSubjectInterface</text></g></g><g transform="translate(-6,-6) scale(1,1)"><g><path fill="none" stroke="none"/><text fill="#000000" stroke="none" font-family="Times New Roman" font-size="14px" font-style="italic" font-weight="normal" text-decoration="none" x="325" y="240.5">+register_logger_observer(new_observer: LoggerObserverInterface)</text></g></g><g transform="translate(-6,-6) scale(1,1)"><g><path fill="none" stroke="none"/><text fill="#000000" stroke="none" font-family="Times New Roman" font-size="14px" font-style="italic" font-weight="normal" text-decoration="none" x="325" y="256.5">+remove_logger_observer(removable_observer: LoggerObserverInterface)</text></g></g><g transform="translate(-6,-6) scale(1,1)"><g><path fill="none" stroke="none"/><text fill="#000000" stroke="none" font-family="Times New Roman" font-size="14px" font-style="italic" font-weight="normal" text-decoration="none" x="325" y="272.5">+notify_logger_observers(log_entry: LogEntry)</text></g></g><g transform="translate(-6,-6) scale(1,1)"><path fill="none" stroke="#000000" d="M 334 407 L 472 290" stroke-miterlimit="10" stroke-dasharray="3"/></g><g transform="translate(-6,-6) scale(1,1)"><path fill="#FFFFFF" stroke="none" d="M 461.9411640684138 309.56578185765727 L 472 290 L 451.0522318711663 296.7224259326987"/></g><g transform="translate(-6,-6) scale(1,1)"><path fill="none" stroke="#000000" d="M 461.9411640684138 309.56578185765727 L 472 290 L 451.0522318711663 296.7224259326987 L 461.9411640684138 309.56578185765727" stroke-miterlimit="10"/></g><g transform="translate(-6,-6) scale(1,1)"><path fill="none" stroke="#000000" d="M 319 246 L 214 251" stroke-miterlimit="10"/></g><g transform="translate(-6,-6) scale(1,1)"><path fill="none" stroke="#000000" d="M 223.95094576830212 246.31185769026683 L 214 251 L 224.35139845036588 254.72136401360612" stroke-miterlimit="10"/></g><g transform="translate(-6,-6) scale(1,1)"><g><path fill="none" stroke="none"/><text fill="#000000" stroke="none" font-family="Times New Roman" font-size="14px" font-style="normal" font-weight="normal" text-decoration="none" x="234.11669921875" y="266.5">-Observer's</text></g></g><g transform="translate(-6,-6) scale(1,1)"><rect fill="#C0C0C0" stroke="none" x="503" y="359" width="387.232421875" height="73" opacity="0.2"/></g><g transform="translate(-6,-6) scale(1,1)"><rect fill="#ffffff" stroke="none" x="496" y="352" width="387.232421875" height="73"/></g><g transform="translate(-6,-6) scale(1,1)"><path fill="none" stroke="#000000" d="M 496 352 L 883.232421875 352 L 883.232421875 425 L 496 425 L 496 352 Z Z" stroke-miterlimit="10"/></g><g transform="translate(-6,-6) scale(1,1)"><path fill="none" stroke="#000000" d="M 854.232421875 357 L 878.232421875 357 L 878.232421875 381 L 854.232421875 381 L 854.232421875 357 Z Z" stroke-miterlimit="10"/></g><g transform="translate(-6,-6) scale(1,1)"><path fill="none" stroke="#000000" d="M 854.232421875 357 L 878.232421875 381" stroke-miterlimit="10"/></g><g transform="translate(-6,-6) scale(1,1)"><path fill="none" stroke="#000000" d="M 878.232421875 357 L 854.232421875 381" stroke-miterlimit="10"/></g><g transform="translate(-6,-6) scale(1,1)"><path fill="none" stroke="#000000" d="M 496 392 L 883.232421875 392" stroke-miterlimit="10"/></g><g transform="translate(-6,-6) scale(1,1)"><path fill="none" stroke="#000000" d="M 496 416 L 883.232421875 416" stroke-miterlimit="10"/></g><g transform="translate(-6,-6) scale(1,1)"><g><path fill="none" stroke="none"/><text fill="#000000" stroke="none" font-family="Times New Roman" font-size="14px" font-style="normal" font-weight="normal" text-decoration="none" x="677.6162109375" y="363.5"></text></g></g><g transform="translate(-6,-6) scale(1,1)"><g><path fill="none" stroke="none"/><text fill="#000000" stroke="none" font-family="Times New Roman" font-size="14px" font-style="italic" font-weight="bold" text-decoration="none" x="597.8818359375" y="384.5">SingleConnectionDataBase</text></g></g><g transform="translate(-6,-6) scale(1,1)"><g><path fill="none" stroke="none"/><text fill="#000000" stroke="none" font-family="Times New Roman" font-size="14px" font-style="normal" font-weight="normal" text-decoration="none" x="501" y="408.5">-perform_connection_interface: SingleConnectionInterfaceStrategy</text></g></g><g transform="translate(-6,-6) scale(1,1)"><rect fill="#C0C0C0" stroke="none" x="503" y="519" width="377.12890625" height="89" opacity="0.2"/></g><g transform="translate(-6,-6) scale(1,1)"><rect fill="#ffffff" stroke="none" x="496" y="512" width="377.12890625" height="89"/></g><g transform="translate(-6,-6) scale(1,1)"><path fill="none" stroke="#000000" d="M 496 512 L 873.12890625 512 L 873.12890625 601 L 496 601 L 496 512 Z Z" stroke-miterlimit="10"/></g><g transform="translate(-6,-6) scale(1,1)"><path fill="none" stroke="#000000" d="M 844.12890625 517 L 868.12890625 517 L 868.12890625 541 L 844.12890625 541 L 844.12890625 517 Z Z" stroke-miterlimit="10"/></g><g transform="translate(-6,-6) scale(1,1)"><path fill="none" stroke="#000000" d="M 844.12890625 517 L 868.12890625 541" stroke-miterlimit="10"/></g><g transform="translate(-6,-6) scale(1,1)"><path fill="none" stroke="#000000" d="M 868.12890625 517 L 844.12890625 541" stroke-miterlimit="10"/></g><g transform="translate(-6,-6) scale(1,1)"><path fill="none" stroke="#000000" d="M 496 552 L 873.12890625 552" stroke-miterlimit="10"/></g><g transform="translate(-6,-6) scale(1,1)"><path fill="none" stroke="#000000" d="M 496 592 L 873.12890625 592" stroke-miterlimit="10"/></g><g transform="translate(-6,-6) scale(1,1)"><g><path fill="none" stroke="none"/><text fill="#000000" stroke="none" font-family="Times New Roman" font-size="14px" font-style="normal" font-weight="normal" text-decoration="none" x="672.564453125" y="523.5"></text></g></g><g transform="translate(-6,-6) scale(1,1)"><g><path fill="none" stroke="none"/><text fill="#000000" stroke="none" font-family="Times New Roman" font-size="14px" font-style="italic" font-weight="bold" text-decoration="none" x="597.89208984375" y="544.5">PoolConnectionDataBase</text></g></g><g transform="translate(-6,-6) scale(1,1)"><g><path fill="none" stroke="none"/><text fill="#000000" stroke="none" font-family="Times New Roman" font-size="14px" font-style="normal" font-weight="normal" text-decoration="none" x="501" y="568.5">-perform_connection_interface: PoolConnectionInterfaceStrategy</text></g></g><g transform="translate(-6,-6) scale(1,1)"><g><path fill="none" stroke="none"/><text fill="#000000" stroke="none" font-family="Times New Roman" font-size="14px" font-style="normal" font-weight="normal" text-decoration="none" x="501" y="584.5">-pool_config: PoolConfigDTO</text></g></g><g transform="translate(-6,-6) scale(1,1)"><path fill="none" stroke="#000000" d="M 495 412 L 359 429" stroke-miterlimit="10"/></g><g transform="translate(-6,-6) scale(1,1)"><path fill="#FFFFFF" stroke="none" d="M 378.12414202367734 418.12492796078027 L 359 429 L 380.21264769414137 434.8329733244924"/></g><g transform="translate(-6,-6) scale(1,1)"><path fill="none" stroke="#000000" d="M 378.12414202367734 418.12492796078027 L 359 429 L 380.21264769414137 434.8329733244924 L 378.12414202367734 418.12492796078027" stroke-miterlimit="10"/></g><g transform="translate(-6,-6) scale(1,1)"><path fill="none" stroke="#000000" d="M 538 511 L 359 456" stroke-miterlimit="10"/></g><g transform="translate(-6,-6) scale(1,1)"><path fill="#FFFFFF" stroke="none" d="M 380.90164765805343 453.922061150447 L 359 456 L 375.956128229578 470.01747892675814"/></g><g transform="translate(-6,-6) scale(1,1)"><path fill="none" stroke="#000000" d="M 380.90164765805343 453.922061150447 L 359 456 L 375.956128229578 470.01747892675814 L 380.90164765805343 453.922061150447" stroke-miterlimit="10"/></g><g transform="translate(-6,-6) scale(1,1)"><path fill="none" stroke="#000000" d="M 668 687 L 678 602" stroke-miterlimit="10"/></g><g transform="translate(-6,-6) scale(1,1)"><path fill="#FFFFFF" stroke="none" d="M 680.9932654943085 612.5849119826563 L 678 602 L 672.6318952877182 611.6012213701163 L 675.4294925535173 623.8493132951032"/></g><g transform="translate(-6,-6) scale(1,1)"><path fill="none" stroke="#000000" d="M 680.9932654943085 612.5849119826563 L 678 602 L 672.6318952877182 611.6012213701163 L 675.4294925535173 623.8493132951032 L 680.9932654943085 612.5849119826563" stroke-miterlimit="10"/></g><g transform="translate(-6,-6) scale(1,1)"><path fill="none" stroke="#000000" d="M 665.0067345056915 676.4150880173437 L 668 687 L 673.3681047122818 677.3987786298837" stroke-miterlimit="10"/></g><g transform="translate(-6,-6) scale(1,1)"><path fill="#ffffff" stroke="none" d="M 16 16 L 149 16 L 159 26 L 159 86 L 16 86 L 16 16"/></g><g transform="translate(-6,-6) scale(1,1)"><path fill="none" stroke="#000000" d="M 16 16 L 149 16 L 159 26 L 159 86 L 16 86 L 16 16 L 16 16" stroke-miterlimit="10"/></g><g transform="translate(-6,-6) scale(1,1)"><path fill="none" stroke="#000000" d="M 149 16 L 149 26 L 159 26 L 149 16" stroke-miterlimit="10"/></g><g transform="translate(-6,-6) scale(1,1)"><g><path fill="none" stroke="none"/><text fill="#000000" stroke="none" font-family="Times New Roman" font-size="14px" font-style="normal" font-weight="normal" text-decoration="none" x="21" y="31">To do list:</text></g></g><g transform="translate(-6,-6) scale(1,1)"><g><path fill="none" stroke="none"/><text fill="#000000" stroke="none" font-family="Times New Roman" font-size="14px" font-style="normal" font-weight="normal" text-decoration="none" x="21" y="47">1. TransactionManager</text></g></g><g transform="translate(-6,-6) scale(1,1)"><g><path fill="none" stroke="none"/><text fill="#000000" stroke="none" font-family="Times New Roman" font-size="14px" font-style="normal" font-weight="normal" text-decoration="none" x="21" y="63">2. ErrorHandler</text></g></g><g transform="translate(-6,-6) scale(1,1)"><rect fill="#C0C0C0" stroke="none" x="231" y="871" width="92.31640625" height="105" opacity="0.2"/></g><g transform="translate(-6,-6) scale(1,1)"><rect fill="#ffffff" stroke="none" x="224" y="864" width="92.31640625" height="105"/></g><g transform="translate(-6,-6) scale(1,1)"><path fill="none" stroke="#000000" d="M 224 864 L 316.31640625 864 L 316.31640625 969 L 224 969 L 224 864 Z Z" stroke-miterlimit="10"/></g><g transform="translate(-6,-6) scale(1,1)"><path fill="none" stroke="#000000" d="M 224 890 L 316.31640625 890" stroke-miterlimit="10"/></g><g transform="translate(-6,-6) scale(1,1)"><path fill="none" stroke="#000000" d="M 224 946 L 316.31640625 946" stroke-miterlimit="10"/></g><g transform="translate(-6,-6) scale(1,1)"><g><path fill="none" stroke="none"/><text fill="#000000" stroke="none" font-family="Times New Roman" font-size="14px" font-style="italic" font-weight="bold" text-decoration="none" x="242.54443359375" y="882.5">LogEntry</text></g></g><g transform="translate(-6,-6) scale(1,1)"><g><path fill="none" stroke="none"/><text fill="#000000" stroke="none" font-family="Times New Roman" font-size="14px" font-style="normal" font-weight="normal" text-decoration="none" x="229" y="905.5">+message_text</text></g></g><g transform="translate(-6,-6) scale(1,1)"><g><path fill="none" stroke="none"/><text fill="#000000" stroke="none" font-family="Times New Roman" font-size="14px" font-style="normal" font-weight="normal" text-decoration="none" x="229" y="921.5">+source</text></g></g><g transform="translate(-6,-6) scale(1,1)"><g><path fill="none" stroke="none"/><text fill="#000000" stroke="none" font-family="Times New Roman" font-size="14px" font-style="normal" font-weight="normal" text-decoration="none" x="229" y="938">+timestamp</text></g></g><g transform="translate(-6,-6) scale(1,1)"><g><path fill="none" stroke="none"/><text fill="#000000" stroke="none" font-family="Times New Roman" font-size="14px" font-style="italic" font-weight="normal" text-decoration="none" x="229" y="962.5">+get_level()</text></g></g><g transform="translate(-6,-6) scale(1,1)"><rect fill="#C0C0C0" stroke="none" x="39" y="759" width="92.234375" height="45" opacity="0.2"/></g><g transform="translate(-6,-6) scale(1,1)"><rect fill="#ffffff" stroke="none" x="32" y="752" width="92.234375" height="45"/></g><g transform="translate(-6,-6) scale(1,1)"><path fill="none" stroke="#000000" d="M 32 752 L 124.234375 752 L 124.234375 797 L 32 797 L 32 752 Z Z" stroke-miterlimit="10"/></g><g transform="translate(-6,-6) scale(1,1)"><path fill="none" stroke="#000000" d="M 32 778 L 124.234375 778" stroke-miterlimit="10"/></g><g transform="translate(-6,-6) scale(1,1)"><path fill="none" stroke="#000000" d="M 32 788 L 124.234375 788" stroke-miterlimit="10"/></g><g transform="translate(-6,-6) scale(1,1)"><g><path fill="none" stroke="none"/><text fill="#000000" stroke="none" font-family="Times New Roman" font-size="14px" font-style="normal" font-weight="bold" text-decoration="none" x="36.5" y="770.5">InfoLogEntry</text></g></g><g transform="translate(-6,-6) scale(1,1)"><rect fill="#C0C0C0" stroke="none" x="151" y="759" width="120.2412109375" height="45" opacity="0.2"/></g><g transform="translate(-6,-6) scale(1,1)"><rect fill="#ffffff" stroke="none" x="144" y="752" width="120.2412109375" height="45"/></g><g transform="translate(-6,-6) scale(1,1)"><path fill="none" stroke="#000000" d="M 144 752 L 264.2412109375 752 L 264.2412109375 797 L 144 797 L 144 752 Z Z" stroke-miterlimit="10"/></g><g transform="translate(-6,-6) scale(1,1)"><path fill="none" stroke="#000000" d="M 144 778 L 264.2412109375 778" stroke-miterlimit="10"/></g><g transform="translate(-6,-6) scale(1,1)"><path fill="none" stroke="#000000" d="M 144 788 L 264.2412109375 788" stroke-miterlimit="10"/></g><g transform="translate(-6,-6) scale(1,1)"><g><path fill="none" stroke="none"/><text fill="#000000" stroke="none" font-family="Times New Roman" font-size="14px" font-style="normal" font-weight="bold" text-decoration="none" x="148.5" y="770.5">WarningLogEntry</text></g></g><g transform="translate(-6,-6) scale(1,1)"><rect fill="#C0C0C0" stroke="none" x="295" y="759" width="102.064453125" height="45" opacity="0.2"/></g><g transform="translate(-6,-6) scale(1,1)"><rect fill="#ffffff" stroke="none" x="288" y="752" width="102.064453125" height="45"/></g><g transform="translate(-6,-6) scale(1,1)"><path fill="none" stroke="#000000" d="M 288 752 L 390.064453125 752 L 390.064453125 797 L 288 797 L 288 752 Z Z" stroke-miterlimit="10"/></g><g transform="translate(-6,-6) scale(1,1)"><path fill="none" stroke="#000000" d="M 288 778 L 390.064453125 778" stroke-miterlimit="10"/></g><g transform="translate(-6,-6) scale(1,1)"><path fill="none" stroke="#000000" d="M 288 788 L 390.064453125 788" stroke-miterlimit="10"/></g><g transform="translate(-6,-6) scale(1,1)"><g><path fill="none" stroke="none"/><text fill="#000000" stroke="none" font-family="Times New Roman" font-size="14px" font-style="normal" font-weight="bold" text-decoration="none" x="292.5" y="770.5">ErrorLogEntry</text></g></g><g transform="translate(-6,-6) scale(1,1)"><rect fill="#C0C0C0" stroke="none" x="423" y="759" width="113.20703125" height="45" opacity="0.2"/></g><g transform="translate(-6,-6) scale(1,1)"><rect fill="#ffffff" stroke="none" x="416" y="752" width="113.20703125" height="45"/></g><g transform="translate(-6,-6) scale(1,1)"><path fill="none" stroke="#000000" d="M 416 752 L 529.20703125 752 L 529.20703125 797 L 416 797 L 416 752 Z Z" stroke-miterlimit="10"/></g><g transform="translate(-6,-6) scale(1,1)"><path fill="none" stroke="#000000" d="M 416 778 L 529.20703125 778" stroke-miterlimit="10"/></g><g transform="translate(-6,-6) scale(1,1)"><path fill="none" stroke="#000000" d="M 416 788 L 529.20703125 788" stroke-miterlimit="10"/></g><g transform="translate(-6,-6) scale(1,1)"><g><path fill="none" stroke="none"/><text fill="#000000" stroke="none" font-family="Times New Roman" font-size="14px" font-style="normal" font-weight="bold" text-decoration="none" x="420.5" y="770.5">CriticalLogEntry</text></g></g><g transform="translate(-6,-6) scale(1,1)"><path fill="none" stroke="#000000" d="M 110 798 L 223 881" stroke-miterlimit="10"/></g><g transform="translate(-6,-6) scale(1,1)"><path fill="#FFFFFF" stroke="none" d="M 201.63484218055268 875.7530931635763 L 223 881 L 211.60267542903725 862.1824286204587"/></g><g transform="translate(-6,-6) scale(1,1)"><path fill="none" stroke="#000000" d="M 201.63484218055268 875.7530931635763 L 223 881 L 211.60267542903725 862.1824286204587 L 201.63484218055268 875.7530931635763" stroke-miterlimit="10"/></g><g transform="translate(-6,-6) scale(1,1)"><path fill="none" stroke="#000000" d="M 215 798 L 245 863" stroke-miterlimit="10"/></g><g transform="translate(-6,-6) scale(1,1)"><path fill="#FFFFFF" stroke="none" d="M 228.8383536904634 848.0734736604445 L 245 863 L 244.12663829364737 841.0173423051289"/></g><g transform="translate(-6,-6) scale(1,1)"><path fill="none" stroke="#000000" d="M 228.8383536904634 848.0734736604445 L 245 863 L 244.12663829364737 841.0173423051289 L 228.8383536904634 848.0734736604445" stroke-miterlimit="10"/></g><g transform="translate(-6,-6) scale(1,1)"><path fill="none" stroke="#000000" d="M 327 798 L 296 863" stroke-miterlimit="10"/></g><g transform="translate(-6,-6) scale(1,1)"><path fill="#FFFFFF" stroke="none" d="M 297.15045216568274 841.0301010513367 L 296 863 L 312.348557056368 848.278427999202"/></g><g transform="translate(-6,-6) scale(1,1)"><path fill="none" stroke="#000000" d="M 297.15045216568274 841.0301010513367 L 296 863 L 312.348557056368 848.278427999202 L 297.15045216568274 841.0301010513367" stroke-miterlimit="10"/></g><g transform="translate(-6,-6) scale(1,1)"><path fill="none" stroke="#000000" d="M 438 798 L 317 883" stroke-miterlimit="10"/></g><g transform="translate(-6,-6) scale(1,1)"><path fill="#FFFFFF" stroke="none" d="M 328.7923231993774 864.4274096162806 L 317 883 L 338.47123630475124 878.2056270956951"/></g><g transform="translate(-6,-6) scale(1,1)"><path fill="none" stroke="#000000" d="M 328.7923231993774 864.4274096162806 L 317 883 L 338.47123630475124 878.2056270956951 L 328.7923231993774 864.4274096162806" stroke-miterlimit="10"/></g><g transform="translate(-6,-6) scale(1,1)"><rect fill="#C0C0C0" stroke="none" x="47" y="583" width="340.7275390625" height="59" opacity="0.2"/></g><g transform="translate(-6,-6) scale(1,1)"><rect fill="#ffffff" stroke="none" x="40" y="576" width="340.7275390625" height="59"/></g><g transform="translate(-6,-6) scale(1,1)"><path fill="none" stroke="#000000" d="M 40 576 L 380.7275390625 576 L 380.7275390625 635 L 40 635 L 40 576 Z Z" stroke-miterlimit="10"/></g><g transform="translate(-6,-6) scale(1,1)"><path fill="none" stroke="#000000" d="M 40 602 L 380.7275390625 602" stroke-miterlimit="10"/></g><g transform="translate(-6,-6) scale(1,1)"><path fill="none" stroke="#000000" d="M 40 612 L 380.7275390625 612" stroke-miterlimit="10"/></g><g transform="translate(-6,-6) scale(1,1)"><g><path fill="none" stroke="none"/><text fill="#000000" stroke="none" font-family="Times New Roman" font-size="14px" font-style="normal" font-weight="bold" text-decoration="none" x="157.8740234375" y="594.5">LogEntryFactory</text></g></g><g transform="translate(-6,-6) scale(1,1)"><g><path fill="none" stroke="none"/><text fill="#000000" stroke="none" font-family="Times New Roman" font-size="14px" font-style="normal" font-weight="normal" text-decoration="none" x="45" y="628.5">+create_new_log_entry(level, msg_text, source): LogEntry</text></g></g><g transform="translate(-6,-6) scale(1,1)"><path fill="none" stroke="#000000" d="M 282 468 L 226 575" stroke-miterlimit="10" stroke-dasharray="3"/></g><g transform="translate(-6,-6) scale(1,1)"><path fill="none" stroke="#000000" d="M 226.98280194431194 564.0439925000821 L 226 575 L 234.4420131173089 567.9478787214637" stroke-miterlimit="10"/></g><g transform="translate(-6,-6) scale(1,1)"><g><path fill="none" stroke="none"/><text fill="#000000" stroke="none" font-family="Times New Roman" font-size="14px" font-style="normal" font-weight="normal" text-decoration="none" x="254.05517578125" y="530.5">+use</text></g></g><g transform="translate(-6,-6) scale(1,1)"><path fill="none" stroke="#000000" d="M 186 636 L 96 751" stroke-miterlimit="10" stroke-dasharray="3"/></g><g transform="translate(-6,-6) scale(1,1)"><path fill="none" stroke="#000000" d="M 98.94832419060612 740.4024821553778 L 96 751 L 105.57835675999175 745.5912032966361" stroke-miterlimit="10"/></g><g transform="translate(-6,-6) scale(1,1)"><g><path fill="none" stroke="none"/><text fill="#000000" stroke="none" font-family="Times New Roman" font-size="14px" font-style="normal" font-weight="normal" text-decoration="none" x="95.06201171875" y="696.5">+create</text></g></g><g transform="translate(-6,-6) scale(1,1)"><path fill="none" stroke="#000000" d="M 209 636 L 205 751" stroke-miterlimit="10" stroke-dasharray="3"/></g><g transform="translate(-6,-6) scale(1,1)"><path fill="none" stroke="#000000" d="M 201.14629704467484 740.697137604912 L 205 751 L 209.56024437280954 740.9897966424123" stroke-miterlimit="10"/></g><g transform="translate(-6,-6) scale(1,1)"><g><path fill="none" stroke="none"/><text fill="#000000" stroke="none" font-family="Times New Roman" font-size="14px" font-style="normal" font-weight="normal" text-decoration="none" x="207.06201171875" y="704.5">+create</text></g></g><g transform="translate(-6,-6) scale(1,1)"><path fill="none" stroke="#000000" d="M 234 636 L 321 751" stroke-miterlimit="10" stroke-dasharray="3"/></g><g transform="translate(-6,-6) scale(1,1)"><path fill="none" stroke="#000000" d="M 311.51154361660133 745.435002654058 L 321 751 L 318.22569550890665 740.3556007877054" stroke-miterlimit="10"/></g><g transform="translate(-6,-6) scale(1,1)"><g><path fill="none" stroke="none"/><text fill="#000000" stroke="none" font-family="Times New Roman" font-size="14px" font-style="normal" font-weight="normal" text-decoration="none" x="287.06201171875" y="705.5">+create</text></g></g><g transform="translate(-6,-6) scale(1,1)"><path fill="none" stroke="#000000" d="M 258 636 L 436 751" stroke-miterlimit="10" stroke-dasharray="3"/></g><g transform="translate(-6,-6) scale(1,1)"><path fill="none" stroke="#000000" d="M 425.17950923844637 749.0208639058587 L 436 751 L 429.7482181597974 741.9492970536808" stroke-miterlimit="10"/></g><g transform="translate(-6,-6) scale(1,1)"><g><path fill="none" stroke="none"/><text fill="#000000" stroke="none" font-family="Times New Roman" font-size="14px" font-style="normal" font-weight="normal" text-decoration="none" x="344.06201171875" y="689.5">+create</text></g></g><g transform="translate(-6,-6) scale(1,1)"><path fill="none" stroke="#000000" d="M 874 559 L 976 560 L 1009 607" stroke-miterlimit="10" stroke-dasharray="3"/></g><g transform="translate(-6,-6) scale(1,1)"><path fill="none" stroke="#000000" d="M 999.715093704742 601.1016514948438 L 1009 607 L 1006.6053420217388 596.2638175701439" stroke-miterlimit="10"/></g><g transform="translate(-6,-6) scale(1,1)"><g><path fill="none" stroke="none"/><text fill="#000000" stroke="none" font-family="Times New Roman" font-size="14px" font-style="normal" font-weight="normal" text-decoration="none" x="962.11669921875" y="555">-contains</text></g></g><g transform="translate(-6,-6) scale(1,1)"><path fill="none" stroke="#000000" d="M 884 391 L 992 392 L 1024 356" stroke-miterlimit="10" stroke-dasharray="3"/></g><g transform="translate(-6,-6) scale(1,1)"><path fill="none" stroke="#000000" d="M 1020.3945191168192 366.3923292673499 L 1024 356 L 1014.1020535207979 360.7990265153309" stroke-miterlimit="10"/></g><g transform="translate(-6,-6) scale(1,1)"><g><path fill="none" stroke="none"/><text fill="#000000" stroke="none" font-family="Times New Roman" font-size="14px" font-style="normal" font-weight="normal" text-decoration="none" x="939.11669921875" y="404">-contains</text></g></g><g transform="translate(-6,-6) scale(1,1)"><path fill="none" stroke="#000000" d="M 1073 607 L 1160 546" stroke-miterlimit="10" stroke-dasharray="3"/></g><g transform="translate(-6,-6) scale(1,1)"><path fill="#FFFFFF" stroke="none" d="M 1148.1911325917197 564.5620755987486 L 1160 546 L 1138.5245002486997 550.7752393062447"/></g><g transform="translate(-6,-6) scale(1,1)"><path fill="none" stroke="#000000" d="M 1148.1911325917197 564.5620755987486 L 1160 546 L 1138.5245002486997 550.7752393062447 L 1148.1911325917197 564.5620755987486" stroke-miterlimit="10"/></g><g transform="translate(-6,-6) scale(1,1)"><path fill="none" stroke="#000000" d="M 1089 356 L 1172 423" stroke-miterlimit="10" stroke-dasharray="3"/></g><g transform="translate(-6,-6) scale(1,1)"><path fill="#FFFFFF" stroke="none" d="M 1150.8963366612834 416.7842624181755 L 1172 423 L 1161.4726467394996 403.6822663511313"/></g><g transform="translate(-6,-6) scale(1,1)"><path fill="none" stroke="#000000" d="M 1150.8963366612834 416.7842624181755 L 1172 423 L 1161.4726467394996 403.6822663511313 L 1150.8963366612834 416.7842624181755" stroke-miterlimit="10"/></g></g></svg>