<svg version="1.1" xmlns="http://www.w3.org/2000/svg" xmlns:xlink="http://www.w3.org/1999/xlink" width="1226.7861328125" height="655"><defs/><g><g transform="translate(-6,-6) scale(1,1)"><rect fill="#C0C0C0" stroke="none" x="343" y="375" width="117.869140625" height="59" opacity="0.2"/></g><g transform="translate(-6,-6) scale(1,1)"><rect fill="#ffffff" stroke="none" x="336" y="368" width="117.869140625" height="59"/></g><g transform="translate(-6,-6) scale(1,1)"><path fill="none" stroke="#000000" d="M 336 368 L 453.869140625 368 L 453.869140625 427 L 336 427 L 336 368 Z Z" stroke-miterlimit="10"/></g><g transform="translate(-6,-6) scale(1,1)"><path fill="none" stroke="#000000" d="M 424.869140625 373 L 448.869140625 373 L 448.869140625 397 L 424.869140625 397 L 424.869140625 373 Z Z" stroke-miterlimit="10"/></g><g transform="translate(-6,-6) scale(1,1)"><path fill="none" stroke="#000000" d="M 424.869140625 373 L 448.869140625 397" stroke-miterlimit="10"/></g><g transform="translate(-6,-6) scale(1,1)"><path fill="none" stroke="#000000" d="M 448.869140625 373 L 424.869140625 397" stroke-miterlimit="10"/></g><g transform="translate(-6,-6) scale(1,1)"><path fill="none" stroke="#000000" d="M 336 408 L 453.869140625 408" stroke-miterlimit="10"/></g><g transform="translate(-6,-6) scale(1,1)"><path fill="none" stroke="#000000" d="M 336 418 L 453.869140625 418" stroke-miterlimit="10"/></g><g transform="translate(-6,-6) scale(1,1)"><g><path fill="none" stroke="none"/><text fill="#000000" stroke="none" font-family="Times New Roman" font-size="14px" font-style="normal" font-weight="normal" text-decoration="none" x="382.9345703125" y="379.5"></text></g></g><g transform="translate(-6,-6) scale(1,1)"><g><path fill="none" stroke="none"/><text fill="#000000" stroke="none" font-family="Times New Roman" font-size="14px" font-style="italic" font-weight="bold" text-decoration="none" x="354.9345703125" y="400.5">DataBase</text></g></g><g transform="translate(-6,-6) scale(1,1)"><rect fill="#C0C0C0" stroke="none" x="551" y="599" width="137.63671875" height="59" opacity="0.2"/></g><g transform="translate(-6,-6) scale(1,1)"><rect fill="#ffffff" stroke="none" x="544" y="592" width="137.63671875" height="59"/></g><g transform="translate(-6,-6) scale(1,1)"><path fill="none" stroke="#000000" d="M 544 592 L 681.63671875 592 L 681.63671875 651 L 544 651 L 544 592 Z Z" stroke-miterlimit="10"/></g><g transform="translate(-6,-6) scale(1,1)"><path fill="none" stroke="#000000" d="M 652.63671875 597 L 676.63671875 597 L 676.63671875 621 L 652.63671875 621 L 652.63671875 597 Z Z" stroke-miterlimit="10"/></g><g transform="translate(-6,-6) scale(1,1)"><path fill="none" stroke="#000000" d="M 652.63671875 597 L 676.63671875 621" stroke-miterlimit="10"/></g><g transform="translate(-6,-6) scale(1,1)"><path fill="none" stroke="#000000" d="M 676.63671875 597 L 652.63671875 621" stroke-miterlimit="10"/></g><g transform="translate(-6,-6) scale(1,1)"><path fill="none" stroke="#000000" d="M 544 632 L 681.63671875 632" stroke-miterlimit="10"/></g><g transform="translate(-6,-6) scale(1,1)"><path fill="none" stroke="#000000" d="M 544 642 L 681.63671875 642" stroke-miterlimit="10"/></g><g transform="translate(-6,-6) scale(1,1)"><g><path fill="none" stroke="none"/><text fill="#000000" stroke="none" font-family="Times New Roman" font-size="14px" font-style="normal" font-weight="normal" text-decoration="none" x="600.818359375" y="603.5"></text></g></g><g transform="translate(-6,-6) scale(1,1)"><g><path fill="none" stroke="none"/><text fill="#000000" stroke="none" font-family="Times New Roman" font-size="14px" font-style="italic" font-weight="bold" text-decoration="none" x="553.5" y="624.5">PoolConfigDTO</text></g></g><g transform="translate(-6,-6) scale(1,1)"><rect fill="#C0C0C0" stroke="none" x="79" y="407" width="112.2138671875" height="59" opacity="0.2"/></g><g transform="translate(-6,-6) scale(1,1)"><rect fill="#ffffff" stroke="none" x="72" y="400" width="112.2138671875" height="59"/></g><g transform="translate(-6,-6) scale(1,1)"><path fill="none" stroke="#000000" d="M 72 400 L 184.2138671875 400 L 184.2138671875 459 L 72 459 L 72 400 Z Z" stroke-miterlimit="10"/></g><g transform="translate(-6,-6) scale(1,1)"><path fill="none" stroke="#000000" d="M 155.2138671875 405 L 179.2138671875 405 L 179.2138671875 429 L 155.2138671875 429 L 155.2138671875 405 Z Z" stroke-miterlimit="10"/></g><g transform="translate(-6,-6) scale(1,1)"><path fill="none" stroke="#000000" d="M 155.2138671875 405 L 179.2138671875 429" stroke-miterlimit="10"/></g><g transform="translate(-6,-6) scale(1,1)"><path fill="none" stroke="#000000" d="M 179.2138671875 405 L 155.2138671875 429" stroke-miterlimit="10"/></g><g transform="translate(-6,-6) scale(1,1)"><path fill="none" stroke="#000000" d="M 72 440 L 184.2138671875 440" stroke-miterlimit="10"/></g><g transform="translate(-6,-6) scale(1,1)"><path fill="none" stroke="#000000" d="M 72 450 L 184.2138671875 450" stroke-miterlimit="10"/></g><g transform="translate(-6,-6) scale(1,1)"><g><path fill="none" stroke="none"/><text fill="#000000" stroke="none" font-family="Times New Roman" font-size="14px" font-style="normal" font-weight="normal" text-decoration="none" x="116.10693359375" y="411.5"></text></g></g><g transform="translate(-6,-6) scale(1,1)"><g><path fill="none" stroke="none"/><text fill="#000000" stroke="none" font-family="Times New Roman" font-size="14px" font-style="italic" font-weight="bold" text-decoration="none" x="81.5" y="432.5">BaseLogger</text></g></g><g transform="translate(-6,-6) scale(1,1)"><rect fill="#C0C0C0" stroke="none" x="23" y="231" width="189.1865234375" height="63" opacity="0.2"/></g><g transform="translate(-6,-6) scale(1,1)"><rect fill="#ffffff" stroke="none" x="16" y="224" width="189.1865234375" height="63"/></g><g transform="translate(-6,-6) scale(1,1)"><path fill="none" stroke="#000000" d="M 16 224 L 205.1865234375 224 L 205.1865234375 287 L 16 287 L 16 224 Z Z" stroke-miterlimit="10"/></g><g transform="translate(-6,-6) scale(1,1)"><path fill="#ffffff" stroke="none" d="M 179.1865234375 241 C 179.1865234375 236.0294368 183.2159602375 232 188.1865234375 232 C 193.1570866375 232 197.1865234375 236.0294368 197.1865234375 241 C 197.1865234375 245.9705632 193.1570866375 250 188.1865234375 250 C 183.2159602375 250 179.1865234375 245.9705632 179.1865234375 241 Z"/></g><g transform="translate(-6,-6) scale(1,1)"><path fill="none" stroke="#000000" d="M 179.1865234375 241 C 179.1865234375 236.0294368 183.2159602375 232 188.1865234375 232 C 193.1570866375 232 197.1865234375 236.0294368 197.1865234375 241 C 197.1865234375 245.9705632 193.1570866375 250 188.1865234375 250 C 183.2159602375 250 179.1865234375 245.9705632 179.1865234375 241 Z" stroke-miterlimit="10"/></g><g transform="translate(-6,-6) scale(1,1)"><path fill="none" stroke="#000000" d="M 16 264 L 205.1865234375 264" stroke-miterlimit="10"/></g><g transform="translate(-6,-6) scale(1,1)"><g><path fill="none" stroke="none"/><text fill="#000000" stroke="none" font-family="Times New Roman" font-size="14px" font-style="normal" font-weight="normal" text-decoration="none" x="67.11376953125" y="240.5">«interface»</text></g></g><g transform="translate(-6,-6) scale(1,1)"><g><path fill="none" stroke="none"/><text fill="#000000" stroke="none" font-family="Times New Roman" font-size="14px" font-style="italic" font-weight="bold" text-decoration="none" x="25.5" y="256.5">LoggerObserverInterface</text></g></g><g transform="translate(-6,-6) scale(1,1)"><g><path fill="none" stroke="none"/><text fill="#000000" stroke="none" font-family="Times New Roman" font-size="14px" font-style="italic" font-weight="normal" text-decoration="none" x="21" y="280.5">+update()</text></g></g><g transform="translate(-6,-6) scale(1,1)"><rect fill="#C0C0C0" stroke="none" x="71" y="535" width="120.751953125" height="59" opacity="0.2"/></g><g transform="translate(-6,-6) scale(1,1)"><rect fill="#ffffff" stroke="none" x="64" y="528" width="120.751953125" height="59"/></g><g transform="translate(-6,-6) scale(1,1)"><path fill="none" stroke="#000000" d="M 64 528 L 184.751953125 528 L 184.751953125 587 L 64 587 L 64 528 Z Z" stroke-miterlimit="10"/></g><g transform="translate(-6,-6) scale(1,1)"><path fill="#ffffff" stroke="none" d="M 158.751953125 545 C 158.751953125 540.0294368 162.781389925 536 167.751953125 536 C 172.722516325 536 176.751953125 540.0294368 176.751953125 545 C 176.751953125 549.9705632 172.722516325 554 167.751953125 554 C 162.781389925 554 158.751953125 549.9705632 158.751953125 545 Z"/></g><g transform="translate(-6,-6) scale(1,1)"><path fill="none" stroke="#000000" d="M 158.751953125 545 C 158.751953125 540.0294368 162.781389925 536 167.751953125 536 C 172.722516325 536 176.751953125 540.0294368 176.751953125 545 C 176.751953125 549.9705632 172.722516325 554 167.751953125 554 C 162.781389925 554 158.751953125 549.9705632 158.751953125 545 Z" stroke-miterlimit="10"/></g><g transform="translate(-6,-6) scale(1,1)"><path fill="none" stroke="#000000" d="M 64 568 L 184.751953125 568" stroke-miterlimit="10"/></g><g transform="translate(-6,-6) scale(1,1)"><path fill="none" stroke="#000000" d="M 64 578 L 184.751953125 578" stroke-miterlimit="10"/></g><g transform="translate(-6,-6) scale(1,1)"><g><path fill="none" stroke="none"/><text fill="#000000" stroke="none" font-family="Times New Roman" font-size="14px" font-style="normal" font-weight="normal" text-decoration="none" x="80.896484375" y="544.5">«interface»</text></g></g><g transform="translate(-6,-6) scale(1,1)"><g><path fill="none" stroke="none"/><text fill="#000000" stroke="none" font-family="Times New Roman" font-size="14px" font-style="italic" font-weight="bold" text-decoration="none" x="74.662109375" y="560.5">LogInterface</text></g></g><g transform="translate(-6,-6) scale(1,1)"><path fill="none" stroke="#000000" d="M 127 460 L 125 527" stroke-miterlimit="10" stroke-dasharray="3"/></g><g transform="translate(-6,-6) scale(1,1)"><path fill="#FFFFFF" stroke="none" d="M 117.19116966617351 506.4324972634617 L 125 527 L 134.02174377489519 506.93490246073696"/></g><g transform="translate(-6,-6) scale(1,1)"><path fill="none" stroke="#000000" d="M 117.19116966617351 506.4324972634617 L 125 527 L 134.02174377489519 506.93490246073696 L 117.19116966617351 506.4324972634617" stroke-miterlimit="10"/></g><g transform="translate(-6,-6) scale(1,1)"><path fill="none" stroke="#000000" d="M 125 399 L 113 288" stroke-miterlimit="10" stroke-dasharray="3"/></g><g transform="translate(-6,-6) scale(1,1)"><path fill="#FFFFFF" stroke="none" d="M 123.55487048637912 307.30271247819235 L 113 288 L 106.81434160684043 309.11249938408844"/></g><g transform="translate(-6,-6) scale(1,1)"><path fill="none" stroke="#000000" d="M 123.55487048637912 307.30271247819235 L 113 288 L 106.81434160684043 309.11249938408844 L 123.55487048637912 307.30271247819235" stroke-miterlimit="10"/></g><g transform="translate(-6,-6) scale(1,1)"><rect fill="#C0C0C0" stroke="none" x="327" y="503" width="135.517578125" height="59" opacity="0.2"/></g><g transform="translate(-6,-6) scale(1,1)"><rect fill="#ffffff" stroke="none" x="320" y="496" width="135.517578125" height="59"/></g><g transform="translate(-6,-6) scale(1,1)"><path fill="none" stroke="#000000" d="M 320 496 L 455.517578125 496 L 455.517578125 555 L 320 555 L 320 496 Z Z" stroke-miterlimit="10"/></g><g transform="translate(-6,-6) scale(1,1)"><path fill="#ffffff" stroke="none" d="M 429.517578125 513 C 429.517578125 508.0294368 433.547014925 504 438.517578125 504 C 443.488141325 504 447.517578125 508.0294368 447.517578125 513 C 447.517578125 517.9705632 443.488141325 522 438.517578125 522 C 433.547014925 522 429.517578125 517.9705632 429.517578125 513 Z"/></g><g transform="translate(-6,-6) scale(1,1)"><path fill="none" stroke="#000000" d="M 429.517578125 513 C 429.517578125 508.0294368 433.547014925 504 438.517578125 504 C 443.488141325 504 447.517578125 508.0294368 447.517578125 513 C 447.517578125 517.9705632 443.488141325 522 438.517578125 522 C 433.547014925 522 429.517578125 517.9705632 429.517578125 513 Z" stroke-miterlimit="10"/></g><g transform="translate(-6,-6) scale(1,1)"><path fill="none" stroke="#000000" d="M 320 536 L 455.517578125 536" stroke-miterlimit="10"/></g><g transform="translate(-6,-6) scale(1,1)"><path fill="none" stroke="#000000" d="M 320 546 L 455.517578125 546" stroke-miterlimit="10"/></g><g transform="translate(-6,-6) scale(1,1)"><g><path fill="none" stroke="none"/><text fill="#000000" stroke="none" font-family="Times New Roman" font-size="14px" font-style="normal" font-weight="normal" text-decoration="none" x="344.279296875" y="512.5">«interface»</text></g></g><g transform="translate(-6,-6) scale(1,1)"><g><path fill="none" stroke="none"/><text fill="#000000" stroke="none" font-family="Times New Roman" font-size="14px" font-style="italic" font-weight="bold" text-decoration="none" x="331.4345703125" y="528.5">QueryInterface</text></g></g><g transform="translate(-6,-6) scale(1,1)"><path fill="none" stroke="#000000" d="M 392 428 L 389 495" stroke-miterlimit="10" stroke-dasharray="3"/></g><g transform="translate(-6,-6) scale(1,1)"><path fill="#FFFFFF" stroke="none" d="M 381.49857081932095 474.31840044273036 L 389 495 L 398.31978785048125 475.0715892650211"/></g><g transform="translate(-6,-6) scale(1,1)"><path fill="none" stroke="#000000" d="M 381.49857081932095 474.31840044273036 L 389 495 L 398.31978785048125 475.0715892650211 L 381.49857081932095 474.31840044273036" stroke-miterlimit="10"/></g><g transform="translate(-6,-6) scale(1,1)"><rect fill="#C0C0C0" stroke="none" x="983" y="271" width="246.7861328125" height="59" opacity="0.2"/></g><g transform="translate(-6,-6) scale(1,1)"><rect fill="#ffffff" stroke="none" x="976" y="264" width="246.7861328125" height="59"/></g><g transform="translate(-6,-6) scale(1,1)"><path fill="none" stroke="#000000" d="M 976 264 L 1222.7861328125 264 L 1222.7861328125 323 L 976 323 L 976 264 Z Z" stroke-miterlimit="10"/></g><g transform="translate(-6,-6) scale(1,1)"><path fill="#ffffff" stroke="none" d="M 1196.7861328125 281 C 1196.7861328125 276.0294368 1200.8155696125 272 1205.7861328125 272 C 1210.7566960125 272 1214.7861328125 276.0294368 1214.7861328125 281 C 1214.7861328125 285.9705632 1210.7566960125 290 1205.7861328125 290 C 1200.8155696125 290 1196.7861328125 285.9705632 1196.7861328125 281 Z"/></g><g transform="translate(-6,-6) scale(1,1)"><path fill="none" stroke="#000000" d="M 1196.7861328125 281 C 1196.7861328125 276.0294368 1200.8155696125 272 1205.7861328125 272 C 1210.7566960125 272 1214.7861328125 276.0294368 1214.7861328125 281 C 1214.7861328125 285.9705632 1210.7566960125 290 1205.7861328125 290 C 1200.8155696125 290 1196.7861328125 285.9705632 1196.7861328125 281 Z" stroke-miterlimit="10"/></g><g transform="translate(-6,-6) scale(1,1)"><path fill="none" stroke="#000000" d="M 976 304 L 1222.7861328125 304" stroke-miterlimit="10"/></g><g transform="translate(-6,-6) scale(1,1)"><path fill="none" stroke="#000000" d="M 976 314 L 1222.7861328125 314" stroke-miterlimit="10"/></g><g transform="translate(-6,-6) scale(1,1)"><g><path fill="none" stroke="none"/><text fill="#000000" stroke="none" font-family="Times New Roman" font-size="14px" font-style="normal" font-weight="normal" text-decoration="none" x="1055.91357421875" y="280.5">«interface»</text></g></g><g transform="translate(-6,-6) scale(1,1)"><g><path fill="none" stroke="none"/><text fill="#000000" stroke="none" font-family="Times New Roman" font-size="14px" font-style="italic" font-weight="bold" text-decoration="none" x="985.5" y="296.5">SingleConnectionInterfaceStrategy</text></g></g><g transform="translate(-6,-6) scale(1,1)"><rect fill="#C0C0C0" stroke="none" x="983" y="551" width="236.662109375" height="59" opacity="0.2"/></g><g transform="translate(-6,-6) scale(1,1)"><rect fill="#ffffff" stroke="none" x="976" y="544" width="236.662109375" height="59"/></g><g transform="translate(-6,-6) scale(1,1)"><path fill="none" stroke="#000000" d="M 976 544 L 1212.662109375 544 L 1212.662109375 603 L 976 603 L 976 544 Z Z" stroke-miterlimit="10"/></g><g transform="translate(-6,-6) scale(1,1)"><path fill="#ffffff" stroke="none" d="M 1186.662109375 561 C 1186.662109375 556.0294368 1190.691546175 552 1195.662109375 552 C 1200.632672575 552 1204.662109375 556.0294368 1204.662109375 561 C 1204.662109375 565.9705632 1200.632672575 570 1195.662109375 570 C 1190.691546175 570 1186.662109375 565.9705632 1186.662109375 561 Z"/></g><g transform="translate(-6,-6) scale(1,1)"><path fill="none" stroke="#000000" d="M 1186.662109375 561 C 1186.662109375 556.0294368 1190.691546175 552 1195.662109375 552 C 1200.632672575 552 1204.662109375 556.0294368 1204.662109375 561 C 1204.662109375 565.9705632 1200.632672575 570 1195.662109375 570 C 1190.691546175 570 1186.662109375 565.9705632 1186.662109375 561 Z" stroke-miterlimit="10"/></g><g transform="translate(-6,-6) scale(1,1)"><path fill="none" stroke="#000000" d="M 976 584 L 1212.662109375 584" stroke-miterlimit="10"/></g><g transform="translate(-6,-6) scale(1,1)"><path fill="none" stroke="#000000" d="M 976 594 L 1212.662109375 594" stroke-miterlimit="10"/></g><g transform="translate(-6,-6) scale(1,1)"><g><path fill="none" stroke="none"/><text fill="#000000" stroke="none" font-family="Times New Roman" font-size="14px" font-style="normal" font-weight="normal" text-decoration="none" x="1050.8515625" y="560.5">«interface»</text></g></g><g transform="translate(-6,-6) scale(1,1)"><g><path fill="none" stroke="none"/><text fill="#000000" stroke="none" font-family="Times New Roman" font-size="14px" font-style="italic" font-weight="bold" text-decoration="none" x="985.5" y="576.5">PoolConnectionInterfaceStrategy</text></g></g><g transform="translate(-6,-6) scale(1,1)"><rect fill="#C0C0C0" stroke="none" x="311" y="207" width="170.341796875" height="105" opacity="0.2"/></g><g transform="translate(-6,-6) scale(1,1)"><rect fill="#ffffff" stroke="none" x="304" y="200" width="170.341796875" height="105"/></g><g transform="translate(-6,-6) scale(1,1)"><path fill="none" stroke="#000000" d="M 304 200 L 474.341796875 200 L 474.341796875 305 L 304 305 L 304 200 Z Z" stroke-miterlimit="10"/></g><g transform="translate(-6,-6) scale(1,1)"><path fill="#ffffff" stroke="none" d="M 448.341796875 217 C 448.341796875 212.0294368 452.371233675 208 457.341796875 208 C 462.312360075 208 466.341796875 212.0294368 466.341796875 217 C 466.341796875 221.9705632 462.312360075 226 457.341796875 226 C 452.371233675 226 448.341796875 221.9705632 448.341796875 217 Z"/></g><g transform="translate(-6,-6) scale(1,1)"><path fill="none" stroke="#000000" d="M 448.341796875 217 C 448.341796875 212.0294368 452.371233675 208 457.341796875 208 C 462.312360075 208 466.341796875 212.0294368 466.341796875 217 C 466.341796875 221.9705632 462.312360075 226 457.341796875 226 C 452.371233675 226 448.341796875 221.9705632 448.341796875 217 Z" stroke-miterlimit="10"/></g><g transform="translate(-6,-6) scale(1,1)"><path fill="none" stroke="#000000" d="M 304 240 L 474.341796875 240" stroke-miterlimit="10"/></g><g transform="translate(-6,-6) scale(1,1)"><g><path fill="none" stroke="none"/><text fill="#000000" stroke="none" font-family="Times New Roman" font-size="14px" font-style="normal" font-weight="normal" text-decoration="none" x="345.69140625" y="216.5">«interface»</text></g></g><g transform="translate(-6,-6) scale(1,1)"><g><path fill="none" stroke="none"/><text fill="#000000" stroke="none" font-family="Times New Roman" font-size="14px" font-style="italic" font-weight="bold" text-decoration="none" x="318.0673828125" y="232.5">LogSubjectInterface</text></g></g><g transform="translate(-6,-6) scale(1,1)"><g><path fill="none" stroke="none"/><text fill="#000000" stroke="none" font-family="Times New Roman" font-size="14px" font-style="italic" font-weight="normal" text-decoration="none" x="309" y="256.5">+register_logger_observer()</text></g></g><g transform="translate(-6,-6) scale(1,1)"><g><path fill="none" stroke="none"/><text fill="#000000" stroke="none" font-family="Times New Roman" font-size="14px" font-style="italic" font-weight="normal" text-decoration="none" x="309" y="272.5">+remove_logger_observer()</text></g></g><g transform="translate(-6,-6) scale(1,1)"><g><path fill="none" stroke="none"/><text fill="#000000" stroke="none" font-family="Times New Roman" font-size="14px" font-style="italic" font-weight="normal" text-decoration="none" x="309" y="288.5">+notify_logger_observers()</text></g></g><g transform="translate(-6,-6) scale(1,1)"><path fill="none" stroke="#000000" d="M 393 367 L 391 306" stroke-miterlimit="10" stroke-dasharray="3"/></g><g transform="translate(-6,-6) scale(1,1)"><path fill="#FFFFFF" stroke="none" d="M 400.0805610216545 326.03854813932406 L 391 306 L 383.25153300094104 326.5903195498393"/></g><g transform="translate(-6,-6) scale(1,1)"><path fill="none" stroke="#000000" d="M 400.0805610216545 326.03854813932406 L 391 306 L 383.25153300094104 326.5903195498393 L 400.0805610216545 326.03854813932406" stroke-miterlimit="10"/></g><g transform="translate(-6,-6) scale(1,1)"><path fill="none" stroke="#000000" d="M 303 253 L 206 254" stroke-miterlimit="10"/></g><g transform="translate(-6,-6) scale(1,1)"><path fill="none" stroke="#000000" d="M 216.1187400656224 249.68594164569276 L 206 254 L 216.20552963423071 258.1045298007005" stroke-miterlimit="10"/></g><g transform="translate(-6,-6) scale(1,1)"><g><path fill="none" stroke="none"/><text fill="#000000" stroke="none" font-family="Times New Roman" font-size="14px" font-style="normal" font-weight="normal" text-decoration="none" x="222.11669921875" y="271.5">-Observer's</text></g></g><g transform="translate(-6,-6) scale(1,1)"><rect fill="#C0C0C0" stroke="none" x="551" y="343" width="387.232421875" height="73" opacity="0.2"/></g><g transform="translate(-6,-6) scale(1,1)"><rect fill="#ffffff" stroke="none" x="544" y="336" width="387.232421875" height="73"/></g><g transform="translate(-6,-6) scale(1,1)"><path fill="none" stroke="#000000" d="M 544 336 L 931.232421875 336 L 931.232421875 409 L 544 409 L 544 336 Z Z" stroke-miterlimit="10"/></g><g transform="translate(-6,-6) scale(1,1)"><path fill="none" stroke="#000000" d="M 902.232421875 341 L 926.232421875 341 L 926.232421875 365 L 902.232421875 365 L 902.232421875 341 Z Z" stroke-miterlimit="10"/></g><g transform="translate(-6,-6) scale(1,1)"><path fill="none" stroke="#000000" d="M 902.232421875 341 L 926.232421875 365" stroke-miterlimit="10"/></g><g transform="translate(-6,-6) scale(1,1)"><path fill="none" stroke="#000000" d="M 926.232421875 341 L 902.232421875 365" stroke-miterlimit="10"/></g><g transform="translate(-6,-6) scale(1,1)"><path fill="none" stroke="#000000" d="M 544 376 L 931.232421875 376" stroke-miterlimit="10"/></g><g transform="translate(-6,-6) scale(1,1)"><path fill="none" stroke="#000000" d="M 544 400 L 931.232421875 400" stroke-miterlimit="10"/></g><g transform="translate(-6,-6) scale(1,1)"><g><path fill="none" stroke="none"/><text fill="#000000" stroke="none" font-family="Times New Roman" font-size="14px" font-style="normal" font-weight="normal" text-decoration="none" x="725.6162109375" y="347.5"></text></g></g><g transform="translate(-6,-6) scale(1,1)"><g><path fill="none" stroke="none"/><text fill="#000000" stroke="none" font-family="Times New Roman" font-size="14px" font-style="italic" font-weight="bold" text-decoration="none" x="645.8818359375" y="368.5">SingleConnectionDataBase</text></g></g><g transform="translate(-6,-6) scale(1,1)"><g><path fill="none" stroke="none"/><text fill="#000000" stroke="none" font-family="Times New Roman" font-size="14px" font-style="normal" font-weight="normal" text-decoration="none" x="549" y="392.5">-perform_connection_interface: SingleConnectionInterfaceStrategy</text></g></g><g transform="translate(-6,-6) scale(1,1)"><rect fill="#C0C0C0" stroke="none" x="551" y="455" width="377.12890625" height="89" opacity="0.2"/></g><g transform="translate(-6,-6) scale(1,1)"><rect fill="#ffffff" stroke="none" x="544" y="448" width="377.12890625" height="89"/></g><g transform="translate(-6,-6) scale(1,1)"><path fill="none" stroke="#000000" d="M 544 448 L 921.12890625 448 L 921.12890625 537 L 544 537 L 544 448 Z Z" stroke-miterlimit="10"/></g><g transform="translate(-6,-6) scale(1,1)"><path fill="none" stroke="#000000" d="M 892.12890625 453 L 916.12890625 453 L 916.12890625 477 L 892.12890625 477 L 892.12890625 453 Z Z" stroke-miterlimit="10"/></g><g transform="translate(-6,-6) scale(1,1)"><path fill="none" stroke="#000000" d="M 892.12890625 453 L 916.12890625 477" stroke-miterlimit="10"/></g><g transform="translate(-6,-6) scale(1,1)"><path fill="none" stroke="#000000" d="M 916.12890625 453 L 892.12890625 477" stroke-miterlimit="10"/></g><g transform="translate(-6,-6) scale(1,1)"><path fill="none" stroke="#000000" d="M 544 488 L 921.12890625 488" stroke-miterlimit="10"/></g><g transform="translate(-6,-6) scale(1,1)"><path fill="none" stroke="#000000" d="M 544 528 L 921.12890625 528" stroke-miterlimit="10"/></g><g transform="translate(-6,-6) scale(1,1)"><g><path fill="none" stroke="none"/><text fill="#000000" stroke="none" font-family="Times New Roman" font-size="14px" font-style="normal" font-weight="normal" text-decoration="none" x="720.564453125" y="459.5"></text></g></g><g transform="translate(-6,-6) scale(1,1)"><g><path fill="none" stroke="none"/><text fill="#000000" stroke="none" font-family="Times New Roman" font-size="14px" font-style="italic" font-weight="bold" text-decoration="none" x="645.89208984375" y="480.5">PoolConnectionDataBase</text></g></g><g transform="translate(-6,-6) scale(1,1)"><g><path fill="none" stroke="none"/><text fill="#000000" stroke="none" font-family="Times New Roman" font-size="14px" font-style="normal" font-weight="normal" text-decoration="none" x="549" y="504.5">-perform_connection_interface: PoolConnectionInterfaceStrategy</text></g></g><g transform="translate(-6,-6) scale(1,1)"><g><path fill="none" stroke="none"/><text fill="#000000" stroke="none" font-family="Times New Roman" font-size="14px" font-style="normal" font-weight="normal" text-decoration="none" x="549" y="520.5">-pool_config: PoolConfigDTO</text></g></g><g transform="translate(-6,-6) scale(1,1)"><path fill="none" stroke="#000000" d="M 543 386 L 455 393" stroke-miterlimit="10"/></g><g transform="translate(-6,-6) scale(1,1)"><path fill="#FFFFFF" stroke="none" d="M 474.5937618972268 382.99577615630363 L 455 393 L 475.92893642686954 399.7808273860978"/></g><g transform="translate(-6,-6) scale(1,1)"><path fill="none" stroke="#000000" d="M 474.5937618972268 382.99577615630363 L 455 393 L 475.92893642686954 399.7808273860978 L 474.5937618972268 382.99577615630363" stroke-miterlimit="10"/></g><g transform="translate(-6,-6) scale(1,1)"><path fill="none" stroke="#000000" d="M 572 447 L 455 414" stroke-miterlimit="10"/></g><g transform="translate(-6,-6) scale(1,1)"><path fill="#FFFFFF" stroke="none" d="M 476.8475590171717 411.414624787154 L 455 414 L 472.27669347833046 427.62042078850044"/></g><g transform="translate(-6,-6) scale(1,1)"><path fill="none" stroke="#000000" d="M 476.8475590171717 411.414624787154 L 455 414 L 472.27669347833046 427.62042078850044 L 476.8475590171717 411.414624787154" stroke-miterlimit="10"/></g><g transform="translate(-6,-6) scale(1,1)"><path fill="none" stroke="#000000" d="M 640 591 L 689 538" stroke-miterlimit="10"/></g><g transform="translate(-6,-6) scale(1,1)"><path fill="#FFFFFF" stroke="none" d="M 685.1919455344537 548.3198217614179 L 689 538 L 679.0100829161495 542.6045148124196 L 674.0651832150766 554.1539855020601"/></g><g transform="translate(-6,-6) scale(1,1)"><path fill="none" stroke="#000000" d="M 685.1919455344537 548.3198217614179 L 689 538 L 679.0100829161495 542.6045148124196 L 674.0651832150766 554.1539855020601 L 685.1919455344537 548.3198217614179" stroke-miterlimit="10"/></g><g transform="translate(-6,-6) scale(1,1)"><path fill="#ffffff" stroke="none" d="M 16 16 L 149 16 L 159 26 L 159 86 L 16 86 L 16 16"/></g><g transform="translate(-6,-6) scale(1,1)"><path fill="none" stroke="#000000" d="M 16 16 L 149 16 L 159 26 L 159 86 L 16 86 L 16 16 L 16 16" stroke-miterlimit="10"/></g><g transform="translate(-6,-6) scale(1,1)"><path fill="none" stroke="#000000" d="M 149 16 L 149 26 L 159 26 L 149 16" stroke-miterlimit="10"/></g><g transform="translate(-6,-6) scale(1,1)"><g><path fill="none" stroke="none"/><text fill="#000000" stroke="none" font-family="Times New Roman" font-size="14px" font-style="normal" font-weight="normal" text-decoration="none" x="21" y="31">Needful list:</text></g></g><g transform="translate(-6,-6) scale(1,1)"><g><path fill="none" stroke="none"/><text fill="#000000" stroke="none" font-family="Times New Roman" font-size="14px" font-style="normal" font-weight="normal" text-decoration="none" x="21" y="47">1. TransactionManager</text></g></g><g transform="translate(-6,-6) scale(1,1)"><g><path fill="none" stroke="none"/><text fill="#000000" stroke="none" font-family="Times New Roman" font-size="14px" font-style="normal" font-weight="normal" text-decoration="none" x="21" y="63">2. ErrorHandler</text></g></g><g transform="translate(-6,-6) scale(1,1)"><path fill="none" stroke="#000000" d="M 922 494 L 1040 496 L 1073 543" stroke-miterlimit="10"/></g><g transform="translate(-6,-6) scale(1,1)"><path fill="none" stroke="#000000" d="M 1063.715093704742 537.1016514948438 L 1073 543 L 1070.6053420217388 532.2638175701439" stroke-miterlimit="10"/></g><g transform="translate(-6,-6) scale(1,1)"><g><path fill="none" stroke="none"/><text fill="#000000" stroke="none" font-family="Times New Roman" font-size="14px" font-style="normal" font-weight="normal" text-decoration="none" x="953.11669921875" y="490.5">-CONTAINS</text></g></g><g transform="translate(-6,-6) scale(1,1)"><path fill="none" stroke="#000000" d="M 932 370 L 1056 368 L 1081 324" stroke-miterlimit="10"/></g><g transform="translate(-6,-6) scale(1,1)"><path fill="none" stroke="#000000" d="M 1079.6395358302861 334.9155456685832 L 1081 324 L 1072.3195501974274 330.7564629226407" stroke-miterlimit="10"/></g><g transform="translate(-6,-6) scale(1,1)"><g><path fill="none" stroke="none"/><text fill="#000000" stroke="none" font-family="Times New Roman" font-size="14px" font-style="normal" font-weight="normal" text-decoration="none" x="969.11669921875" y="385.5">-CONTAINS</text></g></g></g></svg>