<svg version="1.1" xmlns="http://www.w3.org/2000/svg" xmlns:xlink="http://www.w3.org/1999/xlink" width="1431.3056640625" height="1003"><defs/><g><g transform="translate(10,10) scale(1,1)"><rect fill="#C0C0C0" stroke="none" x="825" y="655" width="138.1162109375" height="39" opacity="0.2"/></g><g transform="translate(10,10) scale(1,1)"><rect fill="#ffffff" stroke="none" x="808" y="648" width="148.1162109375" height="39"/></g><g transform="translate(10,10) scale(1,1)"><path fill="none" stroke="#000000" d="M 808 648 L 956.1162109375 648 L 956.1162109375 687 L 808 687 L 808 648 Z Z" stroke-miterlimit="10"/></g><g transform="translate(10,10) scale(1,1)"><rect fill="#ffffff" stroke="none" x="936.1162109375" y="658" width="13" height="16"/></g><g transform="translate(10,10) scale(1,1)"><path fill="none" stroke="#000000" d="M 936.1162109375 658 L 949.1162109375 658 L 949.1162109375 674 L 936.1162109375 674 L 936.1162109375 658 Z Z" stroke-miterlimit="10"/></g><g transform="translate(10,10) scale(1,1)"><rect fill="#ffffff" stroke="none" x="933.1162109375" y="661" width="7" height="4"/></g><g transform="translate(10,10) scale(1,1)"><path fill="none" stroke="#000000" d="M 933.1162109375 661 L 940.1162109375 661 L 940.1162109375 665 L 933.1162109375 665 L 933.1162109375 661 Z Z" stroke-miterlimit="10"/></g><g transform="translate(10,10) scale(1,1)"><rect fill="#ffffff" stroke="none" x="933.1162109375" y="667" width="7" height="4"/></g><g transform="translate(10,10) scale(1,1)"><path fill="none" stroke="#000000" d="M 933.1162109375 667 L 940.1162109375 667 L 940.1162109375 671 L 933.1162109375 671 L 933.1162109375 667 Z Z" stroke-miterlimit="10"/></g><g transform="translate(10,10) scale(1,1)"><g><path fill="none" stroke="none"/><text fill="#000000" stroke="none" font-family="Times New Roman" font-size="14px" font-style="normal" font-weight="normal" text-decoration="none" x="870.05810546875" y="659.5"></text></g></g><g transform="translate(10,10) scale(1,1)"><g><path fill="none" stroke="none"/><text fill="#000000" stroke="none" font-family="Times New Roman" font-size="14px" font-style="normal" font-weight="bold" text-decoration="none" x="817.5" y="680.5">Query Processing</text></g></g><g transform="translate(10,10) scale(1,1)"><rect fill="#C0C0C0" stroke="none" x="673" y="375" width="82.013671875" height="39" opacity="0.2"/></g><g transform="translate(10,10) scale(1,1)"><rect fill="#ffffff" stroke="none" x="656" y="368" width="92.013671875" height="39"/></g><g transform="translate(10,10) scale(1,1)"><path fill="none" stroke="#000000" d="M 656 368 L 748.013671875 368 L 748.013671875 407 L 656 407 L 656 368 Z Z" stroke-miterlimit="10"/></g><g transform="translate(10,10) scale(1,1)"><rect fill="#ffffff" stroke="none" x="728.013671875" y="378" width="13" height="16"/></g><g transform="translate(10,10) scale(1,1)"><path fill="none" stroke="#000000" d="M 728.013671875 378 L 741.013671875 378 L 741.013671875 394 L 728.013671875 394 L 728.013671875 378 Z Z" stroke-miterlimit="10"/></g><g transform="translate(10,10) scale(1,1)"><rect fill="#ffffff" stroke="none" x="725.013671875" y="381" width="7" height="4"/></g><g transform="translate(10,10) scale(1,1)"><path fill="none" stroke="#000000" d="M 725.013671875 381 L 732.013671875 381 L 732.013671875 385 L 725.013671875 385 L 725.013671875 381 Z Z" stroke-miterlimit="10"/></g><g transform="translate(10,10) scale(1,1)"><rect fill="#ffffff" stroke="none" x="725.013671875" y="387" width="7" height="4"/></g><g transform="translate(10,10) scale(1,1)"><path fill="none" stroke="#000000" d="M 725.013671875 387 L 732.013671875 387 L 732.013671875 391 L 725.013671875 391 L 725.013671875 387 Z Z" stroke-miterlimit="10"/></g><g transform="translate(10,10) scale(1,1)"><g><path fill="none" stroke="none"/><text fill="#000000" stroke="none" font-family="Times New Roman" font-size="14px" font-style="normal" font-weight="normal" text-decoration="none" x="690.0068359375" y="379.5"></text></g></g><g transform="translate(10,10) scale(1,1)"><g><path fill="none" stroke="none"/><text fill="#000000" stroke="none" font-family="Times New Roman" font-size="14px" font-style="normal" font-weight="bold" text-decoration="none" x="665.5" y="400.5">Logging</text></g></g><g transform="translate(10,10) scale(1,1)"><rect fill="#C0C0C0" stroke="none" x="817" y="287" width="122.0517578125" height="39" opacity="0.2"/></g><g transform="translate(10,10) scale(1,1)"><rect fill="#ffffff" stroke="none" x="800" y="280" width="132.0517578125" height="39"/></g><g transform="translate(10,10) scale(1,1)"><path fill="none" stroke="#000000" d="M 800 280 L 932.0517578125 280 L 932.0517578125 319 L 800 319 L 800 280 Z Z" stroke-miterlimit="10"/></g><g transform="translate(10,10) scale(1,1)"><rect fill="#ffffff" stroke="none" x="912.0517578125" y="290" width="13" height="16"/></g><g transform="translate(10,10) scale(1,1)"><path fill="none" stroke="#000000" d="M 912.0517578125 290 L 925.0517578125 290 L 925.0517578125 306 L 912.0517578125 306 L 912.0517578125 290 Z Z" stroke-miterlimit="10"/></g><g transform="translate(10,10) scale(1,1)"><rect fill="#ffffff" stroke="none" x="909.0517578125" y="293" width="7" height="4"/></g><g transform="translate(10,10) scale(1,1)"><path fill="none" stroke="#000000" d="M 909.0517578125 293 L 916.0517578125 293 L 916.0517578125 297 L 909.0517578125 297 L 909.0517578125 293 Z Z" stroke-miterlimit="10"/></g><g transform="translate(10,10) scale(1,1)"><rect fill="#ffffff" stroke="none" x="909.0517578125" y="299" width="7" height="4"/></g><g transform="translate(10,10) scale(1,1)"><path fill="none" stroke="#000000" d="M 909.0517578125 299 L 916.0517578125 299 L 916.0517578125 303 L 909.0517578125 303 L 909.0517578125 299 Z Z" stroke-miterlimit="10"/></g><g transform="translate(10,10) scale(1,1)"><g><path fill="none" stroke="none"/><text fill="#000000" stroke="none" font-family="Times New Roman" font-size="14px" font-style="normal" font-weight="normal" text-decoration="none" x="854.02587890625" y="291.5"></text></g></g><g transform="translate(10,10) scale(1,1)"><g><path fill="none" stroke="none"/><text fill="#000000" stroke="none" font-family="Times New Roman" font-size="14px" font-style="normal" font-weight="bold" text-decoration="none" x="809.5" y="312.5">OS Interaction</text></g></g><g transform="translate(10,10) scale(1,1)"><rect fill="#C0C0C0" stroke="none" x="433" y="311" width="145.369140625" height="39" opacity="0.2"/></g><g transform="translate(10,10) scale(1,1)"><rect fill="#ffffff" stroke="none" x="416" y="304" width="155.369140625" height="39"/></g><g transform="translate(10,10) scale(1,1)"><path fill="none" stroke="#000000" d="M 416 304 L 571.369140625 304 L 571.369140625 343 L 416 343 L 416 304 Z Z" stroke-miterlimit="10"/></g><g transform="translate(10,10) scale(1,1)"><rect fill="#ffffff" stroke="none" x="551.369140625" y="314" width="13" height="16"/></g><g transform="translate(10,10) scale(1,1)"><path fill="none" stroke="#000000" d="M 551.369140625 314 L 564.369140625 314 L 564.369140625 330 L 551.369140625 330 L 551.369140625 314 Z Z" stroke-miterlimit="10"/></g><g transform="translate(10,10) scale(1,1)"><rect fill="#ffffff" stroke="none" x="548.369140625" y="317" width="7" height="4"/></g><g transform="translate(10,10) scale(1,1)"><path fill="none" stroke="#000000" d="M 548.369140625 317 L 555.369140625 317 L 555.369140625 321 L 548.369140625 321 L 548.369140625 317 Z Z" stroke-miterlimit="10"/></g><g transform="translate(10,10) scale(1,1)"><rect fill="#ffffff" stroke="none" x="548.369140625" y="323" width="7" height="4"/></g><g transform="translate(10,10) scale(1,1)"><path fill="none" stroke="#000000" d="M 548.369140625 323 L 555.369140625 323 L 555.369140625 327 L 548.369140625 327 L 548.369140625 323 Z Z" stroke-miterlimit="10"/></g><g transform="translate(10,10) scale(1,1)"><g><path fill="none" stroke="none"/><text fill="#000000" stroke="none" font-family="Times New Roman" font-size="14px" font-style="normal" font-weight="normal" text-decoration="none" x="481.6845703125" y="315.5"></text></g></g><g transform="translate(10,10) scale(1,1)"><g><path fill="none" stroke="none"/><text fill="#000000" stroke="none" font-family="Times New Roman" font-size="14px" font-style="normal" font-weight="bold" text-decoration="none" x="425.5" y="336.5">DataBase Abstract</text></g></g><g transform="translate(10,10) scale(1,1)"><rect fill="#C0C0C0" stroke="none" x="345" y="479" width="117.7861328125" height="39" opacity="0.2"/></g><g transform="translate(10,10) scale(1,1)"><rect fill="#ffffff" stroke="none" x="328" y="472" width="127.7861328125" height="39"/></g><g transform="translate(10,10) scale(1,1)"><path fill="none" stroke="#000000" d="M 328 472 L 455.7861328125 472 L 455.7861328125 511 L 328 511 L 328 472 Z Z" stroke-miterlimit="10"/></g><g transform="translate(10,10) scale(1,1)"><rect fill="#ffffff" stroke="none" x="435.7861328125" y="482" width="13" height="16"/></g><g transform="translate(10,10) scale(1,1)"><path fill="none" stroke="#000000" d="M 435.7861328125 482 L 448.7861328125 482 L 448.7861328125 498 L 435.7861328125 498 L 435.7861328125 482 Z Z" stroke-miterlimit="10"/></g><g transform="translate(10,10) scale(1,1)"><rect fill="#ffffff" stroke="none" x="432.7861328125" y="485" width="7" height="4"/></g><g transform="translate(10,10) scale(1,1)"><path fill="none" stroke="#000000" d="M 432.7861328125 485 L 439.7861328125 485 L 439.7861328125 489 L 432.7861328125 489 L 432.7861328125 485 Z Z" stroke-miterlimit="10"/></g><g transform="translate(10,10) scale(1,1)"><rect fill="#ffffff" stroke="none" x="432.7861328125" y="491" width="7" height="4"/></g><g transform="translate(10,10) scale(1,1)"><path fill="none" stroke="#000000" d="M 432.7861328125 491 L 439.7861328125 491 L 439.7861328125 495 L 432.7861328125 495 L 432.7861328125 491 Z Z" stroke-miterlimit="10"/></g><g transform="translate(10,10) scale(1,1)"><g><path fill="none" stroke="none"/><text fill="#000000" stroke="none" font-family="Times New Roman" font-size="14px" font-style="normal" font-weight="normal" text-decoration="none" x="379.89306640625" y="483.5"></text></g></g><g transform="translate(10,10) scale(1,1)"><g><path fill="none" stroke="none"/><text fill="#000000" stroke="none" font-family="Times New Roman" font-size="14px" font-style="normal" font-weight="bold" text-decoration="none" x="337.5" y="504.5">Configuration</text></g></g><g transform="translate(10,10) scale(1,1)"><rect fill="#C0C0C0" stroke="none" x="497" y="655" width="143.82421875" height="39" opacity="0.2"/></g><g transform="translate(10,10) scale(1,1)"><rect fill="#ffffff" stroke="none" x="480" y="648" width="153.82421875" height="39"/></g><g transform="translate(10,10) scale(1,1)"><path fill="none" stroke="#000000" d="M 480 648 L 633.82421875 648 L 633.82421875 687 L 480 687 L 480 648 Z Z" stroke-miterlimit="10"/></g><g transform="translate(10,10) scale(1,1)"><rect fill="#ffffff" stroke="none" x="613.82421875" y="658" width="13" height="16"/></g><g transform="translate(10,10) scale(1,1)"><path fill="none" stroke="#000000" d="M 613.82421875 658 L 626.82421875 658 L 626.82421875 674 L 613.82421875 674 L 613.82421875 658 Z Z" stroke-miterlimit="10"/></g><g transform="translate(10,10) scale(1,1)"><rect fill="#ffffff" stroke="none" x="610.82421875" y="661" width="7" height="4"/></g><g transform="translate(10,10) scale(1,1)"><path fill="none" stroke="#000000" d="M 610.82421875 661 L 617.82421875 661 L 617.82421875 665 L 610.82421875 665 L 610.82421875 661 Z Z" stroke-miterlimit="10"/></g><g transform="translate(10,10) scale(1,1)"><rect fill="#ffffff" stroke="none" x="610.82421875" y="667" width="7" height="4"/></g><g transform="translate(10,10) scale(1,1)"><path fill="none" stroke="#000000" d="M 610.82421875 667 L 617.82421875 667 L 617.82421875 671 L 610.82421875 671 L 610.82421875 667 Z Z" stroke-miterlimit="10"/></g><g transform="translate(10,10) scale(1,1)"><g><path fill="none" stroke="none"/><text fill="#000000" stroke="none" font-family="Times New Roman" font-size="14px" font-style="normal" font-weight="normal" text-decoration="none" x="544.912109375" y="659.5"></text></g></g><g transform="translate(10,10) scale(1,1)"><g><path fill="none" stroke="none"/><text fill="#000000" stroke="none" font-family="Times New Roman" font-size="14px" font-style="normal" font-weight="bold" text-decoration="none" x="489.5" y="680.5">DBMS Interaction</text></g></g><g transform="translate(10,10) scale(1,1)"><path fill="none" stroke="#ff0000" d="M 968 264 L 1008 264 L 1008 712 L 48 712 L 48 264 L 968 264" stroke-miterlimit="10" stroke-dasharray="6,4"/></g><g transform="translate(10,10) scale(1,1)"><g><path fill="none" stroke="none"/><text fill="#ff0000" stroke="none" font-family="Times New Roman" font-size="30px" font-style="normal" font-weight="normal" text-decoration="none" x="53" y="738">Boundary noKami-SQL</text></g></g><g transform="translate(10,10) scale(1,1)"><rect fill="#C0C0C0" stroke="none" x="423" y="199" width="157.32421875" height="39" opacity="0.2"/></g><g transform="translate(10,10) scale(1,1)"><rect fill="#a3ffa3" stroke="none" x="416" y="192" width="157.32421875" height="39"/></g><g transform="translate(10,10) scale(1,1)"><path fill="none" stroke="#000000" d="M 416 192 L 573.32421875 192 L 573.32421875 231 L 416 231 L 416 192 Z Z" stroke-miterlimit="10"/></g><g transform="translate(10,10) scale(1,1)"><path fill="#a3ffa3" stroke="none" d="M 547.32421875 209 C 547.32421875 204.0294368 551.35365555 200 556.32421875 200 C 561.29478195 200 565.32421875 204.0294368 565.32421875 209 C 565.32421875 213.9705632 561.29478195 218 556.32421875 218 C 551.35365555 218 547.32421875 213.9705632 547.32421875 209 Z"/></g><g transform="translate(10,10) scale(1,1)"><path fill="none" stroke="#000000" d="M 547.32421875 209 C 547.32421875 204.0294368 551.35365555 200 556.32421875 200 C 561.29478195 200 565.32421875 204.0294368 565.32421875 209 C 565.32421875 213.9705632 561.29478195 218 556.32421875 218 C 551.35365555 218 547.32421875 213.9705632 547.32421875 209 Z" stroke-miterlimit="10"/></g><g transform="translate(10,10) scale(1,1)"><g><path fill="none" stroke="none"/><text fill="#000000" stroke="none" font-family="Times New Roman" font-size="14px" font-style="normal" font-weight="normal" text-decoration="none" x="451.1826171875" y="208.5">«interface»</text></g></g><g transform="translate(10,10) scale(1,1)"><g><path fill="none" stroke="none"/><text fill="#000000" stroke="none" font-family="Times New Roman" font-size="14px" font-style="normal" font-weight="bold" text-decoration="none" x="425.5" y="224.5">BoundaryInterface</text></g></g><g transform="translate(10,10) scale(1,1)"><rect fill="#C0C0C0" stroke="none" x="433" y="79" width="151.3740234375" height="71" opacity="0.2"/></g><g transform="translate(10,10) scale(1,1)"><rect fill="#a3ffa3" stroke="none" x="416" y="72" width="161.3740234375" height="71"/></g><g transform="translate(10,10) scale(1,1)"><path fill="none" stroke="#000000" d="M 416 72 L 577.3740234375 72 L 577.3740234375 143 L 416 143 L 416 72 Z Z" stroke-miterlimit="10"/></g><g transform="translate(10,10) scale(1,1)"><rect fill="#a3ffa3" stroke="none" x="557.3740234375" y="82" width="13" height="16"/></g><g transform="translate(10,10) scale(1,1)"><path fill="none" stroke="#000000" d="M 557.3740234375 82 L 570.3740234375 82 L 570.3740234375 98 L 557.3740234375 98 L 557.3740234375 82 Z Z" stroke-miterlimit="10"/></g><g transform="translate(10,10) scale(1,1)"><rect fill="#a3ffa3" stroke="none" x="554.3740234375" y="85" width="7" height="4"/></g><g transform="translate(10,10) scale(1,1)"><path fill="none" stroke="#000000" d="M 554.3740234375 85 L 561.3740234375 85 L 561.3740234375 89 L 554.3740234375 89 L 554.3740234375 85 Z Z" stroke-miterlimit="10"/></g><g transform="translate(10,10) scale(1,1)"><rect fill="#a3ffa3" stroke="none" x="554.3740234375" y="91" width="7" height="4"/></g><g transform="translate(10,10) scale(1,1)"><path fill="none" stroke="#000000" d="M 554.3740234375 91 L 561.3740234375 91 L 561.3740234375 95 L 554.3740234375 95 L 554.3740234375 91 Z Z" stroke-miterlimit="10"/></g><g transform="translate(10,10) scale(1,1)"><g><path fill="none" stroke="none"/><text fill="#000000" stroke="none" font-family="Times New Roman" font-size="30px" font-style="normal" font-weight="normal" text-decoration="none" x="484.68701171875" y="91.5"></text></g></g><g transform="translate(10,10) scale(1,1)"><g><path fill="none" stroke="none"/><text fill="#000000" stroke="none" font-family="Times New Roman" font-size="30px" font-style="normal" font-weight="bold" text-decoration="none" x="425.5" y="133.5">YourApp</text></g></g><g transform="translate(10,10) scale(1,1)"><path fill="none" stroke="#000000" d="M 495 144 L 494 191" stroke-miterlimit="10" stroke-dasharray="3"/></g><g transform="translate(10,10) scale(1,1)"><path fill="#FFFFFF" stroke="none" d="M 486.0152258605152 170.50016141669855 L 494 191 L 502.84948693520937 170.85833718424524"/></g><g transform="translate(10,10) scale(1,1)"><path fill="none" stroke="#000000" d="M 486.0152258605152 170.50016141669855 L 494 191 L 502.84948693520937 170.85833718424524 L 486.0152258605152 170.50016141669855" stroke-miterlimit="10"/></g><g transform="translate(10,10) scale(1,1)"><rect fill="#C0C0C0" stroke="none" x="409" y="839" width="125.17578125" height="39" opacity="0.2"/></g><g transform="translate(10,10) scale(1,1)"><rect fill="#a3ffa3" stroke="none" x="392" y="832" width="135.17578125" height="39"/></g><g transform="translate(10,10) scale(1,1)"><path fill="none" stroke="#000000" d="M 392 832 L 527.17578125 832 L 527.17578125 871 L 392 871 L 392 832 Z Z" stroke-miterlimit="10"/></g><g transform="translate(10,10) scale(1,1)"><rect fill="#a3ffa3" stroke="none" x="507.17578125" y="842" width="13" height="16"/></g><g transform="translate(10,10) scale(1,1)"><path fill="none" stroke="#000000" d="M 507.17578125 842 L 520.17578125 842 L 520.17578125 858 L 507.17578125 858 L 507.17578125 842 Z Z" stroke-miterlimit="10"/></g><g transform="translate(10,10) scale(1,1)"><rect fill="#a3ffa3" stroke="none" x="504.17578125" y="845" width="7" height="4"/></g><g transform="translate(10,10) scale(1,1)"><path fill="none" stroke="#000000" d="M 504.17578125 845 L 511.17578125 845 L 511.17578125 849 L 504.17578125 849 L 504.17578125 845 Z Z" stroke-miterlimit="10"/></g><g transform="translate(10,10) scale(1,1)"><rect fill="#a3ffa3" stroke="none" x="504.17578125" y="851" width="7" height="4"/></g><g transform="translate(10,10) scale(1,1)"><path fill="none" stroke="#000000" d="M 504.17578125 851 L 511.17578125 851 L 511.17578125 855 L 504.17578125 855 L 504.17578125 851 Z Z" stroke-miterlimit="10"/></g><g transform="translate(10,10) scale(1,1)"><g><path fill="none" stroke="none"/><text fill="#000000" stroke="none" font-family="Times New Roman" font-size="14px" font-style="normal" font-weight="normal" text-decoration="none" x="447.587890625" y="843.5"></text></g></g><g transform="translate(10,10) scale(1,1)"><g><path fill="none" stroke="none"/><text fill="#000000" stroke="none" font-family="Times New Roman" font-size="14px" font-style="normal" font-weight="bold" text-decoration="none" x="401.5" y="864.5">MySQL DBMS</text></g></g><g transform="translate(10,10) scale(1,1)"><rect fill="#C0C0C0" stroke="none" x="697" y="839" width="149.798828125" height="39" opacity="0.2"/></g><g transform="translate(10,10) scale(1,1)"><rect fill="#a3ffa3" stroke="none" x="680" y="832" width="159.798828125" height="39"/></g><g transform="translate(10,10) scale(1,1)"><path fill="none" stroke="#000000" d="M 680 832 L 839.798828125 832 L 839.798828125 871 L 680 871 L 680 832 Z Z" stroke-miterlimit="10"/></g><g transform="translate(10,10) scale(1,1)"><rect fill="#a3ffa3" stroke="none" x="819.798828125" y="842" width="13" height="16"/></g><g transform="translate(10,10) scale(1,1)"><path fill="none" stroke="#000000" d="M 819.798828125 842 L 832.798828125 842 L 832.798828125 858 L 819.798828125 858 L 819.798828125 842 Z Z" stroke-miterlimit="10"/></g><g transform="translate(10,10) scale(1,1)"><rect fill="#a3ffa3" stroke="none" x="816.798828125" y="845" width="7" height="4"/></g><g transform="translate(10,10) scale(1,1)"><path fill="none" stroke="#000000" d="M 816.798828125 845 L 823.798828125 845 L 823.798828125 849 L 816.798828125 849 L 816.798828125 845 Z Z" stroke-miterlimit="10"/></g><g transform="translate(10,10) scale(1,1)"><rect fill="#a3ffa3" stroke="none" x="816.798828125" y="851" width="7" height="4"/></g><g transform="translate(10,10) scale(1,1)"><path fill="none" stroke="#000000" d="M 816.798828125 851 L 823.798828125 851 L 823.798828125 855 L 816.798828125 855 L 816.798828125 851 Z Z" stroke-miterlimit="10"/></g><g transform="translate(10,10) scale(1,1)"><g><path fill="none" stroke="none"/><text fill="#000000" stroke="none" font-family="Times New Roman" font-size="14px" font-style="normal" font-weight="normal" text-decoration="none" x="747.8994140625" y="843.5"></text></g></g><g transform="translate(10,10) scale(1,1)"><g><path fill="none" stroke="none"/><text fill="#000000" stroke="none" font-family="Times New Roman" font-size="14px" font-style="normal" font-weight="bold" text-decoration="none" x="689.5" y="864.5">PostgreSQL DBMS</text></g></g><g transform="translate(10,10) scale(1,1)"><path fill="none" stroke="#0000ff" d="M 880 912 L 328 912 L 328 800 L 880 800 L 880 912" stroke-miterlimit="10" stroke-dasharray="6,4"/></g><g transform="translate(10,10) scale(1,1)"><g><path fill="none" stroke="none"/><text fill="#0000ff" stroke="none" font-family="Times New Roman" font-size="30px" font-style="normal" font-weight="normal" text-decoration="none" x="333" y="938">Boundary Real DBMS </text></g></g><g transform="translate(10,10) scale(1,1)"><path fill="none" stroke="#000000" d="M 545 688 L 470 831" stroke-miterlimit="10" stroke-dasharray="3"/></g><g transform="translate(10,10) scale(1,1)"><path fill="none" stroke="#000000" d="M 470.9923524686077 820.0448534205129 L 470 831 L 478.44815759512767 823.9552407246317" stroke-miterlimit="10"/></g><g transform="translate(10,10) scale(1,1)"><path fill="none" stroke="#000000" d="M 579 688 L 737 831" stroke-miterlimit="10" stroke-dasharray="3"/></g><g transform="translate(10,10) scale(1,1)"><path fill="none" stroke="#000000" d="M 726.6404041281162 827.3015174231522 L 737 831 L 732.2898816188282 821.0594373984494" stroke-miterlimit="10"/></g><g transform="translate(10,10) scale(1,1)"><path fill="none" stroke="#000000" d="M 739 367 L 827 320" stroke-miterlimit="10" stroke-dasharray="3"/></g><g transform="translate(10,10) scale(1,1)"><path fill="none" stroke="#000000" d="M 820.0188945508017 328.50083329487023 L 827 320 L 816.0526161281545 321.0746098652327" stroke-miterlimit="10"/></g><g transform="translate(10,10) scale(1,1)"><path fill="none" stroke="#000000" d="M 480 344 L 403 471" stroke-miterlimit="10" stroke-dasharray="3"/></g><g transform="translate(10,10) scale(1,1)"><path fill="none" stroke="#000000" d="M 404.669258544339 460.1273933248668 L 403 471 L 411.86843794541653 464.4922501270949" stroke-miterlimit="10"/></g><g transform="translate(10,10) scale(1,1)"><rect fill="#C0C0C0" stroke="none" x="1121" y="287" width="171.71484375" height="39" opacity="0.2"/></g><g transform="translate(10,10) scale(1,1)"><rect fill="#a3ffa3" stroke="none" x="1104" y="280" width="181.71484375" height="39"/></g><g transform="translate(10,10) scale(1,1)"><path fill="none" stroke="#000000" d="M 1104 280 L 1285.71484375 280 L 1285.71484375 319 L 1104 319 L 1104 280 Z Z" stroke-miterlimit="10"/></g><g transform="translate(10,10) scale(1,1)"><rect fill="#a3ffa3" stroke="none" x="1265.71484375" y="290" width="13" height="16"/></g><g transform="translate(10,10) scale(1,1)"><path fill="none" stroke="#000000" d="M 1265.71484375 290 L 1278.71484375 290 L 1278.71484375 306 L 1265.71484375 306 L 1265.71484375 290 Z Z" stroke-miterlimit="10"/></g><g transform="translate(10,10) scale(1,1)"><rect fill="#a3ffa3" stroke="none" x="1262.71484375" y="293" width="7" height="4"/></g><g transform="translate(10,10) scale(1,1)"><path fill="none" stroke="#000000" d="M 1262.71484375 293 L 1269.71484375 293 L 1269.71484375 297 L 1262.71484375 297 L 1262.71484375 293 Z Z" stroke-miterlimit="10"/></g><g transform="translate(10,10) scale(1,1)"><rect fill="#a3ffa3" stroke="none" x="1262.71484375" y="299" width="7" height="4"/></g><g transform="translate(10,10) scale(1,1)"><path fill="none" stroke="#000000" d="M 1262.71484375 299 L 1269.71484375 299 L 1269.71484375 303 L 1262.71484375 303 L 1262.71484375 299 Z Z" stroke-miterlimit="10"/></g><g transform="translate(10,10) scale(1,1)"><g><path fill="none" stroke="none"/><text fill="#000000" stroke="none" font-family="Times New Roman" font-size="14px" font-style="normal" font-weight="normal" text-decoration="none" x="1182.857421875" y="291.5"></text></g></g><g transform="translate(10,10) scale(1,1)"><g><path fill="none" stroke="none"/><text fill="#000000" stroke="none" font-family="Times New Roman" font-size="14px" font-style="normal" font-weight="bold" text-decoration="none" x="1113.5" y="312.5">Windows File Explorer</text></g></g><g transform="translate(10,10) scale(1,1)"><rect fill="#C0C0C0" stroke="none" x="1121" y="383" width="151.7470703125" height="39" opacity="0.2"/></g><g transform="translate(10,10) scale(1,1)"><rect fill="#a3ffa3" stroke="none" x="1104" y="376" width="161.7470703125" height="39"/></g><g transform="translate(10,10) scale(1,1)"><path fill="none" stroke="#000000" d="M 1104 376 L 1265.7470703125 376 L 1265.7470703125 415 L 1104 415 L 1104 376 Z Z" stroke-miterlimit="10"/></g><g transform="translate(10,10) scale(1,1)"><rect fill="#a3ffa3" stroke="none" x="1245.7470703125" y="386" width="13" height="16"/></g><g transform="translate(10,10) scale(1,1)"><path fill="none" stroke="#000000" d="M 1245.7470703125 386 L 1258.7470703125 386 L 1258.7470703125 402 L 1245.7470703125 402 L 1245.7470703125 386 Z Z" stroke-miterlimit="10"/></g><g transform="translate(10,10) scale(1,1)"><rect fill="#a3ffa3" stroke="none" x="1242.7470703125" y="389" width="7" height="4"/></g><g transform="translate(10,10) scale(1,1)"><path fill="none" stroke="#000000" d="M 1242.7470703125 389 L 1249.7470703125 389 L 1249.7470703125 393 L 1242.7470703125 393 L 1242.7470703125 389 Z Z" stroke-miterlimit="10"/></g><g transform="translate(10,10) scale(1,1)"><rect fill="#a3ffa3" stroke="none" x="1242.7470703125" y="395" width="7" height="4"/></g><g transform="translate(10,10) scale(1,1)"><path fill="none" stroke="#000000" d="M 1242.7470703125 395 L 1249.7470703125 395 L 1249.7470703125 399 L 1242.7470703125 399 L 1242.7470703125 395 Z Z" stroke-miterlimit="10"/></g><g transform="translate(10,10) scale(1,1)"><g><path fill="none" stroke="none"/><text fill="#000000" stroke="none" font-family="Times New Roman" font-size="14px" font-style="normal" font-weight="normal" text-decoration="none" x="1172.87353515625" y="387.5"></text></g></g><g transform="translate(10,10) scale(1,1)"><g><path fill="none" stroke="none"/><text fill="#000000" stroke="none" font-family="Times New Roman" font-size="14px" font-style="normal" font-weight="bold" text-decoration="none" x="1113.5" y="408.5">Linux File Explorer</text></g></g><g transform="translate(10,10) scale(1,1)"><path fill="none" stroke="#0000ff" d="M 1328 440 L 1336 440 L 1336 248 L 1064 248 L 1064 440 L 1336 440" stroke-miterlimit="10" stroke-dasharray="6,4"/></g><g transform="translate(10,10) scale(1,1)"><g><path fill="none" stroke="none"/><text fill="#0000ff" stroke="none" font-family="Times New Roman" font-size="30px" font-style="normal" font-weight="normal" text-decoration="none" x="1069" y="466">Boundary Real File System </text></g></g><g transform="translate(10,10) scale(1,1)"><path fill="none" stroke="#000000" d="M 933 299 L 1103 299" stroke-miterlimit="10" stroke-dasharray="3"/></g><g transform="translate(10,10) scale(1,1)"><path fill="none" stroke="#000000" d="M 1092.837325142376 303.209517756016 L 1103 299 L 1092.837325142376 294.790482243984" stroke-miterlimit="10"/></g><g transform="translate(10,10) scale(1,1)"><path fill="none" stroke="#000000" d="M 933 319 L 1118 375" stroke-miterlimit="10" stroke-dasharray="3"/></g><g transform="translate(10,10) scale(1,1)"><path fill="none" stroke="#000000" d="M 1107.0536058491762 376.0846451469527 L 1118 375 L 1109.4927705278203 368.02669040500297" stroke-miterlimit="10"/></g><g transform="translate(10,10) scale(1,1)"><path fill="none" stroke="#000000" d="M 635 667 L 807 667" stroke-miterlimit="10" stroke-dasharray="3"/></g><g transform="translate(10,10) scale(1,1)"><path fill="#FFFFFF" stroke="none" d="M 786.6746502847517 675.419035512032 L 807 667 L 786.6746502847517 658.580964487968"/></g><g transform="translate(10,10) scale(1,1)"><path fill="none" stroke="#000000" d="M 786.6746502847517 675.419035512032 L 807 667 L 786.6746502847517 658.580964487968 L 786.6746502847517 675.419035512032" stroke-miterlimit="10"/></g><g transform="translate(10,10) scale(1,1)"><path fill="none" stroke="#000000" d="M 497 344 L 552 647" stroke-miterlimit="10" stroke-dasharray="3"/></g><g transform="translate(10,10) scale(1,1)"><path fill="#FFFFFF" stroke="none" d="M 540.0862264395823 628.5050817911759 L 552 647 L 556.6535720088577 625.4978078429576"/></g><g transform="translate(10,10) scale(1,1)"><path fill="none" stroke="#000000" d="M 540.0862264395823 628.5050817911759 L 552 647 L 556.6535720088577 625.4978078429576 L 540.0862264395823 628.5050817911759" stroke-miterlimit="10"/></g><g transform="translate(10,10) scale(1,1)"><path fill="none" stroke="#000000" d="M 562 344 L 655 373" stroke-miterlimit="10" stroke-dasharray="3"/></g><g transform="translate(10,10) scale(1,1)"><path fill="#FFFFFF" stroke="none" d="M 633.0898853620937 374.9866747478648 L 655 373 L 638.1024181767345 358.9120005491891"/></g><g transform="translate(10,10) scale(1,1)"><path fill="none" stroke="#000000" d="M 633.0898853620937 374.9866747478648 L 655 373 L 638.1024181767345 358.9120005491891 L 633.0898853620937 374.9866747478648" stroke-miterlimit="10"/></g><g transform="translate(10,10) scale(1,1)"><path fill="none" stroke="#000000" d="M 537 647 L 411 512" stroke-miterlimit="10" stroke-dasharray="3"/></g><g transform="translate(10,10) scale(1,1)"><path fill="none" stroke="#000000" d="M 421.01156866012917 516.5572462039613 L 411 512 L 414.8567883955344 522.3017077842497" stroke-miterlimit="10"/></g><g transform="translate(10,10) scale(1,1)"><path fill="none" stroke="#000000" d="M 494 232 L 493 303" stroke-miterlimit="10" stroke-dasharray="3"/></g><g transform="translate(10,10) scale(1,1)"><path fill="none" stroke="#000000" d="M 488.9340217804229 292.77904989162334 L 493 303 L 497.35222236058274 292.89761609697774" stroke-miterlimit="10"/></g><g transform="translate(10,10) scale(1,1)"><g><path fill="none" stroke="none"/><text fill="#000000" stroke="none" font-family="Times New Roman" font-size="20px" font-style="normal" font-weight="normal" text-decoration="none" x="5" y="18">0.1.0</text></g></g><g transform="translate(10,10) scale(1,1)"><g><path fill="none" stroke="none"/><text fill="#ff0000" stroke="none" font-family="Times New Roman" font-size="30px" font-style="normal" font-weight="normal" text-decoration="none" x="5" y="58">Ignore Model</text></g></g></g></svg>