<svg version="1.1" xmlns="http://www.w3.org/2000/svg" xmlns:xlink="http://www.w3.org/1999/xlink" width="1764" height="1172"><defs/><g><g transform="translate(10,10) scale(1,1)"><rect fill="#ffffff" stroke="none" x="80" y="360" width="1664" height="792"/></g><g transform="translate(10,10) scale(1,1)"><path fill="none" stroke="#ff0000" d="M 80 360 L 1744 360 L 1744 1152 L 80 1152 L 80 360 Z Z" stroke-miterlimit="10"/></g><g transform="translate(10,10) scale(1,1)"><rect fill="#C0C0C0" stroke="none" x="905" y="399" width="138.396484375" height="39" opacity="0.2"/></g><g transform="translate(10,10) scale(1,1)"><rect fill="#ffffff" stroke="none" x="888" y="392" width="148.396484375" height="39"/></g><g transform="translate(10,10) scale(1,1)"><path fill="none" stroke="#000000" d="M 888 392 L 1036.396484375 392 L 1036.396484375 431 L 888 431 L 888 392 Z Z" stroke-miterlimit="10"/></g><g transform="translate(10,10) scale(1,1)"><rect fill="#ffffff" stroke="none" x="1016.396484375" y="402" width="13" height="16"/></g><g transform="translate(10,10) scale(1,1)"><path fill="none" stroke="#000000" d="M 1016.396484375 402 L 1029.396484375 402 L 1029.396484375 418 L 1016.396484375 418 L 1016.396484375 402 Z Z" stroke-miterlimit="10"/></g><g transform="translate(10,10) scale(1,1)"><rect fill="#ffffff" stroke="none" x="1013.396484375" y="405" width="7" height="4"/></g><g transform="translate(10,10) scale(1,1)"><path fill="none" stroke="#000000" d="M 1013.396484375 405 L 1020.396484375 405 L 1020.396484375 409 L 1013.396484375 409 L 1013.396484375 405 Z Z" stroke-miterlimit="10"/></g><g transform="translate(10,10) scale(1,1)"><rect fill="#ffffff" stroke="none" x="1013.396484375" y="411" width="7" height="4"/></g><g transform="translate(10,10) scale(1,1)"><path fill="none" stroke="#000000" d="M 1013.396484375 411 L 1020.396484375 411 L 1020.396484375 415 L 1013.396484375 415 L 1013.396484375 411 Z Z" stroke-miterlimit="10"/></g><g transform="translate(10,10) scale(1,1)"><g><path fill="none" stroke="none"/><text fill="#000000" stroke="none" font-family="Times New Roman" font-size="14px" font-style="normal" font-weight="normal" text-decoration="none" x="950.1982421875" y="403.5"></text></g></g><g transform="translate(10,10) scale(1,1)"><g><path fill="none" stroke="none"/><text fill="#000000" stroke="none" font-family="Times New Roman" font-size="14px" font-style="normal" font-weight="bold" text-decoration="none" x="897.5" y="424.5">Main Component</text></g></g><g transform="translate(10,10) scale(1,1)"><rect fill="#ffffff" stroke="none" x="80" y="360" width="353.970703125" height="41"/></g><g transform="translate(10,10) scale(1,1)"><path fill="none" stroke="#ff0000" d="M 80 360 L 433.970703125 360 L 433.970703125 401 L 80 401 L 80 360 Z Z" stroke-miterlimit="10"/></g><g transform="translate(10,10) scale(1,1)"><g><path fill="none" stroke="none"/><text fill="#ff0000" stroke="none" font-family="Times New Roman" font-size="30px" font-style="normal" font-weight="normal" text-decoration="none" x="85" y="386">Boundary noKamiSQL-API </text></g></g><g transform="translate(10,10) scale(1,1)"><rect fill="#C0C0C0" stroke="none" x="865" y="511" width="218.8759765625" height="55" opacity="0.2"/></g><g transform="translate(10,10) scale(1,1)"><rect fill="#ffffff" stroke="none" x="848" y="504" width="228.8759765625" height="55"/></g><g transform="translate(10,10) scale(1,1)"><path fill="none" stroke="#000000" d="M 848 504 L 1076.8759765625 504 L 1076.8759765625 559 L 848 559 L 848 504 Z Z" stroke-miterlimit="10"/></g><g transform="translate(10,10) scale(1,1)"><rect fill="#ffffff" stroke="none" x="1056.8759765625" y="514" width="13" height="16"/></g><g transform="translate(10,10) scale(1,1)"><path fill="none" stroke="#000000" d="M 1056.8759765625 514 L 1069.8759765625 514 L 1069.8759765625 530 L 1056.8759765625 530 L 1056.8759765625 514 Z Z" stroke-miterlimit="10"/></g><g transform="translate(10,10) scale(1,1)"><rect fill="#ffffff" stroke="none" x="1053.8759765625" y="517" width="7" height="4"/></g><g transform="translate(10,10) scale(1,1)"><path fill="none" stroke="#000000" d="M 1053.8759765625 517 L 1060.8759765625 517 L 1060.8759765625 521 L 1053.8759765625 521 L 1053.8759765625 517 Z Z" stroke-miterlimit="10"/></g><g transform="translate(10,10) scale(1,1)"><rect fill="#ffffff" stroke="none" x="1053.8759765625" y="523" width="7" height="4"/></g><g transform="translate(10,10) scale(1,1)"><path fill="none" stroke="#000000" d="M 1053.8759765625 523 L 1060.8759765625 523 L 1060.8759765625 527 L 1053.8759765625 527 L 1053.8759765625 523 Z Z" stroke-miterlimit="10"/></g><g transform="translate(10,10) scale(1,1)"><g><path fill="none" stroke="none"/><text fill="#000000" stroke="none" font-family="Times New Roman" font-size="14px" font-style="normal" font-weight="normal" text-decoration="none" x="950.43798828125" y="515.5"></text></g></g><g transform="translate(10,10) scale(1,1)"><g><path fill="none" stroke="none"/><text fill="#000000" stroke="none" font-family="Times New Roman" font-size="14px" font-style="normal" font-weight="bold" text-decoration="none" x="857.5" y="536.5">Abstract DataBase Component</text></g></g><g transform="translate(10,10) scale(1,1)"><g><path fill="none" stroke="none"/><text fill="#000000" stroke="none" font-family="Times New Roman" font-size="14px" font-style="normal" font-weight="normal" text-decoration="none" x="876.18603515625" y="552.5">(from DataBase Imitation)</text></g></g><g transform="translate(10,10) scale(1,1)"><rect fill="#C0C0C0" stroke="none" x="1097" y="639" width="265.1689453125" height="55" opacity="0.2"/></g><g transform="translate(10,10) scale(1,1)"><rect fill="#ffffff" stroke="none" x="1080" y="632" width="275.1689453125" height="55"/></g><g transform="translate(10,10) scale(1,1)"><path fill="none" stroke="#000000" d="M 1080 632 L 1355.1689453125 632 L 1355.1689453125 687 L 1080 687 L 1080 632 Z Z" stroke-miterlimit="10"/></g><g transform="translate(10,10) scale(1,1)"><rect fill="#ffffff" stroke="none" x="1335.1689453125" y="642" width="13" height="16"/></g><g transform="translate(10,10) scale(1,1)"><path fill="none" stroke="#000000" d="M 1335.1689453125 642 L 1348.1689453125 642 L 1348.1689453125 658 L 1335.1689453125 658 L 1335.1689453125 642 Z Z" stroke-miterlimit="10"/></g><g transform="translate(10,10) scale(1,1)"><rect fill="#ffffff" stroke="none" x="1332.1689453125" y="645" width="7" height="4"/></g><g transform="translate(10,10) scale(1,1)"><path fill="none" stroke="#000000" d="M 1332.1689453125 645 L 1339.1689453125 645 L 1339.1689453125 649 L 1332.1689453125 649 L 1332.1689453125 645 Z Z" stroke-miterlimit="10"/></g><g transform="translate(10,10) scale(1,1)"><rect fill="#ffffff" stroke="none" x="1332.1689453125" y="651" width="7" height="4"/></g><g transform="translate(10,10) scale(1,1)"><path fill="none" stroke="#000000" d="M 1332.1689453125 651 L 1339.1689453125 651 L 1339.1689453125 655 L 1332.1689453125 655 L 1332.1689453125 651 Z Z" stroke-miterlimit="10"/></g><g transform="translate(10,10) scale(1,1)"><g><path fill="none" stroke="none"/><text fill="#000000" stroke="none" font-family="Times New Roman" font-size="14px" font-style="normal" font-weight="normal" text-decoration="none" x="1205.58447265625" y="643.5"></text></g></g><g transform="translate(10,10) scale(1,1)"><g><path fill="none" stroke="none"/><text fill="#000000" stroke="none" font-family="Times New Roman" font-size="14px" font-style="normal" font-weight="bold" text-decoration="none" x="1089.5" y="664.5">Pool Connection DataBase Component</text></g></g><g transform="translate(10,10) scale(1,1)"><g><path fill="none" stroke="none"/><text fill="#000000" stroke="none" font-family="Times New Roman" font-size="14px" font-style="normal" font-weight="normal" text-decoration="none" x="1131.33251953125" y="680.5">(from DataBase Imitation)</text></g></g><g transform="translate(10,10) scale(1,1)"><rect fill="#C0C0C0" stroke="none" x="577" y="639" width="275.29296875" height="55" opacity="0.2"/></g><g transform="translate(10,10) scale(1,1)"><rect fill="#ffffff" stroke="none" x="560" y="632" width="285.29296875" height="55"/></g><g transform="translate(10,10) scale(1,1)"><path fill="none" stroke="#000000" d="M 560 632 L 845.29296875 632 L 845.29296875 687 L 560 687 L 560 632 Z Z" stroke-miterlimit="10"/></g><g transform="translate(10,10) scale(1,1)"><rect fill="#ffffff" stroke="none" x="825.29296875" y="642" width="13" height="16"/></g><g transform="translate(10,10) scale(1,1)"><path fill="none" stroke="#000000" d="M 825.29296875 642 L 838.29296875 642 L 838.29296875 658 L 825.29296875 658 L 825.29296875 642 Z Z" stroke-miterlimit="10"/></g><g transform="translate(10,10) scale(1,1)"><rect fill="#ffffff" stroke="none" x="822.29296875" y="645" width="7" height="4"/></g><g transform="translate(10,10) scale(1,1)"><path fill="none" stroke="#000000" d="M 822.29296875 645 L 829.29296875 645 L 829.29296875 649 L 822.29296875 649 L 822.29296875 645 Z Z" stroke-miterlimit="10"/></g><g transform="translate(10,10) scale(1,1)"><rect fill="#ffffff" stroke="none" x="822.29296875" y="651" width="7" height="4"/></g><g transform="translate(10,10) scale(1,1)"><path fill="none" stroke="#000000" d="M 822.29296875 651 L 829.29296875 651 L 829.29296875 655 L 822.29296875 655 L 822.29296875 651 Z Z" stroke-miterlimit="10"/></g><g transform="translate(10,10) scale(1,1)"><g><path fill="none" stroke="none"/><text fill="#000000" stroke="none" font-family="Times New Roman" font-size="14px" font-style="normal" font-weight="normal" text-decoration="none" x="690.646484375" y="643.5"></text></g></g><g transform="translate(10,10) scale(1,1)"><g><path fill="none" stroke="none"/><text fill="#000000" stroke="none" font-family="Times New Roman" font-size="14px" font-style="normal" font-weight="bold" text-decoration="none" x="569.5" y="664.5">Single Connection DataBase Component</text></g></g><g transform="translate(10,10) scale(1,1)"><g><path fill="none" stroke="none"/><text fill="#000000" stroke="none" font-family="Times New Roman" font-size="14px" font-style="normal" font-weight="normal" text-decoration="none" x="616.39453125" y="680.5">(from DataBase Imitation)</text></g></g><g transform="translate(10,10) scale(1,1)"><rect fill="#C0C0C0" stroke="none" x="1473" y="727" width="190.8759765625" height="55" opacity="0.2"/></g><g transform="translate(10,10) scale(1,1)"><rect fill="#ffffff" stroke="none" x="1456" y="720" width="200.8759765625" height="55"/></g><g transform="translate(10,10) scale(1,1)"><path fill="none" stroke="#000000" d="M 1456 720 L 1656.8759765625 720 L 1656.8759765625 775 L 1456 775 L 1456 720 Z Z" stroke-miterlimit="10"/></g><g transform="translate(10,10) scale(1,1)"><rect fill="#ffffff" stroke="none" x="1636.8759765625" y="730" width="13" height="16"/></g><g transform="translate(10,10) scale(1,1)"><path fill="none" stroke="#000000" d="M 1636.8759765625 730 L 1649.8759765625 730 L 1649.8759765625 746 L 1636.8759765625 746 L 1636.8759765625 730 Z Z" stroke-miterlimit="10"/></g><g transform="translate(10,10) scale(1,1)"><rect fill="#ffffff" stroke="none" x="1633.8759765625" y="733" width="7" height="4"/></g><g transform="translate(10,10) scale(1,1)"><path fill="none" stroke="#000000" d="M 1633.8759765625 733 L 1640.8759765625 733 L 1640.8759765625 737 L 1633.8759765625 737 L 1633.8759765625 733 Z Z" stroke-miterlimit="10"/></g><g transform="translate(10,10) scale(1,1)"><rect fill="#ffffff" stroke="none" x="1633.8759765625" y="739" width="7" height="4"/></g><g transform="translate(10,10) scale(1,1)"><path fill="none" stroke="#000000" d="M 1633.8759765625 739 L 1640.8759765625 739 L 1640.8759765625 743 L 1633.8759765625 743 L 1633.8759765625 739 Z Z" stroke-miterlimit="10"/></g><g transform="translate(10,10) scale(1,1)"><g><path fill="none" stroke="none"/><text fill="#000000" stroke="none" font-family="Times New Roman" font-size="14px" font-style="normal" font-weight="normal" text-decoration="none" x="1544.43798828125" y="731.5"></text></g></g><g transform="translate(10,10) scale(1,1)"><g><path fill="none" stroke="none"/><text fill="#000000" stroke="none" font-family="Times New Roman" font-size="14px" font-style="normal" font-weight="bold" text-decoration="none" x="1465.5" y="752.5">Pool Manager Component</text></g></g><g transform="translate(10,10) scale(1,1)"><g><path fill="none" stroke="none"/><text fill="#000000" stroke="none" font-family="Times New Roman" font-size="14px" font-style="normal" font-weight="normal" text-decoration="none" x="1472.51025390625" y="768.5">(from DBMS Interaction)</text></g></g><g transform="translate(10,10) scale(1,1)"><rect fill="#C0C0C0" stroke="none" x="617" y="839" width="201" height="55" opacity="0.2"/></g><g transform="translate(10,10) scale(1,1)"><rect fill="#ffffff" stroke="none" x="600" y="832" width="211" height="55"/></g><g transform="translate(10,10) scale(1,1)"><path fill="none" stroke="#000000" d="M 600 832 L 811 832 L 811 887 L 600 887 L 600 832 Z Z" stroke-miterlimit="10"/></g><g transform="translate(10,10) scale(1,1)"><rect fill="#ffffff" stroke="none" x="791" y="842" width="13" height="16"/></g><g transform="translate(10,10) scale(1,1)"><path fill="none" stroke="#000000" d="M 791 842 L 804 842 L 804 858 L 791 858 L 791 842 Z Z" stroke-miterlimit="10"/></g><g transform="translate(10,10) scale(1,1)"><rect fill="#ffffff" stroke="none" x="788" y="845" width="7" height="4"/></g><g transform="translate(10,10) scale(1,1)"><path fill="none" stroke="#000000" d="M 788 845 L 795 845 L 795 849 L 788 849 L 788 845 Z Z" stroke-miterlimit="10"/></g><g transform="translate(10,10) scale(1,1)"><rect fill="#ffffff" stroke="none" x="788" y="851" width="7" height="4"/></g><g transform="translate(10,10) scale(1,1)"><path fill="none" stroke="#000000" d="M 788 851 L 795 851 L 795 855 L 788 855 L 788 851 Z Z" stroke-miterlimit="10"/></g><g transform="translate(10,10) scale(1,1)"><g><path fill="none" stroke="none"/><text fill="#000000" stroke="none" font-family="Times New Roman" font-size="14px" font-style="normal" font-weight="normal" text-decoration="none" x="693.5" y="843.5"></text></g></g><g transform="translate(10,10) scale(1,1)"><g><path fill="none" stroke="none"/><text fill="#000000" stroke="none" font-family="Times New Roman" font-size="14px" font-style="normal" font-weight="bold" text-decoration="none" x="609.5" y="864.5">Single Manager Component</text></g></g><g transform="translate(10,10) scale(1,1)"><g><path fill="none" stroke="none"/><text fill="#000000" stroke="none" font-family="Times New Roman" font-size="14px" font-style="normal" font-weight="normal" text-decoration="none" x="621.572265625" y="880.5">(from DBMS Interaction)</text></g></g><g transform="translate(10,10) scale(1,1)"><rect fill="#C0C0C0" stroke="none" x="1457" y="559" width="219.6279296875" height="55" opacity="0.2"/></g><g transform="translate(10,10) scale(1,1)"><rect fill="#ffffff" stroke="none" x="1440" y="552" width="229.6279296875" height="55"/></g><g transform="translate(10,10) scale(1,1)"><path fill="none" stroke="#000000" d="M 1440 552 L 1669.6279296875 552 L 1669.6279296875 607 L 1440 607 L 1440 552 Z Z" stroke-miterlimit="10"/></g><g transform="translate(10,10) scale(1,1)"><rect fill="#ffffff" stroke="none" x="1649.6279296875" y="562" width="13" height="16"/></g><g transform="translate(10,10) scale(1,1)"><path fill="none" stroke="#000000" d="M 1649.6279296875 562 L 1662.6279296875 562 L 1662.6279296875 578 L 1649.6279296875 578 L 1649.6279296875 562 Z Z" stroke-miterlimit="10"/></g><g transform="translate(10,10) scale(1,1)"><rect fill="#ffffff" stroke="none" x="1646.6279296875" y="565" width="7" height="4"/></g><g transform="translate(10,10) scale(1,1)"><path fill="none" stroke="#000000" d="M 1646.6279296875 565 L 1653.6279296875 565 L 1653.6279296875 569 L 1646.6279296875 569 L 1646.6279296875 565 Z Z" stroke-miterlimit="10"/></g><g transform="translate(10,10) scale(1,1)"><rect fill="#ffffff" stroke="none" x="1646.6279296875" y="571" width="7" height="4"/></g><g transform="translate(10,10) scale(1,1)"><path fill="none" stroke="#000000" d="M 1646.6279296875 571 L 1653.6279296875 571 L 1653.6279296875 575 L 1646.6279296875 575 L 1646.6279296875 571 Z Z" stroke-miterlimit="10"/></g><g transform="translate(10,10) scale(1,1)"><g><path fill="none" stroke="none"/><text fill="#000000" stroke="none" font-family="Times New Roman" font-size="14px" font-style="normal" font-weight="normal" text-decoration="none" x="1542.81396484375" y="563.5"></text></g></g><g transform="translate(10,10) scale(1,1)"><g><path fill="none" stroke="none"/><text fill="#000000" stroke="none" font-family="Times New Roman" font-size="14px" font-style="normal" font-weight="bold" text-decoration="none" x="1470.86572265625" y="584.5">Pool Config Component</text></g></g><g transform="translate(10,10) scale(1,1)"><g><path fill="none" stroke="none"/><text fill="#000000" stroke="none" font-family="Times New Roman" font-size="14px" font-style="normal" font-weight="normal" text-decoration="none" x="1449.5" y="600.5">(from Connection Configuration)</text></g></g><g transform="translate(10,10) scale(1,1)"><rect fill="#C0C0C0" stroke="none" x="137" y="639" width="177.2724609375" height="55" opacity="0.2"/></g><g transform="translate(10,10) scale(1,1)"><rect fill="#ffffff" stroke="none" x="120" y="632" width="187.2724609375" height="55"/></g><g transform="translate(10,10) scale(1,1)"><path fill="none" stroke="#000000" d="M 120 632 L 307.2724609375 632 L 307.2724609375 687 L 120 687 L 120 632 Z Z" stroke-miterlimit="10"/></g><g transform="translate(10,10) scale(1,1)"><rect fill="#ffffff" stroke="none" x="287.2724609375" y="642" width="13" height="16"/></g><g transform="translate(10,10) scale(1,1)"><path fill="none" stroke="#000000" d="M 287.2724609375 642 L 300.2724609375 642 L 300.2724609375 658 L 287.2724609375 658 L 287.2724609375 642 Z Z" stroke-miterlimit="10"/></g><g transform="translate(10,10) scale(1,1)"><rect fill="#ffffff" stroke="none" x="284.2724609375" y="645" width="7" height="4"/></g><g transform="translate(10,10) scale(1,1)"><path fill="none" stroke="#000000" d="M 284.2724609375 645 L 291.2724609375 645 L 291.2724609375 649 L 284.2724609375 649 L 284.2724609375 645 Z Z" stroke-miterlimit="10"/></g><g transform="translate(10,10) scale(1,1)"><rect fill="#ffffff" stroke="none" x="284.2724609375" y="651" width="7" height="4"/></g><g transform="translate(10,10) scale(1,1)"><path fill="none" stroke="#000000" d="M 284.2724609375 651 L 291.2724609375 651 L 291.2724609375 655 L 284.2724609375 655 L 284.2724609375 651 Z Z" stroke-miterlimit="10"/></g><g transform="translate(10,10) scale(1,1)"><g><path fill="none" stroke="none"/><text fill="#000000" stroke="none" font-family="Times New Roman" font-size="14px" font-style="normal" font-weight="normal" text-decoration="none" x="201.63623046875" y="643.5"></text></g></g><g transform="translate(10,10) scale(1,1)"><g><path fill="none" stroke="none"/><text fill="#000000" stroke="none" font-family="Times New Roman" font-size="14px" font-style="normal" font-weight="bold" text-decoration="none" x="129.5" y="664.5">BaseLogger Component</text></g></g><g transform="translate(10,10) scale(1,1)"><g><path fill="none" stroke="none"/><text fill="#000000" stroke="none" font-family="Times New Roman" font-size="14px" font-style="normal" font-weight="normal" text-decoration="none" x="157.896484375" y="680.5">(from Logging)</text></g></g><g transform="translate(10,10) scale(1,1)"><rect fill="#C0C0C0" stroke="none" x="1185" y="511" width="164.8447265625" height="55" opacity="0.2"/></g><g transform="translate(10,10) scale(1,1)"><rect fill="#ffffff" stroke="none" x="1168" y="504" width="174.8447265625" height="55"/></g><g transform="translate(10,10) scale(1,1)"><path fill="none" stroke="#000000" d="M 1168 504 L 1342.8447265625 504 L 1342.8447265625 559 L 1168 559 L 1168 504 Z Z" stroke-miterlimit="10"/></g><g transform="translate(10,10) scale(1,1)"><rect fill="#ffffff" stroke="none" x="1322.8447265625" y="514" width="13" height="16"/></g><g transform="translate(10,10) scale(1,1)"><path fill="none" stroke="#000000" d="M 1322.8447265625 514 L 1335.8447265625 514 L 1335.8447265625 530 L 1322.8447265625 530 L 1322.8447265625 514 Z Z" stroke-miterlimit="10"/></g><g transform="translate(10,10) scale(1,1)"><rect fill="#ffffff" stroke="none" x="1319.8447265625" y="517" width="7" height="4"/></g><g transform="translate(10,10) scale(1,1)"><path fill="none" stroke="#000000" d="M 1319.8447265625 517 L 1326.8447265625 517 L 1326.8447265625 521 L 1319.8447265625 521 L 1319.8447265625 517 Z Z" stroke-miterlimit="10"/></g><g transform="translate(10,10) scale(1,1)"><rect fill="#ffffff" stroke="none" x="1319.8447265625" y="523" width="7" height="4"/></g><g transform="translate(10,10) scale(1,1)"><path fill="none" stroke="#000000" d="M 1319.8447265625 523 L 1326.8447265625 523 L 1326.8447265625 527 L 1319.8447265625 527 L 1319.8447265625 523 Z Z" stroke-miterlimit="10"/></g><g transform="translate(10,10) scale(1,1)"><g><path fill="none" stroke="none"/><text fill="#000000" stroke="none" font-family="Times New Roman" font-size="14px" font-style="normal" font-weight="normal" text-decoration="none" x="1243.42236328125" y="515.5"></text></g></g><g transform="translate(10,10) scale(1,1)"><g><path fill="none" stroke="none"/><text fill="#000000" stroke="none" font-family="Times New Roman" font-size="14px" font-style="normal" font-weight="bold" text-decoration="none" x="1177.5" y="536.5">LogEntry Component</text></g></g><g transform="translate(10,10) scale(1,1)"><g><path fill="none" stroke="none"/><text fill="#000000" stroke="none" font-family="Times New Roman" font-size="14px" font-style="normal" font-weight="normal" text-decoration="none" x="1199.6826171875" y="552.5">(from Logging)</text></g></g><g transform="translate(10,10) scale(1,1)"><rect fill="#C0C0C0" stroke="none" x="129" y="767" width="193.220703125" height="55" opacity="0.2"/></g><g transform="translate(10,10) scale(1,1)"><rect fill="#ffffff" stroke="none" x="112" y="760" width="203.220703125" height="55"/></g><g transform="translate(10,10) scale(1,1)"><path fill="none" stroke="#000000" d="M 112 760 L 315.220703125 760 L 315.220703125 815 L 112 815 L 112 760 Z Z" stroke-miterlimit="10"/></g><g transform="translate(10,10) scale(1,1)"><rect fill="#ffffff" stroke="none" x="295.220703125" y="770" width="13" height="16"/></g><g transform="translate(10,10) scale(1,1)"><path fill="none" stroke="#000000" d="M 295.220703125 770 L 308.220703125 770 L 308.220703125 786 L 295.220703125 786 L 295.220703125 770 Z Z" stroke-miterlimit="10"/></g><g transform="translate(10,10) scale(1,1)"><rect fill="#ffffff" stroke="none" x="292.220703125" y="773" width="7" height="4"/></g><g transform="translate(10,10) scale(1,1)"><path fill="none" stroke="#000000" d="M 292.220703125 773 L 299.220703125 773 L 299.220703125 777 L 292.220703125 777 L 292.220703125 773 Z Z" stroke-miterlimit="10"/></g><g transform="translate(10,10) scale(1,1)"><rect fill="#ffffff" stroke="none" x="292.220703125" y="779" width="7" height="4"/></g><g transform="translate(10,10) scale(1,1)"><path fill="none" stroke="#000000" d="M 292.220703125 779 L 299.220703125 779 L 299.220703125 783 L 292.220703125 783 L 292.220703125 779 Z Z" stroke-miterlimit="10"/></g><g transform="translate(10,10) scale(1,1)"><g><path fill="none" stroke="none"/><text fill="#000000" stroke="none" font-family="Times New Roman" font-size="14px" font-style="normal" font-weight="normal" text-decoration="none" x="201.6103515625" y="771.5"></text></g></g><g transform="translate(10,10) scale(1,1)"><g><path fill="none" stroke="none"/><text fill="#000000" stroke="none" font-family="Times New Roman" font-size="14px" font-style="normal" font-weight="bold" text-decoration="none" x="121.5" y="792.5">Logger Config Component</text></g></g><g transform="translate(10,10) scale(1,1)"><g><path fill="none" stroke="none"/><text fill="#000000" stroke="none" font-family="Times New Roman" font-size="14px" font-style="normal" font-weight="normal" text-decoration="none" x="157.87060546875" y="808.5">(from Logging)</text></g></g><g transform="translate(10,10) scale(1,1)"><rect fill="#C0C0C0" stroke="none" x="521" y="511" width="197.8828125" height="55" opacity="0.2"/></g><g transform="translate(10,10) scale(1,1)"><rect fill="#ffffff" stroke="none" x="504" y="504" width="207.8828125" height="55"/></g><g transform="translate(10,10) scale(1,1)"><path fill="none" stroke="#000000" d="M 504 504 L 711.8828125 504 L 711.8828125 559 L 504 559 L 504 504 Z Z" stroke-miterlimit="10"/></g><g transform="translate(10,10) scale(1,1)"><rect fill="#ffffff" stroke="none" x="691.8828125" y="514" width="13" height="16"/></g><g transform="translate(10,10) scale(1,1)"><path fill="none" stroke="#000000" d="M 691.8828125 514 L 704.8828125 514 L 704.8828125 530 L 691.8828125 530 L 691.8828125 514 Z Z" stroke-miterlimit="10"/></g><g transform="translate(10,10) scale(1,1)"><rect fill="#ffffff" stroke="none" x="688.8828125" y="517" width="7" height="4"/></g><g transform="translate(10,10) scale(1,1)"><path fill="none" stroke="#000000" d="M 688.8828125 517 L 695.8828125 517 L 695.8828125 521 L 688.8828125 521 L 688.8828125 517 Z Z" stroke-miterlimit="10"/></g><g transform="translate(10,10) scale(1,1)"><rect fill="#ffffff" stroke="none" x="688.8828125" y="523" width="7" height="4"/></g><g transform="translate(10,10) scale(1,1)"><path fill="none" stroke="#000000" d="M 688.8828125 523 L 695.8828125 523 L 695.8828125 527 L 688.8828125 527 L 688.8828125 523 Z Z" stroke-miterlimit="10"/></g><g transform="translate(10,10) scale(1,1)"><g><path fill="none" stroke="none"/><text fill="#000000" stroke="none" font-family="Times New Roman" font-size="14px" font-style="normal" font-weight="normal" text-decoration="none" x="595.94140625" y="515.5"></text></g></g><g transform="translate(10,10) scale(1,1)"><g><path fill="none" stroke="none"/><text fill="#000000" stroke="none" font-family="Times New Roman" font-size="14px" font-style="normal" font-weight="bold" text-decoration="none" x="513.5" y="536.5">Logger Subject Component</text></g></g><g transform="translate(10,10) scale(1,1)"><g><path fill="none" stroke="none"/><text fill="#000000" stroke="none" font-family="Times New Roman" font-size="14px" font-style="normal" font-weight="normal" text-decoration="none" x="552.20166015625" y="552.5">(from Logging)</text></g></g><g transform="translate(10,10) scale(1,1)"><rect fill="#C0C0C0" stroke="none" x="385" y="767" width="185.9541015625" height="55" opacity="0.2"/></g><g transform="translate(10,10) scale(1,1)"><rect fill="#ffffff" stroke="none" x="368" y="760" width="195.9541015625" height="55"/></g><g transform="translate(10,10) scale(1,1)"><path fill="none" stroke="#000000" d="M 368 760 L 563.9541015625 760 L 563.9541015625 815 L 368 815 L 368 760 Z Z" stroke-miterlimit="10"/></g><g transform="translate(10,10) scale(1,1)"><rect fill="#ffffff" stroke="none" x="543.9541015625" y="770" width="13" height="16"/></g><g transform="translate(10,10) scale(1,1)"><path fill="none" stroke="#000000" d="M 543.9541015625 770 L 556.9541015625 770 L 556.9541015625 786 L 543.9541015625 786 L 543.9541015625 770 Z Z" stroke-miterlimit="10"/></g><g transform="translate(10,10) scale(1,1)"><rect fill="#ffffff" stroke="none" x="540.9541015625" y="773" width="7" height="4"/></g><g transform="translate(10,10) scale(1,1)"><path fill="none" stroke="#000000" d="M 540.9541015625 773 L 547.9541015625 773 L 547.9541015625 777 L 540.9541015625 777 L 540.9541015625 773 Z Z" stroke-miterlimit="10"/></g><g transform="translate(10,10) scale(1,1)"><rect fill="#ffffff" stroke="none" x="540.9541015625" y="779" width="7" height="4"/></g><g transform="translate(10,10) scale(1,1)"><path fill="none" stroke="#000000" d="M 540.9541015625 779 L 547.9541015625 779 L 547.9541015625 783 L 540.9541015625 783 L 540.9541015625 779 Z Z" stroke-miterlimit="10"/></g><g transform="translate(10,10) scale(1,1)"><g><path fill="none" stroke="none"/><text fill="#000000" stroke="none" font-family="Times New Roman" font-size="14px" font-style="normal" font-weight="normal" text-decoration="none" x="453.97705078125" y="771.5"></text></g></g><g transform="translate(10,10) scale(1,1)"><g><path fill="none" stroke="none"/><text fill="#000000" stroke="none" font-family="Times New Roman" font-size="14px" font-style="normal" font-weight="bold" text-decoration="none" x="377.5" y="792.5">File Explorer Component</text></g></g><g transform="translate(10,10) scale(1,1)"><g><path fill="none" stroke="none"/><text fill="#000000" stroke="none" font-family="Times New Roman" font-size="14px" font-style="normal" font-weight="normal" text-decoration="none" x="392.9423828125" y="808.5">(from OS Interaction)</text></g></g><g transform="translate(10,10) scale(1,1)"><rect fill="#C0C0C0" stroke="none" x="881" y="935" width="202.5244140625" height="55" opacity="0.2"/></g><g transform="translate(10,10) scale(1,1)"><rect fill="#ffffff" stroke="none" x="864" y="928" width="212.5244140625" height="55"/></g><g transform="translate(10,10) scale(1,1)"><path fill="none" stroke="#000000" d="M 864 928 L 1076.5244140625 928 L 1076.5244140625 983 L 864 983 L 864 928 Z Z" stroke-miterlimit="10"/></g><g transform="translate(10,10) scale(1,1)"><rect fill="#ffffff" stroke="none" x="1056.5244140625" y="938" width="13" height="16"/></g><g transform="translate(10,10) scale(1,1)"><path fill="none" stroke="#000000" d="M 1056.5244140625 938 L 1069.5244140625 938 L 1069.5244140625 954 L 1056.5244140625 954 L 1056.5244140625 938 Z Z" stroke-miterlimit="10"/></g><g transform="translate(10,10) scale(1,1)"><rect fill="#ffffff" stroke="none" x="1053.5244140625" y="941" width="7" height="4"/></g><g transform="translate(10,10) scale(1,1)"><path fill="none" stroke="#000000" d="M 1053.5244140625 941 L 1060.5244140625 941 L 1060.5244140625 945 L 1053.5244140625 945 L 1053.5244140625 941 Z Z" stroke-miterlimit="10"/></g><g transform="translate(10,10) scale(1,1)"><rect fill="#ffffff" stroke="none" x="1053.5244140625" y="947" width="7" height="4"/></g><g transform="translate(10,10) scale(1,1)"><path fill="none" stroke="#000000" d="M 1053.5244140625 947 L 1060.5244140625 947 L 1060.5244140625 951 L 1053.5244140625 951 L 1053.5244140625 947 Z Z" stroke-miterlimit="10"/></g><g transform="translate(10,10) scale(1,1)"><g><path fill="none" stroke="none"/><text fill="#000000" stroke="none" font-family="Times New Roman" font-size="14px" font-style="normal" font-weight="normal" text-decoration="none" x="958.26220703125" y="939.5"></text></g></g><g transform="translate(10,10) scale(1,1)"><g><path fill="none" stroke="none"/><text fill="#000000" stroke="none" font-family="Times New Roman" font-size="14px" font-style="normal" font-weight="bold" text-decoration="none" x="873.5" y="960.5">Query Interface Component</text></g></g><g transform="translate(10,10) scale(1,1)"><g><path fill="none" stroke="none"/><text fill="#000000" stroke="none" font-family="Times New Roman" font-size="14px" font-style="normal" font-weight="normal" text-decoration="none" x="888.6689453125" y="976.5">(from Query Processing)</text></g></g><g transform="translate(10,10) scale(1,1)"><rect fill="#C0C0C0" stroke="none" x="857" y="735" width="235.7333984375" height="55" opacity="0.2"/></g><g transform="translate(10,10) scale(1,1)"><rect fill="#ffffff" stroke="none" x="840" y="728" width="245.7333984375" height="55"/></g><g transform="translate(10,10) scale(1,1)"><path fill="none" stroke="#000000" d="M 840 728 L 1085.7333984375 728 L 1085.7333984375 783 L 840 783 L 840 728 Z Z" stroke-miterlimit="10"/></g><g transform="translate(10,10) scale(1,1)"><rect fill="#ffffff" stroke="none" x="1065.7333984375" y="738" width="13" height="16"/></g><g transform="translate(10,10) scale(1,1)"><path fill="none" stroke="#000000" d="M 1065.7333984375 738 L 1078.7333984375 738 L 1078.7333984375 754 L 1065.7333984375 754 L 1065.7333984375 738 Z Z" stroke-miterlimit="10"/></g><g transform="translate(10,10) scale(1,1)"><rect fill="#ffffff" stroke="none" x="1062.7333984375" y="741" width="7" height="4"/></g><g transform="translate(10,10) scale(1,1)"><path fill="none" stroke="#000000" d="M 1062.7333984375 741 L 1069.7333984375 741 L 1069.7333984375 745 L 1062.7333984375 745 L 1062.7333984375 741 Z Z" stroke-miterlimit="10"/></g><g transform="translate(10,10) scale(1,1)"><rect fill="#ffffff" stroke="none" x="1062.7333984375" y="747" width="7" height="4"/></g><g transform="translate(10,10) scale(1,1)"><path fill="none" stroke="#000000" d="M 1062.7333984375 747 L 1069.7333984375 747 L 1069.7333984375 751 L 1062.7333984375 751 L 1062.7333984375 747 Z Z" stroke-miterlimit="10"/></g><g transform="translate(10,10) scale(1,1)"><g><path fill="none" stroke="none"/><text fill="#000000" stroke="none" font-family="Times New Roman" font-size="14px" font-style="normal" font-weight="normal" text-decoration="none" x="950.86669921875" y="739.5"></text></g></g><g transform="translate(10,10) scale(1,1)"><g><path fill="none" stroke="none"/><text fill="#000000" stroke="none" font-family="Times New Roman" font-size="14px" font-style="normal" font-weight="bold" text-decoration="none" x="849.5" y="760.5">Transaction Manager Component</text></g></g><g transform="translate(10,10) scale(1,1)"><g><path fill="none" stroke="none"/><text fill="#000000" stroke="none" font-family="Times New Roman" font-size="14px" font-style="normal" font-weight="normal" text-decoration="none" x="881.2734375" y="776.5">(from Query Processing)</text></g></g><g transform="translate(10,10) scale(1,1)"><path fill="none" stroke="#000000" d="M 759 631 L 903 560" stroke-miterlimit="10" stroke-dasharray="3"/></g><g transform="translate(10,10) scale(1,1)"><path fill="none" stroke="#000000" d="M 895.7465981754018 568.2697135362064 L 903 560 L 892.023499863234 560.7186409030774" stroke-miterlimit="10"/></g><g transform="translate(10,10) scale(1,1)"><path fill="none" stroke="#000000" d="M 1161 631 L 1020 560" stroke-miterlimit="10" stroke-dasharray="3"/></g><g transform="translate(10,10) scale(1,1)"><path fill="none" stroke="#000000" d="M 1030.9700732727542 560.810859044719 L 1020 560 L 1027.1836492721707 568.330377130385" stroke-miterlimit="10"/></g><g transform="translate(10,10) scale(1,1)"><path fill="none" stroke="#000000" d="M 847 531 L 713 531" stroke-miterlimit="10" stroke-dasharray="3"/></g><g transform="translate(10,10) scale(1,1)"><path fill="none" stroke="#000000" d="M 723.1626748576241 526.790482243984 L 713 531 L 723.1626748576241 535.209517756016" stroke-miterlimit="10"/></g><g transform="translate(10,10) scale(1,1)"><path fill="none" stroke="#000000" d="M 1078 531 L 1167 531" stroke-miterlimit="10" stroke-dasharray="3"/></g><g transform="translate(10,10) scale(1,1)"><path fill="none" stroke="#000000" d="M 1156.837325142376 535.209517756016 L 1167 531 L 1156.837325142376 526.790482243984" stroke-miterlimit="10"/></g><g transform="translate(10,10) scale(1,1)"><path fill="none" stroke="#000000" d="M 215 632 L 215 536 L 504 536" stroke-miterlimit="10" stroke-dasharray="3"/></g><g transform="translate(10,10) scale(1,1)"><path fill="none" stroke="#000000" d="M 493.83732514237585 540.209517756016 L 504 536 L 493.83732514237585 531.790482243984" stroke-miterlimit="10"/></g><g transform="translate(10,10) scale(1,1)"><path fill="none" stroke="#000000" d="M 213 688 L 213 759" stroke-miterlimit="10" stroke-dasharray="3"/></g><g transform="translate(10,10) scale(1,1)"><path fill="none" stroke="#000000" d="M 208.790482243984 748.8373251423759 L 213 759 L 217.209517756016 748.8373251423759" stroke-miterlimit="10"/></g><g transform="translate(10,10) scale(1,1)"><path fill="none" stroke="#000000" d="M 270 688 L 410 759" stroke-miterlimit="10" stroke-dasharray="3"/></g><g transform="translate(10,10) scale(1,1)"><path fill="none" stroke="#000000" d="M 399.03229493377523 758.157714074493 L 410 759 L 402.84024746324235 750.6490752839944" stroke-miterlimit="10"/></g><g transform="translate(10,10) scale(1,1)"><path fill="none" stroke="#000000" d="M 1355 656 L 1560 656 L 1560 607" stroke-miterlimit="10" stroke-dasharray="3"/></g><g transform="translate(10,10) scale(1,1)"><path fill="none" stroke="#000000" d="M 1564.2095177560159 617.1626748576241 L 1560 607 L 1555.7904822439841 617.1626748576241" stroke-miterlimit="10"/></g><g transform="translate(10,10) scale(1,1)"><path fill="none" stroke="#000000" d="M 1355 656 L 1560 656 L 1560 720" stroke-miterlimit="10" stroke-dasharray="3"/></g><g transform="translate(10,10) scale(1,1)"><path fill="none" stroke="#000000" d="M 1555.7904822439841 709.8373251423759 L 1560 720 L 1564.2095177560159 709.8373251423759" stroke-miterlimit="10"/></g><g transform="translate(10,10) scale(1,1)"><path fill="none" stroke="#000000" d="M 704 687 L 704 832" stroke-miterlimit="10" stroke-dasharray="3"/></g><g transform="translate(10,10) scale(1,1)"><path fill="none" stroke="#000000" d="M 699.790482243984 821.8373251423759 L 704 832 L 708.209517756016 821.8373251423759" stroke-miterlimit="10"/></g><g transform="translate(10,10) scale(1,1)"><path fill="none" stroke="#000000" d="M 728 688 L 945 927" stroke-miterlimit="10" stroke-dasharray="3"/></g><g transform="translate(10,10) scale(1,1)"><path fill="none" stroke="#000000" d="M 935.0519868749848 922.3056379704452 L 945 927 L 941.2851076844119 916.6462772355262" stroke-miterlimit="10"/></g><g transform="translate(10,10) scale(1,1)"><path fill="none" stroke="#000000" d="M 1193 688 L 993 927" stroke-miterlimit="10" stroke-dasharray="3"/></g><g transform="translate(10,10) scale(1,1)"><path fill="none" stroke="#000000" d="M 996.293711481798 916.5046932072154 L 993 927 L 1002.7503083278626 921.9077031202402" stroke-miterlimit="10"/></g><g transform="translate(10,10) scale(1,1)"><path fill="none" stroke="#000000" d="M 781 688 L 886 727" stroke-miterlimit="10" stroke-dasharray="3"/></g><g transform="translate(10,10) scale(1,1)"><path fill="none" stroke="#000000" d="M 875.0075543784728 727.4076018372971 L 886 727 L 877.938949136017 719.5153851823706" stroke-miterlimit="10"/></g><g transform="translate(10,10) scale(1,1)"><path fill="none" stroke="#000000" d="M 1140 688 L 1036 727" stroke-miterlimit="10" stroke-dasharray="3"/></g><g transform="translate(10,10) scale(1,1)"><path fill="none" stroke="#000000" d="M 1044.037548629421 719.4901523297945 L 1036 727 L 1046.9936693532607 727.3731409266999" stroke-miterlimit="10"/></g><g transform="translate(10,10) scale(1,1)"><rect fill="#C0C0C0" stroke="none" x="913" y="175" width="110.0068359375" height="39" opacity="0.2"/></g><g transform="translate(10,10) scale(1,1)"><rect fill="#a3ffa3" stroke="none" x="896" y="168" width="120.0068359375" height="39"/></g><g transform="translate(10,10) scale(1,1)"><path fill="none" stroke="#000000" d="M 896 168 L 1016.0068359375 168 L 1016.0068359375 207 L 896 207 L 896 168 Z Z" stroke-miterlimit="10"/></g><g transform="translate(10,10) scale(1,1)"><rect fill="#a3ffa3" stroke="none" x="996.0068359375" y="178" width="13" height="16"/></g><g transform="translate(10,10) scale(1,1)"><path fill="none" stroke="#000000" d="M 996.0068359375 178 L 1009.0068359375 178 L 1009.0068359375 194 L 996.0068359375 194 L 996.0068359375 178 Z Z" stroke-miterlimit="10"/></g><g transform="translate(10,10) scale(1,1)"><rect fill="#a3ffa3" stroke="none" x="993.0068359375" y="181" width="7" height="4"/></g><g transform="translate(10,10) scale(1,1)"><path fill="none" stroke="#000000" d="M 993.0068359375 181 L 1000.0068359375 181 L 1000.0068359375 185 L 993.0068359375 185 L 993.0068359375 181 Z Z" stroke-miterlimit="10"/></g><g transform="translate(10,10) scale(1,1)"><rect fill="#a3ffa3" stroke="none" x="993.0068359375" y="187" width="7" height="4"/></g><g transform="translate(10,10) scale(1,1)"><path fill="none" stroke="#000000" d="M 993.0068359375 187 L 1000.0068359375 187 L 1000.0068359375 191 L 993.0068359375 191 L 993.0068359375 187 Z Z" stroke-miterlimit="10"/></g><g transform="translate(10,10) scale(1,1)"><g><path fill="none" stroke="none"/><text fill="#000000" stroke="none" font-family="Times New Roman" font-size="14px" font-style="normal" font-weight="normal" text-decoration="none" x="944.00341796875" y="179.5"></text></g></g><g transform="translate(10,10) scale(1,1)"><g><path fill="none" stroke="none"/><text fill="#000000" stroke="none" font-family="Times New Roman" font-size="14px" font-style="normal" font-weight="bold" text-decoration="none" x="914.6328125" y="200.5">Your App</text></g></g><g transform="translate(10,10) scale(1,1)"><rect fill="#C0C0C0" stroke="none" x="871" y="271" width="186.8828125" height="39" opacity="0.2"/></g><g transform="translate(10,10) scale(1,1)"><rect fill="#a3ffa3" stroke="none" x="864" y="264" width="186.8828125" height="39"/></g><g transform="translate(10,10) scale(1,1)"><path fill="none" stroke="#000000" d="M 864 264 L 1050.8828125 264 L 1050.8828125 303 L 864 303 L 864 264 Z Z" stroke-miterlimit="10"/></g><g transform="translate(10,10) scale(1,1)"><path fill="#a3ffa3" stroke="none" d="M 1024.8828125 281 C 1024.8828125 276.0294368 1028.9122493 272 1033.8828125 272 C 1038.8533757 272 1042.8828125 276.0294368 1042.8828125 281 C 1042.8828125 285.9705632 1038.8533757 290 1033.8828125 290 C 1028.9122493 290 1024.8828125 285.9705632 1024.8828125 281 Z"/></g><g transform="translate(10,10) scale(1,1)"><path fill="none" stroke="#000000" d="M 1024.8828125 281 C 1024.8828125 276.0294368 1028.9122493 272 1033.8828125 272 C 1038.8533757 272 1042.8828125 276.0294368 1042.8828125 281 C 1042.8828125 285.9705632 1038.8533757 290 1033.8828125 290 C 1028.9122493 290 1024.8828125 285.9705632 1024.8828125 281 Z" stroke-miterlimit="10"/></g><g transform="translate(10,10) scale(1,1)"><g><path fill="none" stroke="none"/><text fill="#000000" stroke="none" font-family="Times New Roman" font-size="14px" font-style="normal" font-weight="normal" text-decoration="none" x="913.9619140625" y="280.5">«interface»</text></g></g><g transform="translate(10,10) scale(1,1)"><g><path fill="none" stroke="none"/><text fill="#000000" stroke="none" font-family="Times New Roman" font-size="14px" font-style="normal" font-weight="bold" text-decoration="none" x="873.5" y="296.5">YourBoundaryInterface</text></g></g><g transform="translate(10,10) scale(1,1)"><path fill="none" stroke="#000000" d="M 956 207 L 956 264" stroke-miterlimit="10" stroke-dasharray="3"/></g><g transform="translate(10,10) scale(1,1)"><path fill="#FFFFFF" stroke="none" d="M 947.580964487968 243.6746502847517 L 956 264 L 964.419035512032 243.6746502847517"/></g><g transform="translate(10,10) scale(1,1)"><path fill="none" stroke="#000000" d="M 947.580964487968 243.6746502847517 L 956 264 L 964.419035512032 243.6746502847517 L 947.580964487968 243.6746502847517" stroke-miterlimit="10"/></g><g transform="translate(10,10) scale(1,1)"><path fill="none" stroke="#000000" d="M 958 303 L 958 392" stroke-miterlimit="10" stroke-dasharray="3"/></g><g transform="translate(10,10) scale(1,1)"><path fill="none" stroke="#000000" d="M 953.790482243984 381.83732514237585 L 958 392 L 962.209517756016 381.83732514237585" stroke-miterlimit="10"/></g><g transform="translate(10,10) scale(1,1)"><g><path fill="none" stroke="none"/><text fill="#000000" stroke="none" font-family="Times New Roman" font-size="20px" font-style="normal" font-weight="normal" text-decoration="none" x="5" y="18">0.1.0</text></g></g><g transform="translate(10,10) scale(1,1)"><g><path fill="none" stroke="none"/><text fill="#000000" stroke="none" font-family="Times New Roman" font-size="20px" font-style="normal" font-weight="normal" text-decoration="none" x="5" y="41">kichiro-kun</text></g></g></g></svg>