<svg version="1.1" xmlns="http://www.w3.org/2000/svg" xmlns:xlink="http://www.w3.org/1999/xlink" width="1950.5966796875" height="1348"><defs/><g><g transform="translate(10,10) scale(1,1)"><path fill="none" stroke="#ff0000" d="M 208 352 L 1696 352 L 1696 1328 L 208 1328 L 208 352" stroke-miterlimit="10"/></g><g transform="translate(10,10) scale(1,1)"><path fill="#ffffff" stroke="none" d="M 208 352 L 208 375 L 224 375 L 235.5 363.5 L 235.5 352 L 208 352"/></g><g transform="translate(10,10) scale(1,1)"><path fill="none" stroke="#ff0000" d="M 208 352 L 208 375 L 224 375 L 235.5 363.5 L 235.5 352 L 208 352 L 208 352" stroke-miterlimit="10"/></g><g transform="translate(10,10) scale(1,1)"><g><path fill="none" stroke="none"/><text fill="#000000" stroke="none" font-family="Times New Roman" font-size="14px" font-style="normal" font-weight="normal" text-decoration="none" x="219" y="363.5"></text></g></g><g transform="translate(10,10) scale(1,1)"><g><path fill="none" stroke="none"/><text fill="#000000" stroke="none" font-family="Times New Roman" font-size="14px" font-style="normal" font-weight="bold" text-decoration="none" x="213" y="363.5"></text></g></g><g transform="translate(10,10) scale(1,1)"><path fill="none" stroke="#0000ff" d="M 496 392 L 1016 392 L 1016 720 L 496 720 L 496 392" stroke-miterlimit="10"/></g><g transform="translate(10,10) scale(1,1)"><path fill="#ffffff" stroke="none" d="M 496 392 L 496 415 L 580.44140625 415 L 591.94140625 403.5 L 591.94140625 392 L 496 392"/></g><g transform="translate(10,10) scale(1,1)"><path fill="none" stroke="#0000ff" d="M 496 392 L 496 415 L 580.44140625 415 L 591.94140625 403.5 L 591.94140625 392 L 496 392 L 496 392" stroke-miterlimit="10"/></g><g transform="translate(10,10) scale(1,1)"><g><path fill="none" stroke="none"/><text fill="#0000ff" stroke="none" font-family="Times New Roman" font-size="14px" font-style="normal" font-weight="normal" text-decoration="none" x="528" y="408.5">Logging</text></g></g><g transform="translate(10,10) scale(1,1)"><g><path fill="none" stroke="none"/><text fill="#0000ff" stroke="none" font-family="Times New Roman" font-size="14px" font-style="normal" font-weight="bold" text-decoration="none" x="500.2138671875" y="408.5">pkg</text></g></g><g transform="translate(10,10) scale(1,1)"><path fill="none" stroke="#00a9ff" d="M 216 496 L 456 496 L 456 616 L 216 616 L 216 496" stroke-miterlimit="10"/></g><g transform="translate(10,10) scale(1,1)"><path fill="#ffffff" stroke="none" d="M 216 496 L 216 519 L 335.03125 519 L 346.53125 507.5 L 346.53125 496 L 216 496"/></g><g transform="translate(10,10) scale(1,1)"><path fill="none" stroke="#00a9ff" d="M 216 496 L 216 519 L 335.03125 519 L 346.53125 507.5 L 346.53125 496 L 216 496 L 216 496" stroke-miterlimit="10"/></g><g transform="translate(10,10) scale(1,1)"><g><path fill="none" stroke="none"/><text fill="#00a9ff" stroke="none" font-family="Times New Roman" font-size="14px" font-style="normal" font-weight="normal" text-decoration="none" x="248" y="512.5">OS Interaction</text></g></g><g transform="translate(10,10) scale(1,1)"><g><path fill="none" stroke="none"/><text fill="#00a9ff" stroke="none" font-family="Times New Roman" font-size="14px" font-style="normal" font-weight="bold" text-decoration="none" x="220.2138671875" y="512.5">pkg</text></g></g><g transform="translate(10,10) scale(1,1)"><path fill="none" stroke="#00ad00" d="M 232 760 L 672 760 L 672 1088 L 232 1088 L 232 760" stroke-miterlimit="10"/></g><g transform="translate(10,10) scale(1,1)"><path fill="#ffffff" stroke="none" d="M 232 760 L 232 783 L 353.35546875 783 L 364.85546875 771.5 L 364.85546875 760 L 232 760"/></g><g transform="translate(10,10) scale(1,1)"><path fill="none" stroke="#00ad00" d="M 232 760 L 232 783 L 353.35546875 783 L 364.85546875 771.5 L 364.85546875 760 L 232 760 L 232 760" stroke-miterlimit="10"/></g><g transform="translate(10,10) scale(1,1)"><g><path fill="none" stroke="none"/><text fill="#00ad00" stroke="none" font-family="Times New Roman" font-size="14px" font-style="normal" font-weight="normal" text-decoration="none" x="264" y="776.5">DataBase Core</text></g></g><g transform="translate(10,10) scale(1,1)"><g><path fill="none" stroke="none"/><text fill="#00ad00" stroke="none" font-family="Times New Roman" font-size="14px" font-style="normal" font-weight="bold" text-decoration="none" x="236.2138671875" y="776.5">pkg</text></g></g><g transform="translate(10,10) scale(1,1)"><path fill="none" stroke="#ff0080" d="M 296 1128 L 568 1128 L 568 1280 L 296 1280 L 296 1128" stroke-miterlimit="10"/></g><g transform="translate(10,10) scale(1,1)"><path fill="#ffffff" stroke="none" d="M 296 1128 L 296 1151 L 398.7001953125 1151 L 410.2001953125 1139.5 L 410.2001953125 1128 L 296 1128"/></g><g transform="translate(10,10) scale(1,1)"><path fill="none" stroke="#ff0080" d="M 296 1128 L 296 1151 L 398.7001953125 1151 L 410.2001953125 1139.5 L 410.2001953125 1128 L 296 1128 L 296 1128" stroke-miterlimit="10"/></g><g transform="translate(10,10) scale(1,1)"><g><path fill="none" stroke="none"/><text fill="#ff00ff" stroke="none" font-family="Times New Roman" font-size="14px" font-style="normal" font-weight="normal" text-decoration="none" x="328" y="1144.5">Query Core</text></g></g><g transform="translate(10,10) scale(1,1)"><g><path fill="none" stroke="none"/><text fill="#ff00ff" stroke="none" font-family="Times New Roman" font-size="14px" font-style="normal" font-weight="bold" text-decoration="none" x="300.2138671875" y="1144.5">pkg</text></g></g><g transform="translate(10,10) scale(1,1)"><path fill="none" stroke="#ffbf00" d="M 664 1128 L 936 1128 L 936 1256 L 664 1256 L 664 1128" stroke-miterlimit="10"/></g><g transform="translate(10,10) scale(1,1)"><path fill="#ffffff" stroke="none" d="M 664 1128 L 664 1151 L 847.58984375 1151 L 859.08984375 1139.5 L 859.08984375 1128 L 664 1128"/></g><g transform="translate(10,10) scale(1,1)"><path fill="none" stroke="#ffbf00" d="M 664 1128 L 664 1151 L 847.58984375 1151 L 859.08984375 1139.5 L 859.08984375 1128 L 664 1128 L 664 1128" stroke-miterlimit="10"/></g><g transform="translate(10,10) scale(1,1)"><g><path fill="none" stroke="none"/><text fill="#ffbf00" stroke="none" font-family="Times New Roman" font-size="14px" font-style="normal" font-weight="normal" text-decoration="none" x="696" y="1144.5">Connection Configuration</text></g></g><g transform="translate(10,10) scale(1,1)"><g><path fill="none" stroke="none"/><text fill="#ffbf00" stroke="none" font-family="Times New Roman" font-size="14px" font-style="normal" font-weight="bold" text-decoration="none" x="668.2138671875" y="1144.5">pkg</text></g></g><g transform="translate(10,10) scale(1,1)"><path fill="none" stroke="#840084" d="M 1064 784 L 1672 784 L 1672 1152 L 1064 1152 L 1064 784" stroke-miterlimit="10"/></g><g transform="translate(10,10) scale(1,1)"><path fill="#ffffff" stroke="none" d="M 1064 784 L 1064 807 L 1204.8173828125 807 L 1216.3173828125 795.5 L 1216.3173828125 784 L 1064 784"/></g><g transform="translate(10,10) scale(1,1)"><path fill="none" stroke="#840084" d="M 1064 784 L 1064 807 L 1204.8173828125 807 L 1216.3173828125 795.5 L 1216.3173828125 784 L 1064 784 L 1064 784" stroke-miterlimit="10"/></g><g transform="translate(10,10) scale(1,1)"><g><path fill="none" stroke="none"/><text fill="#840084" stroke="none" font-family="Times New Roman" font-size="14px" font-style="normal" font-weight="normal" text-decoration="none" x="1096" y="800.5">DBMS Interaction</text></g></g><g transform="translate(10,10) scale(1,1)"><g><path fill="none" stroke="none"/><text fill="#840084" stroke="none" font-family="Times New Roman" font-size="14px" font-style="normal" font-weight="bold" text-decoration="none" x="1068.2138671875" y="800.5">pkg</text></g></g><g transform="translate(10,10) scale(1,1)"><rect fill="#C0C0C0" stroke="none" x="1281" y="191" width="110.0068359375" height="39" opacity="0.2"/></g><g transform="translate(10,10) scale(1,1)"><rect fill="#a3ffa3" stroke="none" x="1264" y="184" width="120.0068359375" height="39"/></g><g transform="translate(10,10) scale(1,1)"><path fill="none" stroke="#000000" d="M 1264 184 L 1384.0068359375 184 L 1384.0068359375 223 L 1264 223 L 1264 184 Z Z" stroke-miterlimit="10"/></g><g transform="translate(10,10) scale(1,1)"><rect fill="#a3ffa3" stroke="none" x="1364.0068359375" y="194" width="13" height="16"/></g><g transform="translate(10,10) scale(1,1)"><path fill="none" stroke="#000000" d="M 1364.0068359375 194 L 1377.0068359375 194 L 1377.0068359375 210 L 1364.0068359375 210 L 1364.0068359375 194 Z Z" stroke-miterlimit="10"/></g><g transform="translate(10,10) scale(1,1)"><rect fill="#a3ffa3" stroke="none" x="1361.0068359375" y="197" width="7" height="4"/></g><g transform="translate(10,10) scale(1,1)"><path fill="none" stroke="#000000" d="M 1361.0068359375 197 L 1368.0068359375 197 L 1368.0068359375 201 L 1361.0068359375 201 L 1361.0068359375 197 Z Z" stroke-miterlimit="10"/></g><g transform="translate(10,10) scale(1,1)"><rect fill="#a3ffa3" stroke="none" x="1361.0068359375" y="203" width="7" height="4"/></g><g transform="translate(10,10) scale(1,1)"><path fill="none" stroke="#000000" d="M 1361.0068359375 203 L 1368.0068359375 203 L 1368.0068359375 207 L 1361.0068359375 207 L 1361.0068359375 203 Z Z" stroke-miterlimit="10"/></g><g transform="translate(10,10) scale(1,1)"><g><path fill="none" stroke="none"/><text fill="#000000" stroke="none" font-family="Times New Roman" font-size="14px" font-style="normal" font-weight="normal" text-decoration="none" x="1312.00341796875" y="195.5"></text></g></g><g transform="translate(10,10) scale(1,1)"><g><path fill="none" stroke="none"/><text fill="#000000" stroke="none" font-family="Times New Roman" font-size="14px" font-style="normal" font-weight="bold" text-decoration="none" x="1282.6328125" y="216.5">Your App</text></g></g><g transform="translate(10,10) scale(1,1)"><rect fill="#C0C0C0" stroke="none" x="1239" y="287" width="186.8828125" height="39" opacity="0.2"/></g><g transform="translate(10,10) scale(1,1)"><rect fill="#a3ffa3" stroke="none" x="1232" y="280" width="186.8828125" height="39"/></g><g transform="translate(10,10) scale(1,1)"><path fill="none" stroke="#000000" d="M 1232 280 L 1418.8828125 280 L 1418.8828125 319 L 1232 319 L 1232 280 Z Z" stroke-miterlimit="10"/></g><g transform="translate(10,10) scale(1,1)"><path fill="#a3ffa3" stroke="none" d="M 1392.8828125 297 C 1392.8828125 292.0294368 1396.9122493 288 1401.8828125 288 C 1406.8533757 288 1410.8828125 292.0294368 1410.8828125 297 C 1410.8828125 301.9705632 1406.8533757 306 1401.8828125 306 C 1396.9122493 306 1392.8828125 301.9705632 1392.8828125 297 Z"/></g><g transform="translate(10,10) scale(1,1)"><path fill="none" stroke="#000000" d="M 1392.8828125 297 C 1392.8828125 292.0294368 1396.9122493 288 1401.8828125 288 C 1406.8533757 288 1410.8828125 292.0294368 1410.8828125 297 C 1410.8828125 301.9705632 1406.8533757 306 1401.8828125 306 C 1396.9122493 306 1392.8828125 301.9705632 1392.8828125 297 Z" stroke-miterlimit="10"/></g><g transform="translate(10,10) scale(1,1)"><g><path fill="none" stroke="none"/><text fill="#000000" stroke="none" font-family="Times New Roman" font-size="14px" font-style="normal" font-weight="normal" text-decoration="none" x="1281.9619140625" y="296.5">«interface»</text></g></g><g transform="translate(10,10) scale(1,1)"><g><path fill="none" stroke="none"/><text fill="#000000" stroke="none" font-family="Times New Roman" font-size="14px" font-style="normal" font-weight="bold" text-decoration="none" x="1241.5" y="312.5">YourBoundaryInterface</text></g></g><g transform="translate(10,10) scale(1,1)"><path fill="none" stroke="#000000" d="M 1324 223 L 1324 280" stroke-miterlimit="10" stroke-dasharray="3"/></g><g transform="translate(10,10) scale(1,1)"><path fill="#FFFFFF" stroke="none" d="M 1315.580964487968 259.6746502847517 L 1324 280 L 1332.419035512032 259.6746502847517"/></g><g transform="translate(10,10) scale(1,1)"><path fill="none" stroke="#000000" d="M 1315.580964487968 259.6746502847517 L 1324 280 L 1332.419035512032 259.6746502847517 L 1315.580964487968 259.6746502847517" stroke-miterlimit="10"/></g><g transform="translate(10,10) scale(1,1)"><g><path fill="none" stroke="none"/><text fill="#000000" stroke="none" font-family="Times New Roman" font-size="20px" font-style="normal" font-weight="normal" text-decoration="none" x="5" y="18">0.3.0</text></g></g><g transform="translate(10,10) scale(1,1)"><g><path fill="none" stroke="none"/><text fill="#000000" stroke="none" font-family="Times New Roman" font-size="20px" font-style="normal" font-weight="normal" text-decoration="none" x="5" y="41">kichiro-kun</text></g></g><g transform="translate(10,10) scale(1,1)"><rect fill="#ffffff" stroke="none" x="208" y="320" width="150.103515625" height="31"/></g><g transform="translate(10,10) scale(1,1)"><path fill="none" stroke="#ff0000" d="M 208 320 L 358.103515625 320 L 358.103515625 351 L 208 351 L 208 320 Z Z" stroke-miterlimit="10"/></g><g transform="translate(10,10) scale(1,1)"><g><path fill="none" stroke="none"/><text fill="#ff0000" stroke="none" font-family="Times New Roman" font-size="20px" font-style="normal" font-weight="normal" text-decoration="none" x="213" y="338">noKamiSQL-API</text></g></g><g transform="translate(10,10) scale(1,1)"><rect fill="#C0C0C0" stroke="none" x="537" y="543" width="177.2724609375" height="55" opacity="0.2"/></g><g transform="translate(10,10) scale(1,1)"><rect fill="#ffffff" stroke="none" x="520" y="536" width="187.2724609375" height="55"/></g><g transform="translate(10,10) scale(1,1)"><path fill="none" stroke="#000000" d="M 520 536 L 707.2724609375 536 L 707.2724609375 591 L 520 591 L 520 536 Z Z" stroke-miterlimit="10"/></g><g transform="translate(10,10) scale(1,1)"><rect fill="#ffffff" stroke="none" x="687.2724609375" y="546" width="13" height="16"/></g><g transform="translate(10,10) scale(1,1)"><path fill="none" stroke="#000000" d="M 687.2724609375 546 L 700.2724609375 546 L 700.2724609375 562 L 687.2724609375 562 L 687.2724609375 546 Z Z" stroke-miterlimit="10"/></g><g transform="translate(10,10) scale(1,1)"><rect fill="#ffffff" stroke="none" x="684.2724609375" y="549" width="7" height="4"/></g><g transform="translate(10,10) scale(1,1)"><path fill="none" stroke="#000000" d="M 684.2724609375 549 L 691.2724609375 549 L 691.2724609375 553 L 684.2724609375 553 L 684.2724609375 549 Z Z" stroke-miterlimit="10"/></g><g transform="translate(10,10) scale(1,1)"><rect fill="#ffffff" stroke="none" x="684.2724609375" y="555" width="7" height="4"/></g><g transform="translate(10,10) scale(1,1)"><path fill="none" stroke="#000000" d="M 684.2724609375 555 L 691.2724609375 555 L 691.2724609375 559 L 684.2724609375 559 L 684.2724609375 555 Z Z" stroke-miterlimit="10"/></g><g transform="translate(10,10) scale(1,1)"><g><path fill="none" stroke="none"/><text fill="#000000" stroke="none" font-family="Times New Roman" font-size="14px" font-style="normal" font-weight="normal" text-decoration="none" x="601.63623046875" y="547.5"></text></g></g><g transform="translate(10,10) scale(1,1)"><g><path fill="none" stroke="none"/><text fill="#000000" stroke="none" font-family="Times New Roman" font-size="14px" font-style="normal" font-weight="bold" text-decoration="none" x="529.5" y="568.5">BaseLogger Component</text></g></g><g transform="translate(10,10) scale(1,1)"><g><path fill="none" stroke="none"/><text fill="#000000" stroke="none" font-family="Times New Roman" font-size="14px" font-style="normal" font-weight="normal" text-decoration="none" x="557.896484375" y="584.5">(from Logging)</text></g></g><g transform="translate(10,10) scale(1,1)"><rect fill="#C0C0C0" stroke="none" x="833" y="551" width="164.8447265625" height="55" opacity="0.2"/></g><g transform="translate(10,10) scale(1,1)"><rect fill="#ffffff" stroke="none" x="816" y="544" width="174.8447265625" height="55"/></g><g transform="translate(10,10) scale(1,1)"><path fill="none" stroke="#000000" d="M 816 544 L 990.8447265625 544 L 990.8447265625 599 L 816 599 L 816 544 Z Z" stroke-miterlimit="10"/></g><g transform="translate(10,10) scale(1,1)"><rect fill="#ffffff" stroke="none" x="970.8447265625" y="554" width="13" height="16"/></g><g transform="translate(10,10) scale(1,1)"><path fill="none" stroke="#000000" d="M 970.8447265625 554 L 983.8447265625 554 L 983.8447265625 570 L 970.8447265625 570 L 970.8447265625 554 Z Z" stroke-miterlimit="10"/></g><g transform="translate(10,10) scale(1,1)"><rect fill="#ffffff" stroke="none" x="967.8447265625" y="557" width="7" height="4"/></g><g transform="translate(10,10) scale(1,1)"><path fill="none" stroke="#000000" d="M 967.8447265625 557 L 974.8447265625 557 L 974.8447265625 561 L 967.8447265625 561 L 967.8447265625 557 Z Z" stroke-miterlimit="10"/></g><g transform="translate(10,10) scale(1,1)"><rect fill="#ffffff" stroke="none" x="967.8447265625" y="563" width="7" height="4"/></g><g transform="translate(10,10) scale(1,1)"><path fill="none" stroke="#000000" d="M 967.8447265625 563 L 974.8447265625 563 L 974.8447265625 567 L 967.8447265625 567 L 967.8447265625 563 Z Z" stroke-miterlimit="10"/></g><g transform="translate(10,10) scale(1,1)"><g><path fill="none" stroke="none"/><text fill="#000000" stroke="none" font-family="Times New Roman" font-size="14px" font-style="normal" font-weight="normal" text-decoration="none" x="891.42236328125" y="555.5"></text></g></g><g transform="translate(10,10) scale(1,1)"><g><path fill="none" stroke="none"/><text fill="#000000" stroke="none" font-family="Times New Roman" font-size="14px" font-style="normal" font-weight="bold" text-decoration="none" x="825.5" y="576.5">LogEntry Component</text></g></g><g transform="translate(10,10) scale(1,1)"><g><path fill="none" stroke="none"/><text fill="#000000" stroke="none" font-family="Times New Roman" font-size="14px" font-style="normal" font-weight="normal" text-decoration="none" x="847.6826171875" y="592.5">(from Logging)</text></g></g><g transform="translate(10,10) scale(1,1)"><rect fill="#C0C0C0" stroke="none" x="537" y="447" width="193.220703125" height="55" opacity="0.2"/></g><g transform="translate(10,10) scale(1,1)"><rect fill="#ffffff" stroke="none" x="520" y="440" width="203.220703125" height="55"/></g><g transform="translate(10,10) scale(1,1)"><path fill="none" stroke="#000000" d="M 520 440 L 723.220703125 440 L 723.220703125 495 L 520 495 L 520 440 Z Z" stroke-miterlimit="10"/></g><g transform="translate(10,10) scale(1,1)"><rect fill="#ffffff" stroke="none" x="703.220703125" y="450" width="13" height="16"/></g><g transform="translate(10,10) scale(1,1)"><path fill="none" stroke="#000000" d="M 703.220703125 450 L 716.220703125 450 L 716.220703125 466 L 703.220703125 466 L 703.220703125 450 Z Z" stroke-miterlimit="10"/></g><g transform="translate(10,10) scale(1,1)"><rect fill="#ffffff" stroke="none" x="700.220703125" y="453" width="7" height="4"/></g><g transform="translate(10,10) scale(1,1)"><path fill="none" stroke="#000000" d="M 700.220703125 453 L 707.220703125 453 L 707.220703125 457 L 700.220703125 457 L 700.220703125 453 Z Z" stroke-miterlimit="10"/></g><g transform="translate(10,10) scale(1,1)"><rect fill="#ffffff" stroke="none" x="700.220703125" y="459" width="7" height="4"/></g><g transform="translate(10,10) scale(1,1)"><path fill="none" stroke="#000000" d="M 700.220703125 459 L 707.220703125 459 L 707.220703125 463 L 700.220703125 463 L 700.220703125 459 Z Z" stroke-miterlimit="10"/></g><g transform="translate(10,10) scale(1,1)"><g><path fill="none" stroke="none"/><text fill="#000000" stroke="none" font-family="Times New Roman" font-size="14px" font-style="normal" font-weight="normal" text-decoration="none" x="609.6103515625" y="451.5"></text></g></g><g transform="translate(10,10) scale(1,1)"><g><path fill="none" stroke="none"/><text fill="#000000" stroke="none" font-family="Times New Roman" font-size="14px" font-style="normal" font-weight="bold" text-decoration="none" x="529.5" y="472.5">Logger Config Component</text></g></g><g transform="translate(10,10) scale(1,1)"><g><path fill="none" stroke="none"/><text fill="#000000" stroke="none" font-family="Times New Roman" font-size="14px" font-style="normal" font-weight="normal" text-decoration="none" x="565.87060546875" y="488.5">(from Logging)</text></g></g><g transform="translate(10,10) scale(1,1)"><path fill="none" stroke="#000000" d="M 619 536 L 619 495" stroke-miterlimit="10" stroke-dasharray="3"/></g><g transform="translate(10,10) scale(1,1)"><path fill="none" stroke="#000000" d="M 623.209517756016 505.16267485762415 L 619 495 L 614.790482243984 505.16267485762415" stroke-miterlimit="10"/></g><g transform="translate(10,10) scale(1,1)"><rect fill="#C0C0C0" stroke="none" x="537" y="647" width="197.8828125" height="55" opacity="0.2"/></g><g transform="translate(10,10) scale(1,1)"><rect fill="#ffffff" stroke="none" x="520" y="640" width="207.8828125" height="55"/></g><g transform="translate(10,10) scale(1,1)"><path fill="none" stroke="#000000" d="M 520 640 L 727.8828125 640 L 727.8828125 695 L 520 695 L 520 640 Z Z" stroke-miterlimit="10"/></g><g transform="translate(10,10) scale(1,1)"><rect fill="#ffffff" stroke="none" x="707.8828125" y="650" width="13" height="16"/></g><g transform="translate(10,10) scale(1,1)"><path fill="none" stroke="#000000" d="M 707.8828125 650 L 720.8828125 650 L 720.8828125 666 L 707.8828125 666 L 707.8828125 650 Z Z" stroke-miterlimit="10"/></g><g transform="translate(10,10) scale(1,1)"><rect fill="#ffffff" stroke="none" x="704.8828125" y="653" width="7" height="4"/></g><g transform="translate(10,10) scale(1,1)"><path fill="none" stroke="#000000" d="M 704.8828125 653 L 711.8828125 653 L 711.8828125 657 L 704.8828125 657 L 704.8828125 653 Z Z" stroke-miterlimit="10"/></g><g transform="translate(10,10) scale(1,1)"><rect fill="#ffffff" stroke="none" x="704.8828125" y="659" width="7" height="4"/></g><g transform="translate(10,10) scale(1,1)"><path fill="none" stroke="#000000" d="M 704.8828125 659 L 711.8828125 659 L 711.8828125 663 L 704.8828125 663 L 704.8828125 659 Z Z" stroke-miterlimit="10"/></g><g transform="translate(10,10) scale(1,1)"><g><path fill="none" stroke="none"/><text fill="#000000" stroke="none" font-family="Times New Roman" font-size="14px" font-style="normal" font-weight="normal" text-decoration="none" x="611.94140625" y="651.5"></text></g></g><g transform="translate(10,10) scale(1,1)"><g><path fill="none" stroke="none"/><text fill="#000000" stroke="none" font-family="Times New Roman" font-size="14px" font-style="normal" font-weight="bold" text-decoration="none" x="529.5" y="672.5">Logger Subject Component</text></g></g><g transform="translate(10,10) scale(1,1)"><g><path fill="none" stroke="none"/><text fill="#000000" stroke="none" font-family="Times New Roman" font-size="14px" font-style="normal" font-weight="normal" text-decoration="none" x="568.20166015625" y="688.5">(from Logging)</text></g></g><g transform="translate(10,10) scale(1,1)"><path fill="none" stroke="#000000" d="M 616 591 L 616 640" stroke-miterlimit="10" stroke-dasharray="3"/></g><g transform="translate(10,10) scale(1,1)"><path fill="none" stroke="#000000" d="M 611.790482243984 629.8373251423759 L 616 640 L 620.209517756016 629.8373251423759" stroke-miterlimit="10"/></g><g transform="translate(10,10) scale(1,1)"><rect fill="#C0C0C0" stroke="none" x="249" y="543" width="185.9541015625" height="55" opacity="0.2"/></g><g transform="translate(10,10) scale(1,1)"><rect fill="#ffffff" stroke="none" x="232" y="536" width="195.9541015625" height="55"/></g><g transform="translate(10,10) scale(1,1)"><path fill="none" stroke="#000000" d="M 232 536 L 427.9541015625 536 L 427.9541015625 591 L 232 591 L 232 536 Z Z" stroke-miterlimit="10"/></g><g transform="translate(10,10) scale(1,1)"><rect fill="#ffffff" stroke="none" x="407.9541015625" y="546" width="13" height="16"/></g><g transform="translate(10,10) scale(1,1)"><path fill="none" stroke="#000000" d="M 407.9541015625 546 L 420.9541015625 546 L 420.9541015625 562 L 407.9541015625 562 L 407.9541015625 546 Z Z" stroke-miterlimit="10"/></g><g transform="translate(10,10) scale(1,1)"><rect fill="#ffffff" stroke="none" x="404.9541015625" y="549" width="7" height="4"/></g><g transform="translate(10,10) scale(1,1)"><path fill="none" stroke="#000000" d="M 404.9541015625 549 L 411.9541015625 549 L 411.9541015625 553 L 404.9541015625 553 L 404.9541015625 549 Z Z" stroke-miterlimit="10"/></g><g transform="translate(10,10) scale(1,1)"><rect fill="#ffffff" stroke="none" x="404.9541015625" y="555" width="7" height="4"/></g><g transform="translate(10,10) scale(1,1)"><path fill="none" stroke="#000000" d="M 404.9541015625 555 L 411.9541015625 555 L 411.9541015625 559 L 404.9541015625 559 L 404.9541015625 555 Z Z" stroke-miterlimit="10"/></g><g transform="translate(10,10) scale(1,1)"><g><path fill="none" stroke="none"/><text fill="#000000" stroke="none" font-family="Times New Roman" font-size="14px" font-style="normal" font-weight="normal" text-decoration="none" x="317.97705078125" y="547.5"></text></g></g><g transform="translate(10,10) scale(1,1)"><g><path fill="none" stroke="none"/><text fill="#000000" stroke="none" font-family="Times New Roman" font-size="14px" font-style="normal" font-weight="bold" text-decoration="none" x="241.5" y="568.5">File Explorer Component</text></g></g><g transform="translate(10,10) scale(1,1)"><g><path fill="none" stroke="none"/><text fill="#000000" stroke="none" font-family="Times New Roman" font-size="14px" font-style="normal" font-weight="normal" text-decoration="none" x="256.9423828125" y="584.5">(from OS Interaction)</text></g></g><g transform="translate(10,10) scale(1,1)"><path fill="none" stroke="#000000" d="M 519 563 L 429 563" stroke-miterlimit="10" stroke-dasharray="3"/></g><g transform="translate(10,10) scale(1,1)"><path fill="none" stroke="#000000" d="M 439.16267485762415 558.790482243984 L 429 563 L 439.16267485762415 567.209517756016" stroke-miterlimit="10"/></g><g transform="translate(10,10) scale(1,1)"><rect fill="#C0C0C0" stroke="none" x="433" y="783" width="218.8759765625" height="55" opacity="0.2"/></g><g transform="translate(10,10) scale(1,1)"><rect fill="#ffffff" stroke="none" x="416" y="776" width="228.8759765625" height="55"/></g><g transform="translate(10,10) scale(1,1)"><path fill="none" stroke="#000000" d="M 416 776 L 644.8759765625 776 L 644.8759765625 831 L 416 831 L 416 776 Z Z" stroke-miterlimit="10"/></g><g transform="translate(10,10) scale(1,1)"><rect fill="#ffffff" stroke="none" x="624.8759765625" y="786" width="13" height="16"/></g><g transform="translate(10,10) scale(1,1)"><path fill="none" stroke="#000000" d="M 624.8759765625 786 L 637.8759765625 786 L 637.8759765625 802 L 624.8759765625 802 L 624.8759765625 786 Z Z" stroke-miterlimit="10"/></g><g transform="translate(10,10) scale(1,1)"><rect fill="#ffffff" stroke="none" x="621.8759765625" y="789" width="7" height="4"/></g><g transform="translate(10,10) scale(1,1)"><path fill="none" stroke="#000000" d="M 621.8759765625 789 L 628.8759765625 789 L 628.8759765625 793 L 621.8759765625 793 L 621.8759765625 789 Z Z" stroke-miterlimit="10"/></g><g transform="translate(10,10) scale(1,1)"><rect fill="#ffffff" stroke="none" x="621.8759765625" y="795" width="7" height="4"/></g><g transform="translate(10,10) scale(1,1)"><path fill="none" stroke="#000000" d="M 621.8759765625 795 L 628.8759765625 795 L 628.8759765625 799 L 621.8759765625 799 L 621.8759765625 795 Z Z" stroke-miterlimit="10"/></g><g transform="translate(10,10) scale(1,1)"><g><path fill="none" stroke="none"/><text fill="#000000" stroke="none" font-family="Times New Roman" font-size="14px" font-style="normal" font-weight="normal" text-decoration="none" x="518.43798828125" y="787.5"></text></g></g><g transform="translate(10,10) scale(1,1)"><g><path fill="none" stroke="none"/><text fill="#000000" stroke="none" font-family="Times New Roman" font-size="14px" font-style="normal" font-weight="bold" text-decoration="none" x="425.5" y="808.5">Abstract DataBase Component</text></g></g><g transform="translate(10,10) scale(1,1)"><g><path fill="none" stroke="none"/><text fill="#000000" stroke="none" font-family="Times New Roman" font-size="14px" font-style="normal" font-weight="normal" text-decoration="none" x="456.2412109375" y="824.5">(from DataBase Core)</text></g></g><g transform="translate(10,10) scale(1,1)"><path fill="none" stroke="#000000" d="M 592 776 L 592 695" stroke-miterlimit="10" stroke-dasharray="3"/></g><g transform="translate(10,10) scale(1,1)"><path fill="none" stroke="#000000" d="M 596.209517756016 705.1626748576241 L 592 695 L 587.790482243984 705.1626748576241" stroke-miterlimit="10"/></g><g transform="translate(10,10) scale(1,1)"><path fill="none" stroke="#000000" d="M 645 803 L 903 803 L 903 599" stroke-miterlimit="10" stroke-dasharray="3"/></g><g transform="translate(10,10) scale(1,1)"><path fill="none" stroke="#000000" d="M 907.209517756016 609.1626748576241 L 903 599 L 898.790482243984 609.1626748576241" stroke-miterlimit="10"/></g><g transform="translate(10,10) scale(1,1)"><rect fill="#C0C0C0" stroke="none" x="385" y="1015" width="265.1689453125" height="55" opacity="0.2"/></g><g transform="translate(10,10) scale(1,1)"><rect fill="#ffffff" stroke="none" x="368" y="1008" width="275.1689453125" height="55"/></g><g transform="translate(10,10) scale(1,1)"><path fill="none" stroke="#000000" d="M 368 1008 L 643.1689453125 1008 L 643.1689453125 1063 L 368 1063 L 368 1008 Z Z" stroke-miterlimit="10"/></g><g transform="translate(10,10) scale(1,1)"><rect fill="#ffffff" stroke="none" x="623.1689453125" y="1018" width="13" height="16"/></g><g transform="translate(10,10) scale(1,1)"><path fill="none" stroke="#000000" d="M 623.1689453125 1018 L 636.1689453125 1018 L 636.1689453125 1034 L 623.1689453125 1034 L 623.1689453125 1018 Z Z" stroke-miterlimit="10"/></g><g transform="translate(10,10) scale(1,1)"><rect fill="#ffffff" stroke="none" x="620.1689453125" y="1021" width="7" height="4"/></g><g transform="translate(10,10) scale(1,1)"><path fill="none" stroke="#000000" d="M 620.1689453125 1021 L 627.1689453125 1021 L 627.1689453125 1025 L 620.1689453125 1025 L 620.1689453125 1021 Z Z" stroke-miterlimit="10"/></g><g transform="translate(10,10) scale(1,1)"><rect fill="#ffffff" stroke="none" x="620.1689453125" y="1027" width="7" height="4"/></g><g transform="translate(10,10) scale(1,1)"><path fill="none" stroke="#000000" d="M 620.1689453125 1027 L 627.1689453125 1027 L 627.1689453125 1031 L 620.1689453125 1031 L 620.1689453125 1027 Z Z" stroke-miterlimit="10"/></g><g transform="translate(10,10) scale(1,1)"><g><path fill="none" stroke="none"/><text fill="#000000" stroke="none" font-family="Times New Roman" font-size="14px" font-style="normal" font-weight="normal" text-decoration="none" x="493.58447265625" y="1019.5"></text></g></g><g transform="translate(10,10) scale(1,1)"><g><path fill="none" stroke="none"/><text fill="#000000" stroke="none" font-family="Times New Roman" font-size="14px" font-style="normal" font-weight="bold" text-decoration="none" x="377.5" y="1040.5">Pool Connection DataBase Component</text></g></g><g transform="translate(10,10) scale(1,1)"><g><path fill="none" stroke="none"/><text fill="#000000" stroke="none" font-family="Times New Roman" font-size="14px" font-style="normal" font-weight="normal" text-decoration="none" x="431.3876953125" y="1056.5">(from DataBase Core)</text></g></g><g transform="translate(10,10) scale(1,1)"><path fill="none" stroke="#000000" d="M 368 1032 L 312 1032 L 312 808 L 416 808" stroke-miterlimit="10" stroke-dasharray="3"/></g><g transform="translate(10,10) scale(1,1)"><path fill="none" stroke="#000000" d="M 405.83732514237585 812.209517756016 L 416 808 L 405.83732514237585 803.790482243984" stroke-miterlimit="10"/></g><g transform="translate(10,10) scale(1,1)"><rect fill="#C0C0C0" stroke="none" x="377" y="919" width="275.29296875" height="55" opacity="0.2"/></g><g transform="translate(10,10) scale(1,1)"><rect fill="#ffffff" stroke="none" x="360" y="912" width="285.29296875" height="55"/></g><g transform="translate(10,10) scale(1,1)"><path fill="none" stroke="#000000" d="M 360 912 L 645.29296875 912 L 645.29296875 967 L 360 967 L 360 912 Z Z" stroke-miterlimit="10"/></g><g transform="translate(10,10) scale(1,1)"><rect fill="#ffffff" stroke="none" x="625.29296875" y="922" width="13" height="16"/></g><g transform="translate(10,10) scale(1,1)"><path fill="none" stroke="#000000" d="M 625.29296875 922 L 638.29296875 922 L 638.29296875 938 L 625.29296875 938 L 625.29296875 922 Z Z" stroke-miterlimit="10"/></g><g transform="translate(10,10) scale(1,1)"><rect fill="#ffffff" stroke="none" x="622.29296875" y="925" width="7" height="4"/></g><g transform="translate(10,10) scale(1,1)"><path fill="none" stroke="#000000" d="M 622.29296875 925 L 629.29296875 925 L 629.29296875 929 L 622.29296875 929 L 622.29296875 925 Z Z" stroke-miterlimit="10"/></g><g transform="translate(10,10) scale(1,1)"><rect fill="#ffffff" stroke="none" x="622.29296875" y="931" width="7" height="4"/></g><g transform="translate(10,10) scale(1,1)"><path fill="none" stroke="#000000" d="M 622.29296875 931 L 629.29296875 931 L 629.29296875 935 L 622.29296875 935 L 622.29296875 931 Z Z" stroke-miterlimit="10"/></g><g transform="translate(10,10) scale(1,1)"><g><path fill="none" stroke="none"/><text fill="#000000" stroke="none" font-family="Times New Roman" font-size="14px" font-style="normal" font-weight="normal" text-decoration="none" x="490.646484375" y="923.5"></text></g></g><g transform="translate(10,10) scale(1,1)"><g><path fill="none" stroke="none"/><text fill="#000000" stroke="none" font-family="Times New Roman" font-size="14px" font-style="normal" font-weight="bold" text-decoration="none" x="369.5" y="944.5">Single Connection DataBase Component</text></g></g><g transform="translate(10,10) scale(1,1)"><g><path fill="none" stroke="none"/><text fill="#000000" stroke="none" font-family="Times New Roman" font-size="14px" font-style="normal" font-weight="normal" text-decoration="none" x="428.44970703125" y="960.5">(from DataBase Core)</text></g></g><g transform="translate(10,10) scale(1,1)"><path fill="none" stroke="#000000" d="M 624 912 L 624 831" stroke-miterlimit="10" stroke-dasharray="3"/></g><g transform="translate(10,10) scale(1,1)"><path fill="none" stroke="#000000" d="M 628.209517756016 841.1626748576241 L 624 831 L 619.790482243984 841.1626748576241" stroke-miterlimit="10"/></g><g transform="translate(10,10) scale(1,1)"><rect fill="#C0C0C0" stroke="none" x="337" y="1191" width="202.5244140625" height="55" opacity="0.2"/></g><g transform="translate(10,10) scale(1,1)"><rect fill="#ffffff" stroke="none" x="320" y="1184" width="212.5244140625" height="55"/></g><g transform="translate(10,10) scale(1,1)"><path fill="none" stroke="#000000" d="M 320 1184 L 532.5244140625 1184 L 532.5244140625 1239 L 320 1239 L 320 1184 Z Z" stroke-miterlimit="10"/></g><g transform="translate(10,10) scale(1,1)"><rect fill="#ffffff" stroke="none" x="512.5244140625" y="1194" width="13" height="16"/></g><g transform="translate(10,10) scale(1,1)"><path fill="none" stroke="#000000" d="M 512.5244140625 1194 L 525.5244140625 1194 L 525.5244140625 1210 L 512.5244140625 1210 L 512.5244140625 1194 Z Z" stroke-miterlimit="10"/></g><g transform="translate(10,10) scale(1,1)"><rect fill="#ffffff" stroke="none" x="509.5244140625" y="1197" width="7" height="4"/></g><g transform="translate(10,10) scale(1,1)"><path fill="none" stroke="#000000" d="M 509.5244140625 1197 L 516.5244140625 1197 L 516.5244140625 1201 L 509.5244140625 1201 L 509.5244140625 1197 Z Z" stroke-miterlimit="10"/></g><g transform="translate(10,10) scale(1,1)"><rect fill="#ffffff" stroke="none" x="509.5244140625" y="1203" width="7" height="4"/></g><g transform="translate(10,10) scale(1,1)"><path fill="none" stroke="#000000" d="M 509.5244140625 1203 L 516.5244140625 1203 L 516.5244140625 1207 L 509.5244140625 1207 L 509.5244140625 1203 Z Z" stroke-miterlimit="10"/></g><g transform="translate(10,10) scale(1,1)"><g><path fill="none" stroke="none"/><text fill="#000000" stroke="none" font-family="Times New Roman" font-size="14px" font-style="normal" font-weight="normal" text-decoration="none" x="414.26220703125" y="1195.5"></text></g></g><g transform="translate(10,10) scale(1,1)"><g><path fill="none" stroke="none"/><text fill="#000000" stroke="none" font-family="Times New Roman" font-size="14px" font-style="normal" font-weight="bold" text-decoration="none" x="329.5" y="1216.5">Query Interface Component</text></g></g><g transform="translate(10,10) scale(1,1)"><g><path fill="none" stroke="none"/><text fill="#000000" stroke="none" font-family="Times New Roman" font-size="14px" font-style="normal" font-weight="normal" text-decoration="none" x="361.39306640625" y="1232.5">(from Query Core)</text></g></g><g transform="translate(10,10) scale(1,1)"><path fill="none" stroke="#000000" d="M 360 944 L 264 944 L 264 1216 L 320 1216" stroke-miterlimit="10" stroke-dasharray="3"/></g><g transform="translate(10,10) scale(1,1)"><path fill="none" stroke="#000000" d="M 309.83732514237585 1220.2095177560159 L 320 1216 L 309.83732514237585 1211.7904822439841" stroke-miterlimit="10"/></g><g transform="translate(10,10) scale(1,1)"><path fill="none" stroke="#000000" d="M 616 1063 L 616 1216 L 533 1216" stroke-miterlimit="10" stroke-dasharray="3"/></g><g transform="translate(10,10) scale(1,1)"><path fill="none" stroke="#000000" d="M 543.1626748576241 1211.7904822439841 L 533 1216 L 543.1626748576241 1220.2095177560159" stroke-miterlimit="10"/></g><g transform="translate(10,10) scale(1,1)"><rect fill="#C0C0C0" stroke="none" x="697" y="1183" width="219.6279296875" height="55" opacity="0.2"/></g><g transform="translate(10,10) scale(1,1)"><rect fill="#ffffff" stroke="none" x="680" y="1176" width="229.6279296875" height="55"/></g><g transform="translate(10,10) scale(1,1)"><path fill="none" stroke="#000000" d="M 680 1176 L 909.6279296875 1176 L 909.6279296875 1231 L 680 1231 L 680 1176 Z Z" stroke-miterlimit="10"/></g><g transform="translate(10,10) scale(1,1)"><rect fill="#ffffff" stroke="none" x="889.6279296875" y="1186" width="13" height="16"/></g><g transform="translate(10,10) scale(1,1)"><path fill="none" stroke="#000000" d="M 889.6279296875 1186 L 902.6279296875 1186 L 902.6279296875 1202 L 889.6279296875 1202 L 889.6279296875 1186 Z Z" stroke-miterlimit="10"/></g><g transform="translate(10,10) scale(1,1)"><rect fill="#ffffff" stroke="none" x="886.6279296875" y="1189" width="7" height="4"/></g><g transform="translate(10,10) scale(1,1)"><path fill="none" stroke="#000000" d="M 886.6279296875 1189 L 893.6279296875 1189 L 893.6279296875 1193 L 886.6279296875 1193 L 886.6279296875 1189 Z Z" stroke-miterlimit="10"/></g><g transform="translate(10,10) scale(1,1)"><rect fill="#ffffff" stroke="none" x="886.6279296875" y="1195" width="7" height="4"/></g><g transform="translate(10,10) scale(1,1)"><path fill="none" stroke="#000000" d="M 886.6279296875 1195 L 893.6279296875 1195 L 893.6279296875 1199 L 886.6279296875 1199 L 886.6279296875 1195 Z Z" stroke-miterlimit="10"/></g><g transform="translate(10,10) scale(1,1)"><g><path fill="none" stroke="none"/><text fill="#000000" stroke="none" font-family="Times New Roman" font-size="14px" font-style="normal" font-weight="normal" text-decoration="none" x="782.81396484375" y="1187.5"></text></g></g><g transform="translate(10,10) scale(1,1)"><g><path fill="none" stroke="none"/><text fill="#000000" stroke="none" font-family="Times New Roman" font-size="14px" font-style="normal" font-weight="bold" text-decoration="none" x="710.86572265625" y="1208.5">Pool Config Component</text></g></g><g transform="translate(10,10) scale(1,1)"><g><path fill="none" stroke="none"/><text fill="#000000" stroke="none" font-family="Times New Roman" font-size="14px" font-style="normal" font-weight="normal" text-decoration="none" x="689.5" y="1224.5">(from Connection Configuration)</text></g></g><g transform="translate(10,10) scale(1,1)"><path fill="none" stroke="#000000" d="M 616 1063 L 616 1195 L 680 1195" stroke-miterlimit="10" stroke-dasharray="3"/></g><g transform="translate(10,10) scale(1,1)"><path fill="none" stroke="#000000" d="M 669.8373251423759 1199.2095177560159 L 680 1195 L 669.8373251423758 1190.7904822439841" stroke-miterlimit="10"/></g><g transform="translate(10,10) scale(1,1)"><rect fill="#C0C0C0" stroke="none" x="1105" y="831" width="272.9482421875" height="55" opacity="0.2"/></g><g transform="translate(10,10) scale(1,1)"><rect fill="#ffffff" stroke="none" x="1088" y="824" width="282.9482421875" height="55"/></g><g transform="translate(10,10) scale(1,1)"><path fill="none" stroke="#000000" d="M 1088 824 L 1370.9482421875 824 L 1370.9482421875 879 L 1088 879 L 1088 824 Z Z" stroke-miterlimit="10"/></g><g transform="translate(10,10) scale(1,1)"><rect fill="#ffffff" stroke="none" x="1350.9482421875" y="834" width="13" height="16"/></g><g transform="translate(10,10) scale(1,1)"><path fill="none" stroke="#000000" d="M 1350.9482421875 834 L 1363.9482421875 834 L 1363.9482421875 850 L 1350.9482421875 850 L 1350.9482421875 834 Z Z" stroke-miterlimit="10"/></g><g transform="translate(10,10) scale(1,1)"><rect fill="#ffffff" stroke="none" x="1347.9482421875" y="837" width="7" height="4"/></g><g transform="translate(10,10) scale(1,1)"><path fill="none" stroke="#000000" d="M 1347.9482421875 837 L 1354.9482421875 837 L 1354.9482421875 841 L 1347.9482421875 841 L 1347.9482421875 837 Z Z" stroke-miterlimit="10"/></g><g transform="translate(10,10) scale(1,1)"><rect fill="#ffffff" stroke="none" x="1347.9482421875" y="843" width="7" height="4"/></g><g transform="translate(10,10) scale(1,1)"><path fill="none" stroke="#000000" d="M 1347.9482421875 843 L 1354.9482421875 843 L 1354.9482421875 847 L 1347.9482421875 847 L 1347.9482421875 843 Z Z" stroke-miterlimit="10"/></g><g transform="translate(10,10) scale(1,1)"><g><path fill="none" stroke="none"/><text fill="#000000" stroke="none" font-family="Times New Roman" font-size="14px" font-style="normal" font-weight="normal" text-decoration="none" x="1217.47412109375" y="835.5"></text></g></g><g transform="translate(10,10) scale(1,1)"><g><path fill="none" stroke="none"/><text fill="#000000" stroke="none" font-family="Times New Roman" font-size="14px" font-style="normal" font-weight="bold" text-decoration="none" x="1097.5" y="856.5">Single Connection Manager Component</text></g></g><g transform="translate(10,10) scale(1,1)"><g><path fill="none" stroke="none"/><text fill="#000000" stroke="none" font-family="Times New Roman" font-size="14px" font-style="normal" font-weight="normal" text-decoration="none" x="1145.54638671875" y="872.5">(from DBMS Interaction)</text></g></g><g transform="translate(10,10) scale(1,1)"><path fill="none" stroke="#000000" d="M 646 922 L 1087 868" stroke-miterlimit="10" stroke-dasharray="3"/></g><g transform="translate(10,10) scale(1,1)"><path fill="none" stroke="#000000" d="M 1077.4242970628823 873.4134936279704 L 1087 868 L 1076.401037464288 865.0568735727842" stroke-miterlimit="10"/></g><g transform="translate(10,10) scale(1,1)"><rect fill="#C0C0C0" stroke="none" x="1105" y="1063" width="190.8759765625" height="55" opacity="0.2"/></g><g transform="translate(10,10) scale(1,1)"><rect fill="#ffffff" stroke="none" x="1088" y="1056" width="200.8759765625" height="55"/></g><g transform="translate(10,10) scale(1,1)"><path fill="none" stroke="#000000" d="M 1088 1056 L 1288.8759765625 1056 L 1288.8759765625 1111 L 1088 1111 L 1088 1056 Z Z" stroke-miterlimit="10"/></g><g transform="translate(10,10) scale(1,1)"><rect fill="#ffffff" stroke="none" x="1268.8759765625" y="1066" width="13" height="16"/></g><g transform="translate(10,10) scale(1,1)"><path fill="none" stroke="#000000" d="M 1268.8759765625 1066 L 1281.8759765625 1066 L 1281.8759765625 1082 L 1268.8759765625 1082 L 1268.8759765625 1066 Z Z" stroke-miterlimit="10"/></g><g transform="translate(10,10) scale(1,1)"><rect fill="#ffffff" stroke="none" x="1265.8759765625" y="1069" width="7" height="4"/></g><g transform="translate(10,10) scale(1,1)"><path fill="none" stroke="#000000" d="M 1265.8759765625 1069 L 1272.8759765625 1069 L 1272.8759765625 1073 L 1265.8759765625 1073 L 1265.8759765625 1069 Z Z" stroke-miterlimit="10"/></g><g transform="translate(10,10) scale(1,1)"><rect fill="#ffffff" stroke="none" x="1265.8759765625" y="1075" width="7" height="4"/></g><g transform="translate(10,10) scale(1,1)"><path fill="none" stroke="#000000" d="M 1265.8759765625 1075 L 1272.8759765625 1075 L 1272.8759765625 1079 L 1265.8759765625 1079 L 1265.8759765625 1075 Z Z" stroke-miterlimit="10"/></g><g transform="translate(10,10) scale(1,1)"><g><path fill="none" stroke="none"/><text fill="#000000" stroke="none" font-family="Times New Roman" font-size="14px" font-style="normal" font-weight="normal" text-decoration="none" x="1176.43798828125" y="1067.5"></text></g></g><g transform="translate(10,10) scale(1,1)"><g><path fill="none" stroke="none"/><text fill="#000000" stroke="none" font-family="Times New Roman" font-size="14px" font-style="normal" font-weight="bold" text-decoration="none" x="1097.5" y="1088.5">Pool Manager Component</text></g></g><g transform="translate(10,10) scale(1,1)"><g><path fill="none" stroke="none"/><text fill="#000000" stroke="none" font-family="Times New Roman" font-size="14px" font-style="normal" font-weight="normal" text-decoration="none" x="1104.51025390625" y="1104.5">(from DBMS Interaction)</text></g></g><g transform="translate(10,10) scale(1,1)"><path fill="none" stroke="#000000" d="M 644 1045 L 1087 1076" stroke-miterlimit="10" stroke-dasharray="3"/></g><g transform="translate(10,10) scale(1,1)"><path fill="none" stroke="#000000" d="M 1076.5682640031641 1079.4898257968441 L 1087 1076 L 1077.1559692509813 1071.0913282231977" stroke-miterlimit="10"/></g><g transform="translate(10,10) scale(1,1)"><rect fill="#C0C0C0" stroke="none" x="1105" y="959" width="235.7333984375" height="55" opacity="0.2"/></g><g transform="translate(10,10) scale(1,1)"><rect fill="#ffffff" stroke="none" x="1088" y="952" width="245.7333984375" height="55"/></g><g transform="translate(10,10) scale(1,1)"><path fill="none" stroke="#000000" d="M 1088 952 L 1333.7333984375 952 L 1333.7333984375 1007 L 1088 1007 L 1088 952 Z Z" stroke-miterlimit="10"/></g><g transform="translate(10,10) scale(1,1)"><rect fill="#ffffff" stroke="none" x="1313.7333984375" y="962" width="13" height="16"/></g><g transform="translate(10,10) scale(1,1)"><path fill="none" stroke="#000000" d="M 1313.7333984375 962 L 1326.7333984375 962 L 1326.7333984375 978 L 1313.7333984375 978 L 1313.7333984375 962 Z Z" stroke-miterlimit="10"/></g><g transform="translate(10,10) scale(1,1)"><rect fill="#ffffff" stroke="none" x="1310.7333984375" y="965" width="7" height="4"/></g><g transform="translate(10,10) scale(1,1)"><path fill="none" stroke="#000000" d="M 1310.7333984375 965 L 1317.7333984375 965 L 1317.7333984375 969 L 1310.7333984375 969 L 1310.7333984375 965 Z Z" stroke-miterlimit="10"/></g><g transform="translate(10,10) scale(1,1)"><rect fill="#ffffff" stroke="none" x="1310.7333984375" y="971" width="7" height="4"/></g><g transform="translate(10,10) scale(1,1)"><path fill="none" stroke="#000000" d="M 1310.7333984375 971 L 1317.7333984375 971 L 1317.7333984375 975 L 1310.7333984375 975 L 1310.7333984375 971 Z Z" stroke-miterlimit="10"/></g><g transform="translate(10,10) scale(1,1)"><g><path fill="none" stroke="none"/><text fill="#000000" stroke="none" font-family="Times New Roman" font-size="14px" font-style="normal" font-weight="normal" text-decoration="none" x="1198.86669921875" y="963.5"></text></g></g><g transform="translate(10,10) scale(1,1)"><g><path fill="none" stroke="none"/><text fill="#000000" stroke="none" font-family="Times New Roman" font-size="14px" font-style="normal" font-weight="bold" text-decoration="none" x="1097.5" y="984.5">Transaction Manager Component</text></g></g><g transform="translate(10,10) scale(1,1)"><g><path fill="none" stroke="none"/><text fill="#000000" stroke="none" font-family="Times New Roman" font-size="14px" font-style="normal" font-weight="normal" text-decoration="none" x="1126.93896484375" y="1000.5">(from DBMS Interaction)</text></g></g><g transform="translate(10,10) scale(1,1)"><path fill="none" stroke="#000000" d="M 645 944 L 912 944 L 912 984 L 1088 984" stroke-miterlimit="10" stroke-dasharray="3"/></g><g transform="translate(10,10) scale(1,1)"><path fill="none" stroke="#000000" d="M 1077.837325142376 988.209517756016 L 1088 984 L 1077.837325142376 979.790482243984" stroke-miterlimit="10"/></g><g transform="translate(10,10) scale(1,1)"><path fill="none" stroke="#000000" d="M 643 1032 L 912 1032 L 912 984 L 1088 984" stroke-miterlimit="10" stroke-dasharray="3"/></g><g transform="translate(10,10) scale(1,1)"><path fill="none" stroke="#000000" d="M 1077.837325142376 988.209517756016 L 1088 984 L 1077.837325142376 979.790482243984" stroke-miterlimit="10"/></g><g transform="translate(10,10) scale(1,1)"><rect fill="#C0C0C0" stroke="none" x="1793" y="975" width="144.5966796875" height="39" opacity="0.2"/></g><g transform="translate(10,10) scale(1,1)"><rect fill="#a3ffa3" stroke="none" x="1776" y="968" width="154.5966796875" height="39"/></g><g transform="translate(10,10) scale(1,1)"><path fill="none" stroke="#000000" d="M 1776 968 L 1930.5966796875 968 L 1930.5966796875 1007 L 1776 1007 L 1776 968 Z Z" stroke-miterlimit="10"/></g><g transform="translate(10,10) scale(1,1)"><rect fill="#a3ffa3" stroke="none" x="1910.5966796875" y="978" width="13" height="16"/></g><g transform="translate(10,10) scale(1,1)"><path fill="none" stroke="#000000" d="M 1910.5966796875 978 L 1923.5966796875 978 L 1923.5966796875 994 L 1910.5966796875 994 L 1910.5966796875 978 Z Z" stroke-miterlimit="10"/></g><g transform="translate(10,10) scale(1,1)"><rect fill="#a3ffa3" stroke="none" x="1907.5966796875" y="981" width="7" height="4"/></g><g transform="translate(10,10) scale(1,1)"><path fill="none" stroke="#000000" d="M 1907.5966796875 981 L 1914.5966796875 981 L 1914.5966796875 985 L 1907.5966796875 985 L 1907.5966796875 981 Z Z" stroke-miterlimit="10"/></g><g transform="translate(10,10) scale(1,1)"><rect fill="#a3ffa3" stroke="none" x="1907.5966796875" y="987" width="7" height="4"/></g><g transform="translate(10,10) scale(1,1)"><path fill="none" stroke="#000000" d="M 1907.5966796875 987 L 1914.5966796875 987 L 1914.5966796875 991 L 1907.5966796875 991 L 1907.5966796875 987 Z Z" stroke-miterlimit="10"/></g><g transform="translate(10,10) scale(1,1)"><g><path fill="none" stroke="none"/><text fill="#000000" stroke="none" font-family="Times New Roman" font-size="14px" font-style="normal" font-weight="normal" text-decoration="none" x="1841.29833984375" y="979.5"></text></g></g><g transform="translate(10,10) scale(1,1)"><g><path fill="none" stroke="none"/><text fill="#000000" stroke="none" font-family="Times New Roman" font-size="14px" font-style="normal" font-weight="bold" text-decoration="none" x="1785.5" y="1000.5">External Libraries</text></g></g><g transform="translate(10,10) scale(1,1)"><rect fill="#C0C0C0" stroke="none" x="1265" y="407" width="138.396484375" height="55" opacity="0.2"/></g><g transform="translate(10,10) scale(1,1)"><rect fill="#ffffff" stroke="none" x="1248" y="400" width="148.396484375" height="55"/></g><g transform="translate(10,10) scale(1,1)"><path fill="none" stroke="#000000" d="M 1248 400 L 1396.396484375 400 L 1396.396484375 455 L 1248 455 L 1248 400 Z Z" stroke-miterlimit="10"/></g><g transform="translate(10,10) scale(1,1)"><rect fill="#ffffff" stroke="none" x="1376.396484375" y="410" width="13" height="16"/></g><g transform="translate(10,10) scale(1,1)"><path fill="none" stroke="#000000" d="M 1376.396484375 410 L 1389.396484375 410 L 1389.396484375 426 L 1376.396484375 426 L 1376.396484375 410 Z Z" stroke-miterlimit="10"/></g><g transform="translate(10,10) scale(1,1)"><rect fill="#ffffff" stroke="none" x="1373.396484375" y="413" width="7" height="4"/></g><g transform="translate(10,10) scale(1,1)"><path fill="none" stroke="#000000" d="M 1373.396484375 413 L 1380.396484375 413 L 1380.396484375 417 L 1373.396484375 417 L 1373.396484375 413 Z Z" stroke-miterlimit="10"/></g><g transform="translate(10,10) scale(1,1)"><rect fill="#ffffff" stroke="none" x="1373.396484375" y="419" width="7" height="4"/></g><g transform="translate(10,10) scale(1,1)"><path fill="none" stroke="#000000" d="M 1373.396484375 419 L 1380.396484375 419 L 1380.396484375 423 L 1373.396484375 423 L 1373.396484375 419 Z Z" stroke-miterlimit="10"/></g><g transform="translate(10,10) scale(1,1)"><g><path fill="none" stroke="none"/><text fill="#000000" stroke="none" font-family="Times New Roman" font-size="14px" font-style="normal" font-weight="normal" text-decoration="none" x="1310.1982421875" y="411.5"></text></g></g><g transform="translate(10,10) scale(1,1)"><g><path fill="none" stroke="none"/><text fill="#000000" stroke="none" font-family="Times New Roman" font-size="14px" font-style="normal" font-weight="bold" text-decoration="none" x="1257.5" y="432.5">Main Component</text></g></g><g transform="translate(10,10) scale(1,1)"><g><path fill="none" stroke="none"/><text fill="#000000" stroke="none" font-family="Times New Roman" font-size="14px" font-style="normal" font-weight="normal" text-decoration="none" x="1266.263671875" y="448.5">(from API Use)</text></g></g><g transform="translate(10,10) scale(1,1)"><path fill="none" stroke="#000000" d="M 1325 320 L 1323 399" stroke-miterlimit="10" stroke-dasharray="3"/></g><g transform="translate(10,10) scale(1,1)"><path fill="none" stroke="#000000" d="M 1319.049031082249 388.7340443888079 L 1323 399 L 1327.4653699140351 388.947116257967" stroke-miterlimit="10"/></g><g transform="translate(10,10) scale(1,1)"><path fill="none" stroke="#ff0000" d="M 1256 360 L 1401 498" stroke-miterlimit="10"/></g><g transform="translate(10,10) scale(1,1)"><path fill="none" stroke="#ff0000" d="M 1256 488 L 1400 374" stroke-miterlimit="10"/></g><g transform="translate(10,10) scale(1,1)"><rect fill="#C0C0C0" stroke="none" x="1473" y="967" width="176.85546875" height="55" opacity="0.2"/></g><g transform="translate(10,10) scale(1,1)"><rect fill="#ffffff" stroke="none" x="1456" y="960" width="186.85546875" height="55"/></g><g transform="translate(10,10) scale(1,1)"><path fill="none" stroke="#000000" d="M 1456 960 L 1642.85546875 960 L 1642.85546875 1015 L 1456 1015 L 1456 960 Z Z" stroke-miterlimit="10"/></g><g transform="translate(10,10) scale(1,1)"><rect fill="#ffffff" stroke="none" x="1622.85546875" y="970" width="13" height="16"/></g><g transform="translate(10,10) scale(1,1)"><path fill="none" stroke="#000000" d="M 1622.85546875 970 L 1635.85546875 970 L 1635.85546875 986 L 1622.85546875 986 L 1622.85546875 970 Z Z" stroke-miterlimit="10"/></g><g transform="translate(10,10) scale(1,1)"><rect fill="#ffffff" stroke="none" x="1619.85546875" y="973" width="7" height="4"/></g><g transform="translate(10,10) scale(1,1)"><path fill="none" stroke="#000000" d="M 1619.85546875 973 L 1626.85546875 973 L 1626.85546875 977 L 1619.85546875 977 L 1619.85546875 973 Z Z" stroke-miterlimit="10"/></g><g transform="translate(10,10) scale(1,1)"><rect fill="#ffffff" stroke="none" x="1619.85546875" y="979" width="7" height="4"/></g><g transform="translate(10,10) scale(1,1)"><path fill="none" stroke="#000000" d="M 1619.85546875 979 L 1626.85546875 979 L 1626.85546875 983 L 1619.85546875 983 L 1619.85546875 979 Z Z" stroke-miterlimit="10"/></g><g transform="translate(10,10) scale(1,1)"><g><path fill="none" stroke="none"/><text fill="#000000" stroke="none" font-family="Times New Roman" font-size="14px" font-style="normal" font-weight="normal" text-decoration="none" x="1537.427734375" y="971.5"></text></g></g><g transform="translate(10,10) scale(1,1)"><g><path fill="none" stroke="none"/><text fill="#000000" stroke="none" font-family="Times New Roman" font-size="14px" font-style="normal" font-weight="bold" text-decoration="none" x="1473.06396484375" y="992.5">Adapters Component</text></g></g><g transform="translate(10,10) scale(1,1)"><g><path fill="none" stroke="none"/><text fill="#000000" stroke="none" font-family="Times New Roman" font-size="14px" font-style="normal" font-weight="normal" text-decoration="none" x="1465.5" y="1008.5">(from DBMS Interaction)</text></g></g><g transform="translate(10,10) scale(1,1)"><path fill="none" stroke="#000000" d="M 1644 987 L 1775 987" stroke-miterlimit="10" stroke-dasharray="3"/></g><g transform="translate(10,10) scale(1,1)"><path fill="none" stroke="#000000" d="M 1764.837325142376 991.209517756016 L 1775 987 L 1764.837325142376 982.790482243984" stroke-miterlimit="10"/></g><g transform="translate(10,10) scale(1,1)"><path fill="none" stroke="#000000" d="M 1371 856 L 1408 856 L 1408 984 L 1456 984" stroke-miterlimit="10" stroke-dasharray="3"/></g><g transform="translate(10,10) scale(1,1)"><path fill="none" stroke="#000000" d="M 1445.837325142376 988.209517756016 L 1456 984 L 1445.837325142376 979.790482243984" stroke-miterlimit="10"/></g><g transform="translate(10,10) scale(1,1)"><path fill="none" stroke="#000000" d="M 1334 984 L 1456 984" stroke-miterlimit="10" stroke-dasharray="3"/></g><g transform="translate(10,10) scale(1,1)"><path fill="none" stroke="#000000" d="M 1445.837325142376 988.209517756016 L 1456 984 L 1445.837325142376 979.790482243984" stroke-miterlimit="10"/></g><g transform="translate(10,10) scale(1,1)"><path fill="none" stroke="#000000" d="M 1289 1083 L 1408 1083 L 1408 984 L 1456 984" stroke-miterlimit="10" stroke-dasharray="3"/></g><g transform="translate(10,10) scale(1,1)"><path fill="none" stroke="#000000" d="M 1445.837325142376 988.209517756016 L 1456 984 L 1445.837325142376 979.790482243984" stroke-miterlimit="10"/></g></g></svg>